Pridi-400.ufo
<glyph name="exclam" format="1">
  <advance width="203"/>
  <unicode hex="0021"/>
  <note>
	exclam
  </note>
  <outline>
    <contour>
      <point x="152" y="180" type="line"/>
      <point x="159" y="647" type="line"/>
      <point x="45" y="647" type="line"/>
      <point x="51" y="180" type="line"/>
    </contour>
    <contour>
      <point x="160" y="0" type="line"/>
      <point x="160" y="91" type="line"/>
      <point x="43" y="91" type="line"/>
      <point x="43" y="0" type="line"/>
    </contour>
  </outline>
</glyph>
<glyph name="quotedbl" format="1">
  <advance width="345"/>
  <unicode hex="0022"/>
  <note>
	quotedbl
  </note>
  <outline>
    <contour>
      <point x="290" y="525" type="line"/>
      <point x="302" y="721" type="line"/>
      <point x="200" y="721" type="line"/>
      <point x="213" y="525" type="line"/>
    </contour>
    <contour>
      <point x="133" y="525" type="line"/>
      <point x="145" y="721" type="line"/>
      <point x="43" y="721" type="line"/>
      <point x="55" y="525" type="line"/>
    </contour>
  </outline>
</glyph>
<glyph name="numbersign" format="1">
  <advance width="748"/>
  <unicode hex="0023"/>
  <note>
	numbersign
  </note>
  <outline>
    <contour>
      <point x="211" y="0" type="line"/>
      <point x="248" y="174" type="line"/>
      <point x="435" y="174" type="line"/>
      <point x="398" y="0" type="line"/>
      <point x="491" y="0" type="line"/>
      <point x="529" y="174" type="line"/>
      <point x="676" y="174" type="line"/>
      <point x="676" y="248" type="line"/>
      <point x="545" y="248" type="line"/>
      <point x="583" y="416" type="line"/>
      <point x="705" y="416" type="line"/>
      <point x="705" y="490" type="line"/>
      <point x="599" y="490" type="line"/>
      <point x="634" y="647" type="line"/>
      <point x="540" y="647" type="line"/>
      <point x="506" y="490" type="line"/>
      <point x="319" y="490" type="line"/>
      <point x="353" y="647" type="line"/>
      <point x="259" y="647" type="line"/>
      <point x="225" y="490" type="line"/>
      <point x="72" y="490" type="line"/>
      <point x="72" y="416" type="line"/>
      <point x="209" y="416" type="line"/>
      <point x="171" y="248" type="line"/>
      <point x="43" y="248" type="line"/>
      <point x="43" y="174" type="line"/>
      <point x="155" y="174" type="line"/>
      <point x="117" y="0" type="line"/>
    </contour>
    <contour>
      <point x="302" y="416" type="line"/>
      <point x="489" y="416" type="line"/>
      <point x="452" y="248" type="line"/>
      <point x="265" y="248" type="line"/>
    </contour>
  </outline>
</glyph>
<glyph name="dollar" format="1">
  <advance width="554"/>
  <unicode hex="0024"/>
  <note>
	dollar
  </note>
  <outline>
    <contour>
      <point x="323" y="-120" type="line"/>
      <point x="323" y="-12" type="line"/>
      <point x="446" y="-1"/>
      <point x="511" y="70"/>
      <point x="511" y="161" type="curve" smooth="yes"/>
      <point x="511" y="278"/>
      <point x="430" y="314"/>
      <point x="305" y="364" type="curve" smooth="yes"/>
      <point x="230" y="394"/>
      <point x="152" y="420"/>
      <point x="152" y="493" type="curve" smooth="yes"/>
      <point x="152" y="562"/>
      <point x="204" y="588"/>
      <point x="276" y="588" type="curve" smooth="yes"/>
      <point x="321" y="588"/>
      <point x="364" y="579"/>
      <point x="393" y="562" type="curve"/>
      <point x="393" y="501" type="line"/>
      <point x="499" y="501" type="line"/>
      <point x="499" y="593" type="line"/>
      <point x="457" y="625"/>
      <point x="396" y="652"/>
      <point x="323" y="659" type="curve"/>
      <point x="323" y="767" type="line"/>
      <point x="225" y="767" type="line"/>
      <point x="225" y="657" type="line"/>
      <point x="124" y="644"/>
      <point x="49" y="590"/>
      <point x="49" y="490" type="curve" smooth="yes"/>
      <point x="49" y="385"/>
      <point x="128" y="339"/>
      <point x="262" y="287" type="curve" smooth="yes"/>
      <point x="353" y="251"/>
      <point x="408" y="225"/>
      <point x="408" y="157" type="curve" smooth="yes"/>
      <point x="408" y="94"/>
      <point x="366" y="59"/>
      <point x="286" y="59" type="curve" smooth="yes"/>
      <point x="235" y="59"/>
      <point x="182" y="72"/>
      <point x="149" y="92" type="curve"/>
      <point x="149" y="156" type="line"/>
      <point x="43" y="156" type="line"/>
      <point x="43" y="59" type="line"/>
      <point x="89" y="24"/>
      <point x="155" y="-2"/>
      <point x="225" y="-11" type="curve"/>
      <point x="225" y="-120" type="line"/>
    </contour>
  </outline>
</glyph>
<glyph name="percent" format="1">
  <advance width="771"/>
  <unicode hex="0025"/>
  <note>
	percent
  </note>
  <outline>
    <contour>
      <point x="252" y="0" type="line"/>
      <point x="629" y="647" type="line"/>
      <point x="523" y="647" type="line"/>
      <point x="146" y="0" type="line"/>
    </contour>
    <contour>
      <point x="282" y="354"/>
      <point x="351" y="423"/>
      <point x="351" y="508" type="curve" smooth="yes"/>
      <point x="351" y="593"/>
      <point x="282" y="662"/>
      <point x="197" y="662" type="curve" smooth="yes"/>
      <point x="112" y="662"/>
      <point x="43" y="593"/>
      <point x="43" y="508" type="curve" smooth="yes"/>
      <point x="43" y="423"/>
      <point x="112" y="354"/>
      <point x="197" y="354" type="curve" smooth="yes"/>
    </contour>
    <contour>
      <point x="152" y="427"/>
      <point x="116" y="463"/>
      <point x="116" y="508" type="curve" smooth="yes"/>
      <point x="116" y="553"/>
      <point x="152" y="589"/>
      <point x="197" y="589" type="curve" smooth="yes"/>
      <point x="242" y="589"/>
      <point x="278" y="553"/>
      <point x="278" y="508" type="curve" smooth="yes"/>
      <point x="278" y="463"/>
      <point x="242" y="427"/>
      <point x="197" y="427" type="curve" smooth="yes"/>
    </contour>
    <contour>
      <point x="659" y="-15"/>
      <point x="728" y="54"/>
      <point x="728" y="139" type="curve" smooth="yes"/>
      <point x="728" y="224"/>
      <point x="659" y="293"/>
      <point x="574" y="293" type="curve" smooth="yes"/>
      <point x="489" y="293"/>
      <point x="420" y="224"/>
      <point x="420" y="139" type="curve" smooth="yes"/>
      <point x="420" y="54"/>
      <point x="489" y="-15"/>
      <point x="574" y="-15" type="curve" smooth="yes"/>
    </contour>
    <contour>
      <point x="529" y="58"/>
      <point x="493" y="94"/>
      <point x="493" y="139" type="curve" smooth="yes"/>
      <point x="493" y="184"/>
      <point x="529" y="220"/>
      <point x="574" y="220" type="curve" smooth="yes"/>
      <point x="619" y="220"/>
      <point x="655" y="184"/>
      <point x="655" y="139" type="curve" smooth="yes"/>
      <point x="655" y="94"/>
      <point x="619" y="58"/>
      <point x="574" y="58" type="curve" smooth="yes"/>
    </contour>
  </outline>
</glyph>
<glyph name="ampersand" format="1">
  <advance width="682"/>
  <unicode hex="0026"/>
  <note>
	ampersand
  </note>
  <outline>
    <contour>
      <point x="359" y="-15"/>
      <point x="415" y="-1"/>
      <point x="473" y="47" type="curve"/>
      <point x="518" y="0" type="line"/>
      <point x="638" y="0" type="line"/>
      <point x="537" y="105" type="line"/>
      <point x="566" y="152"/>
      <point x="575" y="209"/>
      <point x="575" y="269" type="curve" smooth="yes"/>
      <point x="575" y="293"/>
      <point x="583" y="300"/>
      <point x="605" y="300" type="curve" smooth="yes"/>
      <point x="639" y="300" type="line"/>
      <point x="639" y="372" type="line"/>
      <point x="482" y="372" type="line"/>
      <point x="482" y="292" type="line" smooth="yes"/>
      <point x="482" y="253"/>
      <point x="477" y="216"/>
      <point x="464" y="186" type="curve"/>
      <point x="290" y="370" type="line" smooth="yes"/>
      <point x="228" y="437"/>
      <point x="193" y="463"/>
      <point x="193" y="513" type="curve" smooth="yes"/>
      <point x="193" y="569"/>
      <point x="218" y="589"/>
      <point x="263" y="589" type="curve" smooth="yes"/>
      <point x="307" y="589"/>
      <point x="330" y="564"/>
      <point x="330" y="519" type="curve" smooth="yes"/>
      <point x="330" y="478" type="line"/>
      <point x="435" y="478" type="line"/>
      <point x="435" y="510" type="line" smooth="yes"/>
      <point x="435" y="595"/>
      <point x="380" y="662"/>
      <point x="262" y="662" type="curve" smooth="yes"/>
      <point x="163" y="662"/>
      <point x="91" y="616"/>
      <point x="91" y="513" type="curve" smooth="yes"/>
      <point x="91" y="450"/>
      <point x="138" y="399"/>
      <point x="178" y="360" type="curve"/>
      <point x="88" y="309"/>
      <point x="43" y="256"/>
      <point x="43" y="161" type="curve" smooth="yes"/>
      <point x="43" y="49"/>
      <point x="137" y="-15"/>
      <point x="275" y="-15" type="curve" smooth="yes"/>
    </contour>
    <contour>
      <point x="212" y="58"/>
      <point x="147" y="89"/>
      <point x="147" y="161" type="curve" smooth="yes"/>
      <point x="147" y="226"/>
      <point x="174" y="263"/>
      <point x="238" y="297" type="curve"/>
      <point x="419" y="104" type="line"/>
      <point x="378" y="69"/>
      <point x="337" y="58"/>
      <point x="275" y="58" type="curve" smooth="yes"/>
    </contour>
  </outline>
</glyph>
<glyph name="quotesingle" format="1">
  <advance width="196"/>
  <unicode hex="0027"/>
  <note>
	quotesingle
  </note>
  <outline>
    <contour>
      <point x="141" y="525" type="line"/>
      <point x="153" y="721" type="line"/>
      <point x="43" y="721" type="line"/>
      <point x="55" y="525" type="line"/>
    </contour>
  </outline>
</glyph>
<glyph name="parenleft" format="1">
  <advance width="351"/>
  <unicode hex="0028"/>
  <note>
	parenleft
  </note>
  <outline>
    <contour>
      <point x="308" y="-75" type="line"/>
      <point x="193" y="21"/>
      <point x="146" y="157"/>
      <point x="146" y="316" type="curve" smooth="yes"/>
      <point x="146" y="474"/>
      <point x="196" y="612"/>
      <point x="308" y="707" type="curve"/>
      <point x="185" y="707" type="line"/>
      <point x="88" y="611"/>
      <point x="43" y="477"/>
      <point x="43" y="316" type="curve" smooth="yes"/>
      <point x="43" y="155"/>
      <point x="88" y="21"/>
      <point x="185" y="-75" type="curve"/>
    </contour>
  </outline>
</glyph>
<glyph name="parenright" format="1">
  <advance width="351"/>
  <unicode hex="0029"/>
  <note>
	parenright
  </note>
  <outline>
    <contour>
      <point x="166" y="-75" type="line"/>
      <point x="263" y="21"/>
      <point x="308" y="155"/>
      <point x="308" y="316" type="curve" smooth="yes"/>
      <point x="308" y="477"/>
      <point x="263" y="611"/>
      <point x="166" y="707" type="curve"/>
      <point x="43" y="707" type="line"/>
      <point x="158" y="611"/>
      <point x="205" y="475"/>
      <point x="205" y="316" type="curve" smooth="yes"/>
      <point x="205" y="158"/>
      <point x="155" y="20"/>
      <point x="43" y="-75" type="curve"/>
    </contour>
  </outline>
</glyph>
<glyph name="asterisk" format="1">
  <advance width="417"/>
  <unicode hex="002A"/>
  <note>
	asterisk
  </note>
  <outline>
    <contour>
      <point x="208" y="499" type="line"/>
      <point x="266" y="407" type="line"/>
      <point x="340" y="456" type="line"/>
      <point x="267" y="547" type="line"/>
      <point x="374" y="575" type="line"/>
      <point x="346" y="657" type="line"/>
      <point x="251" y="617" type="line"/>
      <point x="257" y="721" type="line"/>
      <point x="161" y="721" type="line"/>
      <point x="165" y="617" type="line"/>
      <point x="71" y="657" type="line"/>
      <point x="43" y="575" type="line"/>
      <point x="149" y="547" type="line"/>
      <point x="77" y="456" type="line"/>
      <point x="150" y="407" type="line"/>
    </contour>
  </outline>
</glyph>
<glyph name="plus" format="1">
  <advance width="412"/>
  <unicode hex="002B"/>
  <note>
	plus
  </note>
  <outline>
    <contour>
      <point x="249" y="164" type="line"/>
      <point x="249" y="270" type="line"/>
      <point x="369" y="270" type="line"/>
      <point x="369" y="343" type="line"/>
      <point x="249" y="343" type="line"/>
      <point x="249" y="449" type="line"/>
      <point x="161" y="449" type="line"/>
      <point x="161" y="343" type="line"/>
      <point x="43" y="343" type="line"/>
      <point x="43" y="270" type="line"/>
      <point x="161" y="270" type="line"/>
      <point x="161" y="164" type="line"/>
    </contour>
  </outline>
</glyph>
<glyph name="comma" format="1">
  <advance width="226"/>
  <unicode hex="002C"/>
  <note>
	comma
  </note>
  <outline>
    <contour>
      <point x="120" y="-118" type="line"/>
      <point x="183" y="88" type="line"/>
      <point x="75" y="88" type="line"/>
      <point x="43" y="-118" type="line"/>
    </contour>
  </outline>
</glyph>
<glyph name="hyphen" format="1">
  <advance width="375"/>
  <unicode hex="002D"/>
  <note>
	hyphen
  </note>
  <outline>
    <contour>
      <point x="332" y="266" type="line"/>
      <point x="332" y="339" type="line"/>
      <point x="43" y="339" type="line"/>
      <point x="43" y="266" type="line"/>
    </contour>
  </outline>
</glyph>
<glyph name="period" format="1">
  <advance width="179"/>
  <unicode hex="002E"/>
  <note>
	period
  </note>
  <outline>
    <contour>
      <point x="136" y="0" type="line"/>
      <point x="136" y="88" type="line"/>
      <point x="43" y="88" type="line"/>
      <point x="43" y="0" type="line"/>
    </contour>
  </outline>
</glyph>
<glyph name="slash" format="1">
  <advance width="443"/>
  <unicode hex="002F"/>
  <note>
	slash
  </note>
  <outline>
    <contour>
      <point x="150" y="0" type="line"/>
      <point x="400" y="676" type="line"/>
      <point x="294" y="676" type="line"/>
      <point x="43" y="0" type="line"/>
    </contour>
  </outline>
</glyph>
<glyph name="zero" format="1">
  <advance width="621"/>
  <unicode hex="0030"/>
  <note>
	zero
  </note>
  <outline>
    <contour>
      <point x="500" y="-15"/>
      <point x="588" y="99"/>
      <point x="588" y="324" type="curve" smooth="yes"/>
      <point x="588" y="548"/>
      <point x="500" y="661"/>
      <point x="310" y="661" type="curve" smooth="yes"/>
      <point x="121" y="661"/>
      <point x="33" y="548"/>
      <point x="33" y="324" type="curve" smooth="yes"/>
      <point x="33" y="99"/>
      <point x="121" y="-15"/>
      <point x="310" y="-15" type="curve" smooth="yes"/>
    </contour>
    <contour>
      <point x="204" y="59"/>
      <point x="137" y="129"/>
      <point x="137" y="324" type="curve" smooth="yes"/>
      <point x="137" y="518"/>
      <point x="204" y="587"/>
      <point x="310" y="587" type="curve" smooth="yes"/>
      <point x="417" y="587"/>
      <point x="484" y="518"/>
      <point x="484" y="324" type="curve" smooth="yes"/>
      <point x="484" y="129"/>
      <point x="417" y="59"/>
      <point x="310" y="59" type="curve" smooth="yes"/>
    </contour>
  </outline>
</glyph>
<glyph name="one" format="1">
  <advance width="406"/>
  <unicode hex="0031"/>
  <note>
	one
  </note>
  <outline>
    <contour>
      <point x="373" y="0" type="line"/>
      <point x="373" y="73" type="line"/>
      <point x="315" y="73" type="line" smooth="yes"/>
      <point x="285" y="73"/>
      <point x="275" y="85"/>
      <point x="275" y="111" type="curve" smooth="yes"/>
      <point x="275" y="647" type="line"/>
      <point x="184" y="647" type="line"/>
      <point x="33" y="552" type="line"/>
      <point x="73" y="486" type="line"/>
      <point x="170" y="545" type="line"/>
      <point x="170" y="111" type="line" smooth="yes"/>
      <point x="170" y="85"/>
      <point x="161" y="73"/>
      <point x="131" y="73" type="curve" smooth="yes"/>
      <point x="72" y="73" type="line"/>
      <point x="72" y="0" type="line"/>
    </contour>
  </outline>
</glyph>
<glyph name="two" format="1">
  <advance width="536"/>
  <unicode hex="0032"/>
  <note>
	two
  </note>
  <outline>
    <contour>
      <point x="486" y="0" type="line"/>
      <point x="486" y="73" type="line"/>
      <point x="150" y="73" type="line"/>
      <point x="150" y="159"/>
      <point x="205" y="212"/>
      <point x="295" y="256" type="curve" smooth="yes"/>
      <point x="437" y="326"/>
      <point x="493" y="381"/>
      <point x="493" y="488" type="curve" smooth="yes"/>
      <point x="493" y="608"/>
      <point x="396" y="662"/>
      <point x="264" y="662" type="curve" smooth="yes"/>
      <point x="182" y="662"/>
      <point x="100" y="636"/>
      <point x="46" y="599" type="curve"/>
      <point x="46" y="505" type="line"/>
      <point x="150" y="505" type="line"/>
      <point x="150" y="564" type="line"/>
      <point x="182" y="580"/>
      <point x="224" y="588"/>
      <point x="265" y="588" type="curve" smooth="yes"/>
      <point x="340" y="588"/>
      <point x="389" y="558"/>
      <point x="389" y="488" type="curve" smooth="yes"/>
      <point x="389" y="406"/>
      <point x="353" y="371"/>
      <point x="258" y="325" type="curve" smooth="yes"/>
      <point x="126" y="261"/>
      <point x="43" y="181"/>
      <point x="43" y="53" type="curve" smooth="yes"/>
      <point x="43" y="0" type="line"/>
    </contour>
  </outline>
</glyph>
<glyph name="three" format="1">
  <advance width="553"/>
  <unicode hex="0033"/>
  <note>
	three
  </note>
  <outline>
    <contour>
      <point x="433" y="-15"/>
      <point x="510" y="48"/>
      <point x="510" y="194" type="curve" smooth="yes"/>
      <point x="510" y="268"/>
      <point x="473" y="313"/>
      <point x="417" y="339" type="curve"/>
      <point x="481" y="377"/>
      <point x="504" y="430"/>
      <point x="504" y="492" type="curve" smooth="yes"/>
      <point x="504" y="610"/>
      <point x="404" y="662"/>
      <point x="275" y="662" type="curve" smooth="yes"/>
      <point x="192" y="662"/>
      <point x="108" y="636"/>
      <point x="56" y="598" type="curve"/>
      <point x="56" y="505" type="line"/>
      <point x="161" y="505" type="line"/>
      <point x="161" y="565" type="line"/>
      <point x="194" y="580"/>
      <point x="235" y="588"/>
      <point x="276" y="588" type="curve" smooth="yes"/>
      <point x="349" y="588"/>
      <point x="400" y="559"/>
      <point x="400" y="489" type="curve" smooth="yes"/>
      <point x="400" y="410"/>
      <point x="360" y="375"/>
      <point x="287" y="375" type="curve" smooth="yes"/>
      <point x="204" y="375" type="line"/>
      <point x="204" y="301" type="line"/>
      <point x="284" y="301" type="line" smooth="yes"/>
      <point x="368" y="301"/>
      <point x="407" y="263"/>
      <point x="407" y="191" type="curve" smooth="yes"/>
      <point x="407" y="93"/>
      <point x="366" y="59"/>
      <point x="273" y="59" type="curve" smooth="yes"/>
      <point x="226" y="59"/>
      <point x="183" y="71"/>
      <point x="148" y="93" type="curve"/>
      <point x="148" y="153" type="line"/>
      <point x="43" y="153" type="line"/>
      <point x="43" y="59" type="line"/>
      <point x="99" y="12"/>
      <point x="178" y="-15"/>
      <point x="270" y="-15" type="curve" smooth="yes"/>
    </contour>
  </outline>
</glyph>
<glyph name="four" format="1">
  <advance width="554"/>
  <unicode hex="0034"/>
  <note>
	four
  </note>
  <outline>
    <contour>
      <point x="511" y="0" type="line"/>
      <point x="511" y="73" type="line"/>
      <point x="461" y="73" type="line" smooth="yes"/>
      <point x="431" y="73"/>
      <point x="421" y="85"/>
      <point x="421" y="111" type="curve" smooth="yes"/>
      <point x="421" y="171" type="line"/>
      <point x="531" y="171" type="line"/>
      <point x="531" y="245" type="line"/>
      <point x="421" y="245" type="line"/>
      <point x="421" y="647" type="line"/>
      <point x="322" y="647" type="line"/>
      <point x="23" y="239" type="line"/>
      <point x="23" y="171" type="line"/>
      <point x="318" y="171" type="line"/>
      <point x="318" y="111" type="line" smooth="yes"/>
      <point x="318" y="85"/>
      <point x="309" y="73"/>
      <point x="279" y="73" type="curve" smooth="yes"/>
      <point x="228" y="73" type="line"/>
      <point x="228" y="0" type="line"/>
    </contour>
    <contour>
      <point x="324" y="513" type="line"/>
      <point x="324" y="245" type="line"/>
      <point x="128" y="245" type="line"/>
    </contour>
  </outline>
</glyph>
<glyph name="five" format="1">
  <advance width="556"/>
  <unicode hex="0035"/>
  <note>
	five
  </note>
  <outline>
    <contour>
      <point x="439" y="-15"/>
      <point x="513" y="72"/>
      <point x="513" y="217" type="curve" smooth="yes"/>
      <point x="513" y="377"/>
      <point x="414" y="431"/>
      <point x="273" y="431" type="curve" smooth="yes"/>
      <point x="169" y="431" type="line"/>
      <point x="181" y="573" type="line"/>
      <point x="492" y="573" type="line"/>
      <point x="492" y="647" type="line"/>
      <point x="86" y="647" type="line"/>
      <point x="66" y="411" type="line"/>
      <point x="66" y="356" type="line"/>
      <point x="259" y="356" type="line" smooth="yes"/>
      <point x="360" y="356"/>
      <point x="410" y="323"/>
      <point x="410" y="217" type="curve" smooth="yes"/>
      <point x="410" y="117"/>
      <point x="373" y="59"/>
      <point x="280" y="59" type="curve" smooth="yes"/>
      <point x="228" y="59"/>
      <point x="180" y="71"/>
      <point x="148" y="92" type="curve"/>
      <point x="148" y="153" type="line"/>
      <point x="43" y="153" type="line"/>
      <point x="43" y="59" type="line"/>
      <point x="103" y="12"/>
      <point x="176" y="-15"/>
      <point x="276" y="-15" type="curve" smooth="yes"/>
    </contour>
  </outline>
</glyph>
<glyph name="six" format="1">
  <advance width="564"/>
  <unicode hex="0036"/>
  <note>
	six
  </note>
  <outline>
    <contour>
      <point x="456" y="-15"/>
      <point x="541" y="69"/>
      <point x="541" y="231" type="curve" smooth="yes"/>
      <point x="541" y="377"/>
      <point x="460" y="456"/>
      <point x="313" y="456" type="curve" smooth="yes"/>
      <point x="237" y="456"/>
      <point x="190" y="435"/>
      <point x="144" y="383" type="curve"/>
      <point x="167" y="512"/>
      <point x="221" y="581"/>
      <point x="327" y="581" type="curve" smooth="yes"/>
      <point x="384" y="581"/>
      <point x="417" y="571"/>
      <point x="456" y="544" type="curve"/>
      <point x="496" y="608" type="line"/>
      <point x="446" y="644"/>
      <point x="399" y="662"/>
      <point x="319" y="662" type="curve" smooth="yes"/>
      <point x="184" y="662"/>
      <point x="43" y="578"/>
      <point x="43" y="279" type="curve" smooth="yes"/>
      <point x="43" y="68"/>
      <point x="144" y="-15"/>
      <point x="289" y="-15" type="curve" smooth="yes"/>
    </contour>
    <contour>
      <point x="203" y="59"/>
      <point x="147" y="108"/>
      <point x="147" y="240" type="curve" smooth="yes"/>
      <point x="147" y="337"/>
      <point x="218" y="385"/>
      <point x="293" y="385" type="curve" smooth="yes"/>
      <point x="394" y="385"/>
      <point x="438" y="336"/>
      <point x="438" y="231" type="curve" smooth="yes"/>
      <point x="438" y="106"/>
      <point x="393" y="59"/>
      <point x="289" y="59" type="curve" smooth="yes"/>
    </contour>
  </outline>
</glyph>
<glyph name="seven" format="1">
  <advance width="511"/>
  <unicode hex="0037"/>
  <note>
	seven
  </note>
  <outline>
    <contour>
      <point x="248" y="0" type="line"/>
      <point x="488" y="596" type="line"/>
      <point x="488" y="647" type="line"/>
      <point x="23" y="647" type="line"/>
      <point x="23" y="503" type="line"/>
      <point x="129" y="503" type="line"/>
      <point x="129" y="573" type="line"/>
      <point x="373" y="573" type="line"/>
      <point x="142" y="0" type="line"/>
    </contour>
  </outline>
</glyph>
<glyph name="eight" format="1">
  <advance width="581"/>
  <unicode hex="0038"/>
  <note>
	eight
  </note>
  <outline>
    <contour>
      <point x="449" y="-15"/>
      <point x="538" y="47"/>
      <point x="538" y="182" type="curve" smooth="yes"/>
      <point x="538" y="259"/>
      <point x="499" y="309"/>
      <point x="444" y="337" type="curve"/>
      <point x="506" y="374"/>
      <point x="528" y="423"/>
      <point x="528" y="485" type="curve" smooth="yes"/>
      <point x="528" y="603"/>
      <point x="429" y="662"/>
      <point x="290" y="662" type="curve" smooth="yes"/>
      <point x="152" y="662"/>
      <point x="53" y="603"/>
      <point x="53" y="485" type="curve" smooth="yes"/>
      <point x="53" y="423"/>
      <point x="76" y="373"/>
      <point x="137" y="337" type="curve"/>
      <point x="81" y="309"/>
      <point x="43" y="259"/>
      <point x="43" y="182" type="curve" smooth="yes"/>
      <point x="43" y="47"/>
      <point x="132" y="-15"/>
      <point x="290" y="-15" type="curve" smooth="yes"/>
    </contour>
    <contour>
      <point x="192" y="59"/>
      <point x="146" y="98"/>
      <point x="146" y="186" type="curve" smooth="yes"/>
      <point x="146" y="260"/>
      <point x="192" y="303"/>
      <point x="282" y="303" type="curve" smooth="yes"/>
      <point x="299" y="303" type="line" smooth="yes"/>
      <point x="390" y="303"/>
      <point x="434" y="260"/>
      <point x="434" y="186" type="curve" smooth="yes"/>
      <point x="434" y="98"/>
      <point x="389" y="59"/>
      <point x="290" y="59" type="curve" smooth="yes"/>
    </contour>
    <contour>
      <point x="198" y="372"/>
      <point x="157" y="405"/>
      <point x="157" y="485" type="curve" smooth="yes"/>
      <point x="157" y="556"/>
      <point x="208" y="588"/>
      <point x="290" y="588" type="curve" smooth="yes"/>
      <point x="373" y="588"/>
      <point x="424" y="556"/>
      <point x="424" y="485" type="curve" smooth="yes"/>
      <point x="424" y="405"/>
      <point x="384" y="372"/>
      <point x="300" y="372" type="curve" smooth="yes"/>
      <point x="281" y="372" type="line" smooth="yes"/>
    </contour>
  </outline>
</glyph>
<glyph name="nine" format="1">
  <advance width="584"/>
  <unicode hex="0039"/>
  <note>
	nine
  </note>
  <outline>
    <contour>
      <point x="408" y="-15"/>
      <point x="541" y="69"/>
      <point x="541" y="368" type="curve" smooth="yes"/>
      <point x="541" y="579"/>
      <point x="443" y="662"/>
      <point x="298" y="662" type="curve" smooth="yes"/>
      <point x="134" y="662"/>
      <point x="43" y="580"/>
      <point x="43" y="418" type="curve" smooth="yes"/>
      <point x="43" y="272"/>
      <point x="125" y="191"/>
      <point x="272" y="191" type="curve" smooth="yes"/>
      <point x="346" y="191"/>
      <point x="396" y="210"/>
      <point x="440" y="260" type="curve"/>
      <point x="416" y="130"/>
      <point x="366" y="65"/>
      <point x="261" y="65" type="curve" smooth="yes"/>
      <point x="207" y="65"/>
      <point x="173" y="76"/>
      <point x="133" y="103" type="curve"/>
      <point x="91" y="35" type="line"/>
      <point x="141" y="0"/>
      <point x="195" y="-15"/>
      <point x="273" y="-15" type="curve" smooth="yes"/>
    </contour>
    <contour>
      <point x="191" y="262"/>
      <point x="146" y="311"/>
      <point x="146" y="416" type="curve" smooth="yes"/>
      <point x="146" y="541"/>
      <point x="194" y="588"/>
      <point x="298" y="588" type="curve" smooth="yes"/>
      <point x="383" y="588"/>
      <point x="437" y="541"/>
      <point x="437" y="409" type="curve" smooth="yes"/>
      <point x="437" y="312"/>
      <point x="370" y="262"/>
      <point x="292" y="262" type="curve" smooth="yes"/>
    </contour>
  </outline>
</glyph>
<glyph name="colon" format="1">
  <advance width="181"/>
  <unicode hex="003A"/>
  <note>
	colon
  </note>
  <outline>
    <contour>
      <point x="138" y="0" type="line"/>
      <point x="138" y="99" type="line"/>
      <point x="43" y="99" type="line"/>
      <point x="43" y="0" type="line"/>
    </contour>
    <contour>
      <point x="138" y="396" type="line"/>
      <point x="138" y="494" type="line"/>
      <point x="43" y="494" type="line"/>
      <point x="43" y="396" type="line"/>
    </contour>
  </outline>
</glyph>
<glyph name="semicolon" format="1">
  <advance width="222"/>
  <unicode hex="003B"/>
  <note>
	semicolon
  </note>
  <outline>
    <contour>
      <point x="116" y="-118" type="line"/>
      <point x="179" y="88" type="line"/>
      <point x="74" y="88" type="line"/>
      <point x="43" y="-118" type="line"/>
    </contour>
    <contour>
      <point x="175" y="396" type="line"/>
      <point x="175" y="494" type="line"/>
      <point x="72" y="494" type="line"/>
      <point x="72" y="396" type="line"/>
    </contour>
  </outline>
</glyph>
<glyph name="less" format="1">
  <advance width="624"/>
  <unicode hex="003C"/>
  <note>
	less
  </note>
  <outline>
    <contour>
      <point x="581" y="148" type="line"/>
      <point x="164" y="325" type="line"/>
      <point x="581" y="501" type="line"/>
      <point x="581" y="592" type="line"/>
      <point x="43" y="355" type="line"/>
      <point x="43" y="294" type="line"/>
      <point x="581" y="57" type="line"/>
    </contour>
  </outline>
</glyph>
<glyph name="equal" format="1">
  <advance width="410"/>
  <unicode hex="003D"/>
  <note>
	equal
  </note>
  <outline>
    <contour>
      <point x="367" y="189" type="line"/>
      <point x="367" y="263" type="line"/>
      <point x="43" y="263" type="line"/>
      <point x="43" y="189" type="line"/>
    </contour>
    <contour>
      <point x="367" y="343" type="line"/>
      <point x="367" y="416" type="line"/>
      <point x="43" y="416" type="line"/>
      <point x="43" y="343" type="line"/>
    </contour>
  </outline>
</glyph>
<glyph name="greater" format="1">
  <advance width="624"/>
  <unicode hex="003E"/>
  <note>
	greater
  </note>
  <outline>
    <contour>
      <point x="581" y="294" type="line"/>
      <point x="581" y="355" type="line"/>
      <point x="43" y="592" type="line"/>
      <point x="43" y="501" type="line"/>
      <point x="460" y="325" type="line"/>
      <point x="43" y="148" type="line"/>
      <point x="43" y="57" type="line"/>
    </contour>
  </outline>
</glyph>
<glyph name="question" format="1">
  <advance width="535"/>
  <unicode hex="003F"/>
  <note>
	question
  </note>
  <outline>
    <contour>
      <point x="280" y="156" type="line"/>
      <point x="280" y="182" type="line" smooth="yes"/>
      <point x="280" y="243"/>
      <point x="288" y="279"/>
      <point x="351" y="312" type="curve" smooth="yes"/>
      <point x="451" y="366"/>
      <point x="492" y="403"/>
      <point x="492" y="494" type="curve" smooth="yes"/>
      <point x="492" y="610"/>
      <point x="401" y="662"/>
      <point x="264" y="662" type="curve" smooth="yes"/>
      <point x="176" y="662"/>
      <point x="94" y="634"/>
      <point x="43" y="596" type="curve"/>
      <point x="43" y="500" type="line"/>
      <point x="139" y="500" type="line"/>
      <point x="139" y="558" type="line"/>
      <point x="170" y="575"/>
      <point x="214" y="588"/>
      <point x="262" y="588" type="curve" smooth="yes"/>
      <point x="340" y="588"/>
      <point x="389" y="561"/>
      <point x="389" y="494" type="curve" smooth="yes"/>
      <point x="389" y="430"/>
      <point x="358" y="405"/>
      <point x="294" y="374" type="curve" smooth="yes"/>
      <point x="205" y="328"/>
      <point x="174" y="271"/>
      <point x="174" y="186" type="curve" smooth="yes"/>
      <point x="174" y="156" type="line"/>
    </contour>
    <contour>
      <point x="287" y="0" type="line"/>
      <point x="287" y="95" type="line"/>
      <point x="166" y="95" type="line"/>
      <point x="166" y="0" type="line"/>
    </contour>
  </outline>
</glyph>
<glyph name="at" format="1">
  <advance width="860"/>
  <unicode hex="0040"/>
  <note>
	at
  </note>
  <outline>
    <contour>
      <point x="519" y="-110"/>
      <point x="587" y="-98"/>
      <point x="662" y="-71" type="curve"/>
      <point x="662" y="10" type="line"/>
      <point x="589" y="-18"/>
      <point x="504" y="-28"/>
      <point x="434" y="-28" type="curve" smooth="yes"/>
      <point x="247" y="-28"/>
      <point x="137" y="67"/>
      <point x="137" y="278" type="curve" smooth="yes"/>
      <point x="137" y="466"/>
      <point x="243" y="567"/>
      <point x="434" y="567" type="curve" smooth="yes"/>
      <point x="650" y="567"/>
      <point x="723" y="475"/>
      <point x="723" y="294" type="curve" smooth="yes"/>
      <point x="723" y="182"/>
      <point x="697" y="137"/>
      <point x="650" y="137" type="curve" smooth="yes"/>
      <point x="620" y="137"/>
      <point x="607" y="158"/>
      <point x="607" y="191" type="curve" smooth="yes"/>
      <point x="607" y="327" type="line" smooth="yes"/>
      <point x="607" y="418"/>
      <point x="558" y="467"/>
      <point x="444" y="467" type="curve" smooth="yes"/>
      <point x="384" y="467"/>
      <point x="326" y="452"/>
      <point x="282" y="422" type="curve"/>
      <point x="282" y="359" type="line"/>
      <point x="374" y="359" type="line"/>
      <point x="374" y="387" type="line"/>
      <point x="394" y="396"/>
      <point x="412" y="401"/>
      <point x="444" y="401" type="curve" smooth="yes"/>
      <point x="494" y="401"/>
      <point x="511" y="381"/>
      <point x="511" y="333" type="curve" smooth="yes"/>
      <point x="511" y="302" type="line"/>
      <point x="386" y="294" type="line" smooth="yes"/>
      <point x="302" y="288"/>
      <point x="254" y="248"/>
      <point x="254" y="172" type="curve" smooth="yes"/>
      <point x="254" y="103"/>
      <point x="302" y="60"/>
      <point x="396" y="60" type="curve" smooth="yes"/>
      <point x="472" y="60"/>
      <point x="525" y="87"/>
      <point x="555" y="130" type="curve"/>
      <point x="565" y="93"/>
      <point x="607" y="63"/>
      <point x="656" y="63" type="curve" smooth="yes"/>
      <point x="776" y="63"/>
      <point x="817" y="162"/>
      <point x="817" y="292" type="curve" smooth="yes"/>
      <point x="817" y="513"/>
      <point x="701" y="652"/>
      <point x="434" y="652" type="curve" smooth="yes"/>
      <point x="193" y="652"/>
      <point x="43" y="506"/>
      <point x="43" y="278" type="curve" smooth="yes"/>
      <point x="43" y="50"/>
      <point x="163" y="-110"/>
      <point x="434" y="-110" type="curve" smooth="yes"/>
    </contour>
    <contour>
      <point x="367" y="126"/>
      <point x="344" y="139"/>
      <point x="344" y="173" type="curve" smooth="yes"/>
      <point x="344" y="215"/>
      <point x="366" y="227"/>
      <point x="408" y="230" type="curve" smooth="yes"/>
      <point x="511" y="237" type="line"/>
      <point x="511" y="208" type="line" smooth="yes"/>
      <point x="511" y="151"/>
      <point x="465" y="126"/>
      <point x="408" y="126" type="curve" smooth="yes"/>
    </contour>
  </outline>
</glyph>
<glyph name="B" format="1">
  <advance width="591"/>
  <unicode hex="0042"/>
  <note>
	B
  </note>
  <outline>
    <contour>
      <point x="385" y="0" type="line" smooth="yes"/>
      <point x="496" y="0"/>
      <point x="558" y="78"/>
      <point x="558" y="179" type="curve" smooth="yes"/>
      <point x="558" y="253"/>
      <point x="524" y="306"/>
      <point x="457" y="329" type="curve"/>
      <point x="517" y="356"/>
      <point x="547" y="412"/>
      <point x="547" y="475" type="curve" smooth="yes"/>
      <point x="547" y="584"/>
      <point x="484" y="647"/>
      <point x="369" y="647" type="curve" smooth="yes"/>
      <point x="33" y="647" type="line"/>
      <point x="33" y="573" type="line"/>
      <point x="62" y="573" type="line" smooth="yes"/>
      <point x="89" y="573"/>
      <point x="99" y="562"/>
      <point x="99" y="537" type="curve" smooth="yes"/>
      <point x="99" y="111" type="line" smooth="yes"/>
      <point x="99" y="84"/>
      <point x="89" y="73"/>
      <point x="62" y="73" type="curve" smooth="yes"/>
      <point x="33" y="73" type="line"/>
      <point x="33" y="0" type="line"/>
    </contour>
    <contour>
      <point x="205" y="288" type="line"/>
      <point x="340" y="288" type="line" smooth="yes"/>
      <point x="416" y="288"/>
      <point x="454" y="258"/>
      <point x="454" y="182" type="curve" smooth="yes"/>
      <point x="454" y="108"/>
      <point x="415" y="73"/>
      <point x="356" y="73" type="curve" smooth="yes"/>
      <point x="205" y="73" type="line"/>
    </contour>
    <contour>
      <point x="205" y="574" type="line"/>
      <point x="339" y="574" type="line" smooth="yes"/>
      <point x="413" y="574"/>
      <point x="443" y="540"/>
      <point x="443" y="470" type="curve" smooth="yes"/>
      <point x="443" y="401"/>
      <point x="402" y="363"/>
      <point x="334" y="363" type="curve" smooth="yes"/>
      <point x="205" y="363" type="line"/>
    </contour>
  </outline>
</glyph>
<glyph name="F" format="1">
  <advance width="545"/>
  <unicode hex="0046"/>
  <note>
	F
  </note>
  <outline>
    <contour>
      <point x="271" y="0" type="line"/>
      <point x="271" y="73" type="line"/>
      <point x="241" y="73" type="line" smooth="yes"/>
      <point x="215" y="73"/>
      <point x="205" y="84"/>
      <point x="205" y="110" type="curve" smooth="yes"/>
      <point x="205" y="287" type="line"/>
      <point x="378" y="287" type="line"/>
      <point x="378" y="361" type="line"/>
      <point x="205" y="361" type="line"/>
      <point x="205" y="574" type="line"/>
      <point x="378" y="574" type="line" smooth="yes"/>
      <point x="405" y="574"/>
      <point x="416" y="563"/>
      <point x="416" y="538" type="curve" smooth="yes"/>
      <point x="416" y="518" type="line"/>
      <point x="512" y="518" type="line"/>
      <point x="512" y="647" type="line"/>
      <point x="33" y="647" type="line"/>
      <point x="33" y="573" type="line"/>
      <point x="62" y="573" type="line" smooth="yes"/>
      <point x="89" y="573"/>
      <point x="99" y="562"/>
      <point x="99" y="537" type="curve" smooth="yes"/>
      <point x="99" y="111" type="line" smooth="yes"/>
      <point x="99" y="84"/>
      <point x="89" y="73"/>
      <point x="62" y="73" type="curve" smooth="yes"/>
      <point x="33" y="73" type="line"/>
      <point x="33" y="0" type="line"/>
    </contour>
  </outline>
</glyph>
<glyph name="G" format="1">
  <advance width="618"/>
  <unicode hex="0047"/>
  <note>
	G
  </note>
  <outline>
    <contour>
      <point x="445" y="-15"/>
      <point x="519" y="3"/>
      <point x="585" y="48" type="curve"/>
      <point x="585" y="341" type="line"/>
      <point x="341" y="341" type="line"/>
      <point x="341" y="267" type="line"/>
      <point x="480" y="267" type="line"/>
      <point x="480" y="80" type="line"/>
      <point x="442" y="65"/>
      <point x="404" y="59"/>
      <point x="357" y="59" type="curve" smooth="yes"/>
      <point x="218" y="59"/>
      <point x="137" y="156"/>
      <point x="137" y="320" type="curve" smooth="yes"/>
      <point x="137" y="487"/>
      <point x="212" y="588"/>
      <point x="347" y="588" type="curve" smooth="yes"/>
      <point x="394" y="588"/>
      <point x="429" y="581"/>
      <point x="458" y="566" type="curve"/>
      <point x="458" y="504" type="line"/>
      <point x="564" y="504" type="line"/>
      <point x="564" y="606" type="line"/>
      <point x="511" y="644"/>
      <point x="444" y="662"/>
      <point x="347" y="662" type="curve" smooth="yes"/>
      <point x="130" y="662"/>
      <point x="33" y="514"/>
      <point x="33" y="320" type="curve" smooth="yes"/>
      <point x="33" y="125"/>
      <point x="143" y="-15"/>
      <point x="353" y="-15" type="curve" smooth="yes"/>
    </contour>
  </outline>
</glyph>
<glyph name="H" format="1">
  <advance width="682"/>
  <unicode hex="0048"/>
  <note>
	H
  </note>
  <outline>
    <contour>
      <point x="266" y="0" type="line"/>
      <point x="266" y="73" type="line"/>
      <point x="241" y="73" type="line" smooth="yes"/>
      <point x="215" y="73"/>
      <point x="205" y="84"/>
      <point x="205" y="111" type="curve" smooth="yes"/>
      <point x="205" y="288" type="line"/>
      <point x="477" y="288" type="line"/>
      <point x="477" y="111" type="line" smooth="yes"/>
      <point x="477" y="84"/>
      <point x="467" y="73"/>
      <point x="441" y="73" type="curve" smooth="yes"/>
      <point x="415" y="73" type="line"/>
      <point x="415" y="0" type="line"/>
      <point x="649" y="0" type="line"/>
      <point x="649" y="73" type="line"/>
      <point x="620" y="73" type="line" smooth="yes"/>
      <point x="593" y="73"/>
      <point x="583" y="84"/>
      <point x="583" y="111" type="curve" smooth="yes"/>
      <point x="583" y="537" type="line" smooth="yes"/>
      <point x="583" y="562"/>
      <point x="593" y="573"/>
      <point x="620" y="573" type="curve" smooth="yes"/>
      <point x="649" y="573" type="line"/>
      <point x="649" y="647" type="line"/>
      <point x="415" y="647" type="line"/>
      <point x="415" y="573" type="line"/>
      <point x="441" y="573" type="line" smooth="yes"/>
      <point x="467" y="573"/>
      <point x="477" y="563"/>
      <point x="477" y="536" type="curve" smooth="yes"/>
      <point x="477" y="361" type="line"/>
      <point x="205" y="361" type="line"/>
      <point x="205" y="537" type="line" smooth="yes"/>
      <point x="205" y="562"/>
      <point x="215" y="573"/>
      <point x="241" y="573" type="curve" smooth="yes"/>
      <point x="266" y="573" type="line"/>
      <point x="266" y="647" type="line"/>
      <point x="33" y="647" type="line"/>
      <point x="33" y="573" type="line"/>
      <point x="62" y="573" type="line" smooth="yes"/>
      <point x="89" y="573"/>
      <point x="99" y="562"/>
      <point x="99" y="537" type="curve" smooth="yes"/>
      <point x="99" y="111" type="line" smooth="yes"/>
      <point x="99" y="84"/>
      <point x="89" y="73"/>
      <point x="62" y="73" type="curve" smooth="yes"/>
      <point x="33" y="73" type="line"/>
      <point x="33" y="0" type="line"/>
    </contour>
  </outline>
</glyph>
<glyph name="J" format="1">
  <advance width="496"/>
  <unicode hex="004A"/>
  <note>
	J
  </note>
  <outline>
    <contour>
      <point x="329" y="-15"/>
      <point x="397" y="59"/>
      <point x="397" y="181" type="curve" smooth="yes"/>
      <point x="397" y="537" type="line" smooth="yes"/>
      <point x="397" y="562"/>
      <point x="408" y="573"/>
      <point x="434" y="573" type="curve" smooth="yes"/>
      <point x="463" y="573" type="line"/>
      <point x="463" y="647" type="line"/>
      <point x="225" y="647" type="line"/>
      <point x="225" y="573" type="line"/>
      <point x="255" y="573" type="line" smooth="yes"/>
      <point x="281" y="573"/>
      <point x="292" y="562"/>
      <point x="292" y="537" type="curve" smooth="yes"/>
      <point x="292" y="166" type="line" smooth="yes"/>
      <point x="292" y="95"/>
      <point x="262" y="59"/>
      <point x="192" y="59" type="curve" smooth="yes"/>
      <point x="155" y="59"/>
      <point x="121" y="70"/>
      <point x="99" y="93" type="curve"/>
      <point x="99" y="141" type="line"/>
      <point x="3" y="141" type="line"/>
      <point x="3" y="61" type="line"/>
      <point x="46" y="13"/>
      <point x="111" y="-15"/>
      <point x="199" y="-15" type="curve" smooth="yes"/>
    </contour>
  </outline>
</glyph>
<glyph name="K" format="1">
  <advance width="648"/>
  <unicode hex="004B"/>
  <note>
	K
  </note>
  <outline>
    <contour>
      <point x="262" y="0" type="line"/>
      <point x="262" y="74" type="line"/>
      <point x="240" y="74" type="line" smooth="yes"/>
      <point x="212" y="74"/>
      <point x="205" y="87"/>
      <point x="205" y="110" type="curve" smooth="yes"/>
      <point x="205" y="217" type="line"/>
      <point x="288" y="306" type="line"/>
      <point x="441" y="74" type="line"/>
      <point x="385" y="74" type="line"/>
      <point x="385" y="0" type="line"/>
      <point x="615" y="0" type="line"/>
      <point x="615" y="74" type="line"/>
      <point x="582" y="74" type="line" smooth="yes"/>
      <point x="557" y="74"/>
      <point x="542" y="83"/>
      <point x="528" y="104" type="curve" smooth="yes"/>
      <point x="351" y="372" type="line"/>
      <point x="513" y="543" type="line" smooth="yes"/>
      <point x="530" y="561"/>
      <point x="540" y="570"/>
      <point x="568" y="570" type="curve" smooth="yes"/>
      <point x="605" y="570" type="line"/>
      <point x="605" y="647" type="line"/>
      <point x="385" y="647" type="line"/>
      <point x="385" y="574" type="line"/>
      <point x="436" y="574" type="line"/>
      <point x="205" y="326" type="line"/>
      <point x="205" y="538" type="line" smooth="yes"/>
      <point x="205" y="562"/>
      <point x="214" y="574"/>
      <point x="238" y="574" type="curve" smooth="yes"/>
      <point x="256" y="574" type="line"/>
      <point x="256" y="647" type="line"/>
      <point x="39" y="647" type="line"/>
      <point x="39" y="574" type="line"/>
      <point x="62" y="574" type="line" smooth="yes"/>
      <point x="89" y="574"/>
      <point x="99" y="563"/>
      <point x="99" y="538" type="curve" smooth="yes"/>
      <point x="99" y="110" type="line" smooth="yes"/>
      <point x="99" y="85"/>
      <point x="89" y="74"/>
      <point x="62" y="74" type="curve" smooth="yes"/>
      <point x="33" y="74" type="line"/>
      <point x="33" y="0" type="line"/>
    </contour>
  </outline>
</glyph>
<glyph name="M" format="1">
  <advance width="775"/>
  <unicode hex="004D"/>
  <note>
	M
  </note>
  <outline>
    <contour>
      <point x="270" y="0" type="line"/>
      <point x="270" y="73" type="line"/>
      <point x="240" y="73" type="line" smooth="yes"/>
      <point x="214" y="73"/>
      <point x="203" y="84"/>
      <point x="203" y="110" type="curve" smooth="yes"/>
      <point x="203" y="472" type="line"/>
      <point x="347" y="139" type="line"/>
      <point x="428" y="139" type="line"/>
      <point x="571" y="472" type="line"/>
      <point x="571" y="110" type="line" smooth="yes"/>
      <point x="571" y="84"/>
      <point x="561" y="73"/>
      <point x="535" y="73" type="curve" smooth="yes"/>
      <point x="505" y="73" type="line"/>
      <point x="505" y="0" type="line"/>
      <point x="742" y="0" type="line"/>
      <point x="742" y="73" type="line"/>
      <point x="712" y="73" type="line" smooth="yes"/>
      <point x="686" y="73"/>
      <point x="676" y="84"/>
      <point x="676" y="111" type="curve" smooth="yes"/>
      <point x="676" y="536" type="line" smooth="yes"/>
      <point x="676" y="563"/>
      <point x="686" y="574"/>
      <point x="712" y="574" type="curve" smooth="yes"/>
      <point x="742" y="574" type="line"/>
      <point x="742" y="647" type="line"/>
      <point x="563" y="647" type="line"/>
      <point x="388" y="240" type="line"/>
      <point x="212" y="647" type="line"/>
      <point x="33" y="647" type="line"/>
      <point x="33" y="574" type="line"/>
      <point x="62" y="574" type="line" smooth="yes"/>
      <point x="89" y="574"/>
      <point x="99" y="563"/>
      <point x="99" y="536" type="curve" smooth="yes"/>
      <point x="99" y="111" type="line" smooth="yes"/>
      <point x="99" y="84"/>
      <point x="89" y="73"/>
      <point x="62" y="73" type="curve" smooth="yes"/>
      <point x="33" y="73" type="line"/>
      <point x="33" y="0" type="line"/>
    </contour>
  </outline>
</glyph>
<glyph name="N" format="1">
  <advance width="691"/>
  <unicode hex="004E"/>
  <note>
	N
  </note>
  <outline>
    <contour>
      <point x="270" y="0" type="line"/>
      <point x="270" y="74" type="line"/>
      <point x="241" y="74" type="line" smooth="yes"/>
      <point x="215" y="74"/>
      <point x="204" y="85"/>
      <point x="204" y="110" type="curve" smooth="yes"/>
      <point x="204" y="472" type="line"/>
      <point x="509" y="0" type="line"/>
      <point x="592" y="0" type="line"/>
      <point x="592" y="537" type="line" smooth="yes"/>
      <point x="592" y="562"/>
      <point x="602" y="573"/>
      <point x="628" y="573" type="curve" smooth="yes"/>
      <point x="658" y="573" type="line"/>
      <point x="658" y="647" type="line"/>
      <point x="420" y="647" type="line"/>
      <point x="420" y="573" type="line"/>
      <point x="450" y="573" type="line" smooth="yes"/>
      <point x="476" y="573"/>
      <point x="487" y="562"/>
      <point x="487" y="537" type="curve" smooth="yes"/>
      <point x="487" y="174" type="line"/>
      <point x="182" y="647" type="line"/>
      <point x="33" y="647" type="line"/>
      <point x="33" y="573" type="line"/>
      <point x="62" y="573" type="line" smooth="yes"/>
      <point x="89" y="573"/>
      <point x="99" y="562"/>
      <point x="99" y="537" type="curve" smooth="yes"/>
      <point x="99" y="110" type="line" smooth="yes"/>
      <point x="99" y="85"/>
      <point x="89" y="74"/>
      <point x="62" y="74" type="curve" smooth="yes"/>
      <point x="33" y="74" type="line"/>
      <point x="33" y="0" type="line"/>
    </contour>
  </outline>
</glyph>
<glyph name="P" format="1">
  <advance width="622"/>
  <unicode hex="0050"/>
  <note>
	P
  </note>
  <outline>
    <contour>
      <point x="270" y="0" type="line"/>
      <point x="270" y="73" type="line"/>
      <point x="244" y="73" type="line" smooth="yes"/>
      <point x="214" y="73"/>
      <point x="205" y="86"/>
      <point x="205" y="110" type="curve" smooth="yes"/>
      <point x="205" y="241" type="line"/>
      <point x="375" y="241" type="line" smooth="yes"/>
      <point x="507" y="241"/>
      <point x="589" y="320"/>
      <point x="589" y="448" type="curve" smooth="yes"/>
      <point x="589" y="577"/>
      <point x="507" y="647"/>
      <point x="376" y="647" type="curve" smooth="yes"/>
      <point x="33" y="647" type="line"/>
      <point x="33" y="573" type="line"/>
      <point x="60" y="573" type="line" smooth="yes"/>
      <point x="90" y="573"/>
      <point x="99" y="561"/>
      <point x="99" y="537" type="curve" smooth="yes"/>
      <point x="99" y="110" type="line" smooth="yes"/>
      <point x="99" y="86"/>
      <point x="90" y="73"/>
      <point x="60" y="73" type="curve" smooth="yes"/>
      <point x="33" y="73" type="line"/>
      <point x="33" y="0" type="line"/>
    </contour>
    <contour>
      <point x="205" y="573" type="line"/>
      <point x="361" y="573" type="line" smooth="yes"/>
      <point x="446" y="573"/>
      <point x="485" y="543"/>
      <point x="485" y="448" type="curve" smooth="yes"/>
      <point x="485" y="357"/>
      <point x="444" y="315"/>
      <point x="361" y="315" type="curve" smooth="yes"/>
      <point x="205" y="315" type="line"/>
    </contour>
  </outline>
</glyph>
<glyph name="Q" format="1">
  <advance width="659"/>
  <unicode hex="0051"/>
  <note>
	Q
  </note>
  <outline>
    <contour>
      <point x="520" y="-145"/>
      <point x="570" y="-124"/>
      <point x="600" y="-83" type="curve"/>
      <point x="600" y="-24" type="line"/>
      <point x="518" y="-24" type="line"/>
      <point x="518" y="-51" type="line"/>
      <point x="502" y="-65"/>
      <point x="486" y="-71"/>
      <point x="451" y="-71" type="curve" smooth="yes"/>
      <point x="409" y="-71"/>
      <point x="380" y="-58"/>
      <point x="373" y="-13" type="curve"/>
      <point x="544" y="3"/>
      <point x="626" y="129"/>
      <point x="626" y="321" type="curve" smooth="yes"/>
      <point x="626" y="527"/>
      <point x="538" y="661"/>
      <point x="330" y="661" type="curve" smooth="yes"/>
      <point x="121" y="661"/>
      <point x="33" y="527"/>
      <point x="33" y="321" type="curve" smooth="yes"/>
      <point x="33" y="129"/>
      <point x="115" y="2"/>
      <point x="288" y="-13" type="curve"/>
      <point x="299" y="-83"/>
      <point x="347" y="-145"/>
      <point x="450" y="-145" type="curve" smooth="yes"/>
    </contour>
    <contour>
      <point x="201" y="59"/>
      <point x="137" y="148"/>
      <point x="137" y="321" type="curve" smooth="yes"/>
      <point x="137" y="498"/>
      <point x="200" y="587"/>
      <point x="330" y="587" type="curve" smooth="yes"/>
      <point x="459" y="587"/>
      <point x="522" y="498"/>
      <point x="522" y="321" type="curve" smooth="yes"/>
      <point x="522" y="148"/>
      <point x="458" y="59"/>
      <point x="330" y="59" type="curve" smooth="yes"/>
    </contour>
  </outline>
</glyph>
<glyph name="V" format="1">
  <advance width="707"/>
  <unicode hex="0056"/>
  <note>
	V
  </note>
  <outline>
    <contour>
      <point x="405" y="0" type="line"/>
      <point x="592" y="534" type="line" smooth="yes"/>
      <point x="604" y="568"/>
      <point x="616" y="575"/>
      <point x="653" y="575" type="curve" smooth="yes"/>
      <point x="674" y="575" type="line"/>
      <point x="674" y="647" type="line"/>
      <point x="519" y="647" type="line"/>
      <point x="354" y="139" type="line"/>
      <point x="187" y="647" type="line"/>
      <point x="33" y="647" type="line"/>
      <point x="33" y="575" type="line"/>
      <point x="54" y="575" type="line" smooth="yes"/>
      <point x="91" y="575"/>
      <point x="103" y="567"/>
      <point x="115" y="534" type="curve" smooth="yes"/>
      <point x="304" y="0" type="line"/>
    </contour>
  </outline>
</glyph>
<glyph name="W" format="1">
  <advance width="871"/>
  <unicode hex="0057"/>
  <note>
	W
  </note>
  <outline>
    <contour>
      <point x="320" y="0" type="line"/>
      <point x="435" y="368" type="line"/>
      <point x="552" y="0" type="line"/>
      <point x="639" y="0" type="line"/>
      <point x="758" y="532" type="line" smooth="yes"/>
      <point x="765" y="564"/>
      <point x="778" y="573"/>
      <point x="816" y="573" type="curve" smooth="yes"/>
      <point x="838" y="573" type="line"/>
      <point x="838" y="647" type="line"/>
      <point x="685" y="647" type="line"/>
      <point x="586" y="183" type="line"/>
      <point x="477" y="538" type="line"/>
      <point x="393" y="538" type="line"/>
      <point x="285" y="183" type="line"/>
      <point x="187" y="647" type="line"/>
      <point x="33" y="647" type="line"/>
      <point x="33" y="573" type="line"/>
      <point x="54" y="573" type="line" smooth="yes"/>
      <point x="92" y="573"/>
      <point x="105" y="564"/>
      <point x="112" y="532" type="curve" smooth="yes"/>
      <point x="232" y="0" type="line"/>
    </contour>
  </outline>
</glyph>
<glyph name="X" format="1">
  <advance width="675"/>
  <unicode hex="0058"/>
  <note>
	X
  </note>
  <outline>
    <contour>
      <point x="263" y="0" type="line"/>
      <point x="263" y="73" type="line"/>
      <point x="217" y="73" type="line"/>
      <point x="337" y="259" type="line"/>
      <point x="458" y="73" type="line"/>
      <point x="411" y="73" type="line"/>
      <point x="411" y="0" type="line"/>
      <point x="642" y="0" type="line"/>
      <point x="642" y="74" type="line"/>
      <point x="610" y="74" type="line" smooth="yes"/>
      <point x="574" y="74"/>
      <point x="558" y="82"/>
      <point x="540" y="109" type="curve" smooth="yes"/>
      <point x="392" y="325" type="line"/>
      <point x="537" y="538" type="line" smooth="yes"/>
      <point x="556" y="566"/>
      <point x="571" y="573"/>
      <point x="607" y="573" type="curve" smooth="yes"/>
      <point x="634" y="573" type="line"/>
      <point x="634" y="647" type="line"/>
      <point x="408" y="647" type="line"/>
      <point x="408" y="573" type="line"/>
      <point x="455" y="573" type="line"/>
      <point x="337" y="391" type="line"/>
      <point x="220" y="573" type="line"/>
      <point x="266" y="573" type="line"/>
      <point x="266" y="647" type="line"/>
      <point x="40" y="647" type="line"/>
      <point x="40" y="573" type="line"/>
      <point x="67" y="573" type="line" smooth="yes"/>
      <point x="103" y="573"/>
      <point x="119" y="566"/>
      <point x="138" y="538" type="curve" smooth="yes"/>
      <point x="282" y="325" type="line"/>
      <point x="135" y="109" type="line" smooth="yes"/>
      <point x="116" y="82"/>
      <point x="100" y="74"/>
      <point x="64" y="74" type="curve" smooth="yes"/>
      <point x="33" y="74" type="line"/>
      <point x="33" y="0" type="line"/>
    </contour>
  </outline>
</glyph>
<glyph name="bracketleft" format="1">
  <advance width="297"/>
  <unicode hex="005B"/>
  <note>
	bracketleft
  </note>
  <outline>
    <contour>
      <point x="254" y="-83" type="line"/>
      <point x="254" y="-10" type="line"/>
      <point x="159" y="-10" type="line"/>
      <point x="159" y="676" type="line"/>
      <point x="254" y="676" type="line"/>
      <point x="254" y="750" type="line"/>
      <point x="53" y="750" type="line"/>
      <point x="53" y="-83" type="line"/>
    </contour>
  </outline>
</glyph>
<glyph name="backslash" format="1">
  <advance width="442"/>
  <unicode hex="005C"/>
  <note>
	backslash
  </note>
  <outline>
    <contour>
      <point x="399" y="0" type="line"/>
      <point x="149" y="676" type="line"/>
      <point x="43" y="676" type="line"/>
      <point x="293" y="0" type="line"/>
    </contour>
  </outline>
</glyph>
<glyph name="bracketright" format="1">
  <advance width="297"/>
  <unicode hex="005D"/>
  <note>
	bracketright
  </note>
  <outline>
    <contour>
      <point x="244" y="-83" type="line"/>
      <point x="244" y="750" type="line"/>
      <point x="43" y="750" type="line"/>
      <point x="43" y="676" type="line"/>
      <point x="138" y="676" type="line"/>
      <point x="138" y="-10" type="line"/>
      <point x="43" y="-10" type="line"/>
      <point x="43" y="-83" type="line"/>
    </contour>
  </outline>
</glyph>
<glyph name="asciicircum" format="1">
  <advance width="596"/>
  <unicode hex="005E"/>
  <note>
	asciicircum
  </note>
  <outline>
    <contour>
      <point x="153" y="364" type="line"/>
      <point x="298" y="618" type="line"/>
      <point x="443" y="364" type="line"/>
      <point x="553" y="364" type="line"/>
      <point x="342" y="719" type="line"/>
      <point x="254" y="719" type="line"/>
      <point x="43" y="364" type="line"/>
    </contour>
  </outline>
</glyph>
<glyph name="underscore" format="1">
  <advance width="467"/>
  <unicode hex="005F"/>
  <note>
	underscore
  </note>
  <outline>
    <contour>
      <point x="424" y="-74" type="line"/>
      <point x="424" y="0" type="line"/>
      <point x="43" y="0" type="line"/>
      <point x="43" y="-74" type="line"/>
    </contour>
  </outline>
</glyph>
<glyph name="grave" format="1">
  <advance width="297"/>
  <unicode hex="0060"/>
  <note>
	grave
  </note>
  <outline>
    <contour>
      <point x="254" y="525" type="line"/>
      <point x="168" y="713" type="line"/>
      <point x="43" y="713" type="line"/>
      <point x="163" y="525" type="line"/>
    </contour>
  </outline>
</glyph>
<glyph name="b" format="1">
  <advance width="588"/>
  <unicode hex="0062"/>
  <note>
	b
  </note>
  <outline>
    <contour>
      <point x="469" y="-15"/>
      <point x="555" y="78"/>
      <point x="555" y="240" type="curve" smooth="yes"/>
      <point x="555" y="406"/>
      <point x="484" y="495"/>
      <point x="349" y="495" type="curve" smooth="yes"/>
      <point x="279" y="495"/>
      <point x="219" y="473"/>
      <point x="183" y="422" type="curve"/>
      <point x="183" y="662" type="line"/>
      <point x="23" y="662" type="line"/>
      <point x="23" y="589" type="line"/>
      <point x="42" y="589" type="line" smooth="yes"/>
      <point x="74" y="589"/>
      <point x="80" y="574"/>
      <point x="80" y="545" type="curve" smooth="yes"/>
      <point x="80" y="0" type="line"/>
      <point x="162" y="0" type="line"/>
      <point x="170" y="68" type="line"/>
      <point x="205" y="10"/>
      <point x="262" y="-15"/>
      <point x="338" y="-15" type="curve" smooth="yes"/>
    </contour>
    <contour>
      <point x="242" y="63"/>
      <point x="186" y="124"/>
      <point x="186" y="211" type="curve" smooth="yes"/>
      <point x="186" y="269" type="line" smooth="yes"/>
      <point x="186" y="367"/>
      <point x="246" y="418"/>
      <point x="318" y="418" type="curve" smooth="yes"/>
      <point x="414" y="418"/>
      <point x="451" y="370"/>
      <point x="451" y="242" type="curve" smooth="yes"/>
      <point x="451" y="114"/>
      <point x="412" y="63"/>
      <point x="324" y="63" type="curve" smooth="yes"/>
    </contour>
  </outline>
</glyph>
<glyph name="f" format="1">
  <advance width="418"/>
  <unicode hex="0066"/>
  <note>
	f
  </note>
  <outline>
    <contour>
      <point x="267" y="0" type="line"/>
      <point x="267" y="74" type="line"/>
      <point x="243" y="74" type="line" smooth="yes"/>
      <point x="216" y="74"/>
      <point x="207" y="85"/>
      <point x="207" y="111" type="curve" smooth="yes"/>
      <point x="207" y="407" type="line"/>
      <point x="351" y="407" type="line"/>
      <point x="351" y="480" type="line"/>
      <point x="207" y="480" type="line"/>
      <point x="207" y="516" type="line" smooth="yes"/>
      <point x="207" y="573"/>
      <point x="233" y="605"/>
      <point x="286" y="605" type="curve" smooth="yes"/>
      <point x="314" y="605"/>
      <point x="336" y="600"/>
      <point x="355" y="585" type="curve"/>
      <point x="355" y="547" type="line"/>
      <point x="443" y="547" type="line"/>
      <point x="443" y="624" type="line"/>
      <point x="404" y="658"/>
      <point x="352" y="677"/>
      <point x="279" y="677" type="curve" smooth="yes"/>
      <point x="161" y="677"/>
      <point x="101" y="610"/>
      <point x="101" y="506" type="curve" smooth="yes"/>
      <point x="101" y="480" type="line"/>
      <point x="23" y="480" type="line"/>
      <point x="23" y="407" type="line"/>
      <point x="101" y="407" type="line"/>
      <point x="101" y="111" type="line" smooth="yes"/>
      <point x="101" y="85"/>
      <point x="90" y="74"/>
      <point x="63" y="74" type="curve" smooth="yes"/>
      <point x="38" y="74" type="line"/>
      <point x="38" y="0" type="line"/>
    </contour>
  </outline>
</glyph>
<glyph name="h" format="1">
  <advance width="604"/>
  <unicode hex="0068"/>
  <note>
	h
  </note>
  <outline>
    <contour>
      <point x="262" y="0" type="line"/>
      <point x="262" y="74" type="line"/>
      <point x="235" y="74" type="line" smooth="yes"/>
      <point x="211" y="74"/>
      <point x="202" y="85"/>
      <point x="202" y="111" type="curve" smooth="yes"/>
      <point x="202" y="313" type="line" smooth="yes"/>
      <point x="202" y="384"/>
      <point x="254" y="424"/>
      <point x="319" y="424" type="curve" smooth="yes"/>
      <point x="379" y="424"/>
      <point x="408" y="395"/>
      <point x="408" y="328" type="curve" smooth="yes"/>
      <point x="408" y="0" type="line"/>
      <point x="581" y="0" type="line"/>
      <point x="581" y="74" type="line"/>
      <point x="553" y="74" type="line" smooth="yes"/>
      <point x="527" y="74"/>
      <point x="517" y="85"/>
      <point x="517" y="111" type="curve" smooth="yes"/>
      <point x="517" y="329" type="line" smooth="yes"/>
      <point x="517" y="434"/>
      <point x="465" y="495"/>
      <point x="360" y="495" type="curve" smooth="yes"/>
      <point x="284" y="495"/>
      <point x="240" y="478"/>
      <point x="192" y="430" type="curve"/>
      <point x="192" y="662" type="line"/>
      <point x="38" y="662" type="line"/>
      <point x="38" y="588" type="line"/>
      <point x="58" y="588" type="line" smooth="yes"/>
      <point x="85" y="588"/>
      <point x="95" y="576"/>
      <point x="95" y="551" type="curve" smooth="yes"/>
      <point x="95" y="111" type="line" smooth="yes"/>
      <point x="95" y="85"/>
      <point x="85" y="74"/>
      <point x="58" y="74" type="curve" smooth="yes"/>
      <point x="33" y="74" type="line"/>
      <point x="33" y="0" type="line"/>
    </contour>
  </outline>
</glyph>
<glyph name="k" format="1">
  <advance width="579"/>
  <unicode hex="006B"/>
  <note>
	k
  </note>
  <outline>
    <contour>
      <point x="260" y="0" type="line"/>
      <point x="260" y="71" type="line"/>
      <point x="229" y="71" type="line" smooth="yes"/>
      <point x="201" y="71"/>
      <point x="194" y="81"/>
      <point x="194" y="105" type="curve" smooth="yes"/>
      <point x="194" y="174" type="line"/>
      <point x="274" y="245" type="line"/>
      <point x="422" y="0" type="line"/>
      <point x="556" y="0" type="line"/>
      <point x="556" y="71" type="line"/>
      <point x="514" y="71" type="line" smooth="yes"/>
      <point x="488" y="71"/>
      <point x="478" y="76"/>
      <point x="465" y="98" type="curve" smooth="yes"/>
      <point x="344" y="303" type="line"/>
      <point x="443" y="390" type="line" smooth="yes"/>
      <point x="459" y="404"/>
      <point x="465" y="410"/>
      <point x="489" y="410" type="curve" smooth="yes"/>
      <point x="535" y="410" type="line"/>
      <point x="535" y="480" type="line"/>
      <point x="307" y="480" type="line"/>
      <point x="307" y="410" type="line"/>
      <point x="356" y="410" type="line"/>
      <point x="194" y="265" type="line"/>
      <point x="194" y="559" type="line" smooth="yes"/>
      <point x="194" y="584"/>
      <point x="202" y="593"/>
      <point x="226" y="593" type="curve" smooth="yes"/>
      <point x="254" y="593" type="line"/>
      <point x="254" y="662" type="line"/>
      <point x="39" y="662" type="line"/>
      <point x="39" y="593" type="line"/>
      <point x="62" y="593" type="line" smooth="yes"/>
      <point x="87" y="593"/>
      <point x="95" y="584"/>
      <point x="95" y="559" type="curve" smooth="yes"/>
      <point x="95" y="105" type="line" smooth="yes"/>
      <point x="95" y="81"/>
      <point x="88" y="71"/>
      <point x="60" y="71" type="curve" smooth="yes"/>
      <point x="33" y="71" type="line"/>
      <point x="33" y="0" type="line"/>
    </contour>
  </outline>
</glyph>
<glyph name="m" format="1">
  <advance width="856"/>
  <unicode hex="006D"/>
  <note>
	m
  </note>
  <outline>
    <contour>
      <point x="260" y="0" type="line"/>
      <point x="260" y="74" type="line"/>
      <point x="233" y="74" type="line" smooth="yes"/>
      <point x="208" y="74"/>
      <point x="199" y="85"/>
      <point x="199" y="111" type="curve" smooth="yes"/>
      <point x="199" y="313" type="line" smooth="yes"/>
      <point x="199" y="386"/>
      <point x="238" y="423"/>
      <point x="303" y="423" type="curve" smooth="yes"/>
      <point x="359" y="423"/>
      <point x="382" y="392"/>
      <point x="382" y="328" type="curve" smooth="yes"/>
      <point x="382" y="0" type="line"/>
      <point x="542" y="0" type="line"/>
      <point x="542" y="74" type="line"/>
      <point x="515" y="74" type="line" smooth="yes"/>
      <point x="489" y="74"/>
      <point x="481" y="85"/>
      <point x="481" y="111" type="curve" smooth="yes"/>
      <point x="481" y="321" type="line" smooth="yes"/>
      <point x="481" y="389"/>
      <point x="520" y="423"/>
      <point x="580" y="423" type="curve" smooth="yes"/>
      <point x="639" y="423"/>
      <point x="663" y="398"/>
      <point x="663" y="331" type="curve" smooth="yes"/>
      <point x="663" y="0" type="line"/>
      <point x="833" y="0" type="line"/>
      <point x="833" y="74" type="line"/>
      <point x="805" y="74" type="line" smooth="yes"/>
      <point x="779" y="74"/>
      <point x="768" y="85"/>
      <point x="768" y="111" type="curve" smooth="yes"/>
      <point x="768" y="331" type="line" smooth="yes"/>
      <point x="768" y="437"/>
      <point x="725" y="495"/>
      <point x="613" y="495" type="curve" smooth="yes"/>
      <point x="539" y="495"/>
      <point x="493" y="470"/>
      <point x="460" y="418" type="curve"/>
      <point x="439" y="466"/>
      <point x="396" y="495"/>
      <point x="336" y="495" type="curve" smooth="yes"/>
      <point x="258" y="495"/>
      <point x="206" y="467"/>
      <point x="170" y="412" type="curve"/>
      <point x="163" y="480" type="line"/>
      <point x="38" y="480" type="line"/>
      <point x="38" y="405" type="line"/>
      <point x="58" y="405" type="line" smooth="yes"/>
      <point x="85" y="405"/>
      <point x="95" y="394"/>
      <point x="95" y="369" type="curve" smooth="yes"/>
      <point x="95" y="111" type="line" smooth="yes"/>
      <point x="95" y="85"/>
      <point x="85" y="74"/>
      <point x="58" y="74" type="curve" smooth="yes"/>
      <point x="33" y="74" type="line"/>
      <point x="33" y="0" type="line"/>
    </contour>
  </outline>
</glyph>
<glyph name="p" format="1">
  <advance width="588"/>
  <unicode hex="0070"/>
  <note>
	p
  </note>
  <outline>
    <contour>
      <point x="240" y="-208" type="line"/>
      <point x="240" y="-136" type="line"/>
      <point x="223" y="-136" type="line" smooth="yes"/>
      <point x="191" y="-136"/>
      <point x="183" y="-121"/>
      <point x="183" y="-91" type="curve" smooth="yes"/>
      <point x="183" y="56" type="line"/>
      <point x="227" y="4"/>
      <point x="272" y="-15"/>
      <point x="343" y="-15" type="curve" smooth="yes"/>
      <point x="479" y="-15"/>
      <point x="555" y="81"/>
      <point x="555" y="245" type="curve" smooth="yes"/>
      <point x="555" y="407"/>
      <point x="474" y="495"/>
      <point x="342" y="495" type="curve" smooth="yes"/>
      <point x="266" y="495"/>
      <point x="211" y="466"/>
      <point x="171" y="408" type="curve"/>
      <point x="161" y="480" type="line"/>
      <point x="23" y="480" type="line"/>
      <point x="23" y="409" type="line"/>
      <point x="44" y="409" type="line" smooth="yes"/>
      <point x="69" y="409"/>
      <point x="80" y="397"/>
      <point x="80" y="370" type="curve" smooth="yes"/>
      <point x="80" y="-91" type="line" smooth="yes"/>
      <point x="80" y="-121"/>
      <point x="72" y="-136"/>
      <point x="40" y="-136" type="curve" smooth="yes"/>
      <point x="23" y="-136" type="line"/>
      <point x="23" y="-208" type="line"/>
    </contour>
    <contour>
      <point x="241" y="63"/>
      <point x="186" y="112"/>
      <point x="186" y="210" type="curve" smooth="yes"/>
      <point x="186" y="266" type="line" smooth="yes"/>
      <point x="186" y="358"/>
      <point x="237" y="418"/>
      <point x="321" y="418" type="curve" smooth="yes"/>
      <point x="414" y="418"/>
      <point x="451" y="367"/>
      <point x="451" y="244" type="curve" smooth="yes"/>
      <point x="451" y="116"/>
      <point x="412" y="63"/>
      <point x="317" y="63" type="curve" smooth="yes"/>
    </contour>
  </outline>
</glyph>
<glyph name="q" format="1">
  <advance width="588"/>
  <unicode hex="0071"/>
  <note>
	q
  </note>
  <outline>
    <contour>
      <point x="565" y="-208" type="line"/>
      <point x="565" y="-136" type="line"/>
      <point x="548" y="-136" type="line" smooth="yes"/>
      <point x="516" y="-136"/>
      <point x="508" y="-121"/>
      <point x="508" y="-91" type="curve" smooth="yes"/>
      <point x="508" y="370" type="line" smooth="yes"/>
      <point x="508" y="397"/>
      <point x="519" y="409"/>
      <point x="544" y="409" type="curve" smooth="yes"/>
      <point x="565" y="409" type="line"/>
      <point x="565" y="480" type="line"/>
      <point x="427" y="480" type="line"/>
      <point x="417" y="408" type="line"/>
      <point x="377" y="466"/>
      <point x="329" y="495"/>
      <point x="250" y="495" type="curve" smooth="yes"/>
      <point x="118" y="495"/>
      <point x="33" y="395"/>
      <point x="33" y="233" type="curve" smooth="yes"/>
      <point x="33" y="69"/>
      <point x="109" y="-15"/>
      <point x="245" y="-15" type="curve" smooth="yes"/>
      <point x="316" y="-15"/>
      <point x="361" y="4"/>
      <point x="405" y="56" type="curve"/>
      <point x="405" y="-208" type="line"/>
    </contour>
    <contour>
      <point x="176" y="63"/>
      <point x="137" y="104"/>
      <point x="137" y="232" type="curve" smooth="yes"/>
      <point x="137" y="355"/>
      <point x="174" y="418"/>
      <point x="267" y="418" type="curve" smooth="yes"/>
      <point x="351" y="418"/>
      <point x="402" y="358"/>
      <point x="402" y="266" type="curve" smooth="yes"/>
      <point x="402" y="210" type="line" smooth="yes"/>
      <point x="402" y="112"/>
      <point x="347" y="63"/>
      <point x="271" y="63" type="curve" smooth="yes"/>
    </contour>
  </outline>
</glyph>
<glyph name="v" format="1">
  <advance width="572"/>
  <unicode hex="0076"/>
  <note>
	v
  </note>
  <outline>
    <contour>
      <point x="341" y="0" type="line"/>
      <point x="478" y="384" type="line" smooth="yes"/>
      <point x="486" y="405"/>
      <point x="494" y="411"/>
      <point x="527" y="411" type="curve" smooth="yes"/>
      <point x="549" y="411" type="line"/>
      <point x="549" y="480" type="line"/>
      <point x="410" y="480" type="line"/>
      <point x="286" y="105" type="line"/>
      <point x="162" y="480" type="line"/>
      <point x="23" y="480" type="line"/>
      <point x="23" y="411" type="line"/>
      <point x="44" y="411" type="line" smooth="yes"/>
      <point x="78" y="411"/>
      <point x="86" y="405"/>
      <point x="93" y="384" type="curve" smooth="yes"/>
      <point x="231" y="0" type="line"/>
    </contour>
  </outline>
</glyph>
<glyph name="w" format="1">
  <advance width="767"/>
  <unicode hex="0077"/>
  <note>
	w
  </note>
  <outline>
    <contour>
      <point x="288" y="0" type="line"/>
      <point x="384" y="305" type="line"/>
      <point x="479" y="0" type="line"/>
      <point x="583" y="0" type="line"/>
      <point x="675" y="383" type="line" smooth="yes"/>
      <point x="680" y="405"/>
      <point x="692" y="411"/>
      <point x="719" y="411" type="curve" smooth="yes"/>
      <point x="744" y="411" type="line"/>
      <point x="744" y="480" type="line"/>
      <point x="606" y="480" type="line"/>
      <point x="520" y="120" type="line"/>
      <point x="422" y="437" type="line"/>
      <point x="344" y="437" type="line"/>
      <point x="246" y="120" type="line"/>
      <point x="162" y="480" type="line"/>
      <point x="23" y="480" type="line"/>
      <point x="23" y="411" type="line"/>
      <point x="48" y="411" type="line" smooth="yes"/>
      <point x="75" y="411"/>
      <point x="87" y="405"/>
      <point x="92" y="383" type="curve" smooth="yes"/>
      <point x="184" y="0" type="line"/>
    </contour>
  </outline>
</glyph>
<glyph name="x" format="1">
  <advance width="568"/>
  <unicode hex="0078"/>
  <note>
	x
  </note>
  <outline>
    <contour>
      <point x="233" y="0" type="line"/>
      <point x="233" y="61" type="line"/>
      <point x="191" y="61" type="line"/>
      <point x="284" y="186" type="line"/>
      <point x="377" y="61" type="line"/>
      <point x="335" y="61" type="line"/>
      <point x="335" y="0" type="line"/>
      <point x="545" y="0" type="line"/>
      <point x="545" y="62" type="line"/>
      <point x="516" y="62" type="line" smooth="yes"/>
      <point x="485" y="62"/>
      <point x="472" y="70"/>
      <point x="454" y="93" type="curve" smooth="yes"/>
      <point x="340" y="242" type="line"/>
      <point x="451" y="387" type="line" smooth="yes"/>
      <point x="468" y="410"/>
      <point x="480" y="418"/>
      <point x="512" y="418" type="curve" smooth="yes"/>
      <point x="538" y="418" type="line"/>
      <point x="538" y="480" type="line"/>
      <point x="331" y="480" type="line"/>
      <point x="331" y="418" type="line"/>
      <point x="373" y="418" type="line"/>
      <point x="284" y="297" type="line"/>
      <point x="195" y="418" type="line"/>
      <point x="237" y="418" type="line"/>
      <point x="237" y="480" type="line"/>
      <point x="30" y="480" type="line"/>
      <point x="30" y="418" type="line"/>
      <point x="56" y="418" type="line" smooth="yes"/>
      <point x="88" y="418"/>
      <point x="100" y="410"/>
      <point x="117" y="387" type="curve" smooth="yes"/>
      <point x="227" y="242" type="line"/>
      <point x="114" y="93" type="line" smooth="yes"/>
      <point x="96" y="70"/>
      <point x="83" y="62"/>
      <point x="52" y="62" type="curve" smooth="yes"/>
      <point x="23" y="62" type="line"/>
      <point x="23" y="0" type="line"/>
    </contour>
  </outline>
</glyph>
<glyph name="y" format="1">
  <advance width="566"/>
  <unicode hex="0079"/>
  <note>
	y
  </note>
  <outline>
    <contour>
      <point x="436" y="-200"/>
      <point x="513" y="-117"/>
      <point x="513" y="9" type="curve" smooth="yes"/>
      <point x="513" y="480" type="line"/>
      <point x="346" y="480" type="line"/>
      <point x="346" y="406" type="line"/>
      <point x="372" y="406" type="line" smooth="yes"/>
      <point x="399" y="406"/>
      <point x="406" y="394"/>
      <point x="406" y="369" type="curve" smooth="yes"/>
      <point x="406" y="189" type="line" smooth="yes"/>
      <point x="406" y="113"/>
      <point x="359" y="74"/>
      <point x="292" y="74" type="curve" smooth="yes"/>
      <point x="228" y="74"/>
      <point x="195" y="107"/>
      <point x="195" y="172" type="curve" smooth="yes"/>
      <point x="195" y="480" type="line"/>
      <point x="23" y="480" type="line"/>
      <point x="23" y="406" type="line"/>
      <point x="52" y="406" type="line" smooth="yes"/>
      <point x="78" y="406"/>
      <point x="89" y="394"/>
      <point x="89" y="369" type="curve" smooth="yes"/>
      <point x="89" y="175" type="line" smooth="yes"/>
      <point x="89" y="67"/>
      <point x="156" y="5"/>
      <point x="271" y="5" type="curve" smooth="yes"/>
      <point x="331" y="5"/>
      <point x="374" y="21"/>
      <point x="412" y="58" type="curve"/>
      <point x="412" y="-13" type="line" smooth="yes"/>
      <point x="412" y="-90"/>
      <point x="377" y="-131"/>
      <point x="307" y="-131" type="curve" smooth="yes"/>
      <point x="265" y="-131"/>
      <point x="233" y="-120"/>
      <point x="210" y="-95" type="curve"/>
      <point x="210" y="-59" type="line"/>
      <point x="117" y="-59" type="line"/>
      <point x="117" y="-131" type="line"/>
      <point x="162" y="-174"/>
      <point x="223" y="-200"/>
      <point x="311" y="-200" type="curve" smooth="yes"/>
    </contour>
  </outline>
</glyph>
<glyph name="braceleft" format="1">
  <advance width="342"/>
  <unicode hex="007B"/>
  <note>
	braceleft
  </note>
  <outline>
    <contour>
      <point x="299" y="-85" type="line"/>
      <point x="299" y="-11" type="line"/>
      <point x="273" y="-11" type="line" smooth="yes"/>
      <point x="224" y="-11"/>
      <point x="207" y="13"/>
      <point x="207" y="62" type="curve" smooth="yes"/>
      <point x="207" y="233" type="line" smooth="yes"/>
      <point x="207" y="278"/>
      <point x="184" y="315"/>
      <point x="146" y="334" type="curve"/>
      <point x="184" y="353"/>
      <point x="207" y="392"/>
      <point x="207" y="436" type="curve" smooth="yes"/>
      <point x="207" y="603" type="line" smooth="yes"/>
      <point x="207" y="652"/>
      <point x="224" y="676"/>
      <point x="273" y="676" type="curve" smooth="yes"/>
      <point x="299" y="676" type="line"/>
      <point x="299" y="750" type="line"/>
      <point x="257" y="750" type="line" smooth="yes"/>
      <point x="133" y="750"/>
      <point x="102" y="686"/>
      <point x="102" y="569" type="curve" smooth="yes"/>
      <point x="102" y="441" type="line" smooth="yes"/>
      <point x="102" y="385"/>
      <point x="71" y="372"/>
      <point x="23" y="372" type="curve"/>
      <point x="23" y="298" type="line"/>
      <point x="70" y="298"/>
      <point x="102" y="285"/>
      <point x="102" y="228" type="curve" smooth="yes"/>
      <point x="102" y="96" type="line" smooth="yes"/>
      <point x="102" y="-21"/>
      <point x="133" y="-85"/>
      <point x="257" y="-85" type="curve" smooth="yes"/>
    </contour>
  </outline>
</glyph>
<glyph name="bar" format="1">
  <advance width="192"/>
  <unicode hex="007C"/>
  <note>
	bar
  </note>
  <outline>
    <contour>
      <point x="149" y="-120" type="line"/>
      <point x="149" y="767" type="line"/>
      <point x="43" y="767" type="line"/>
      <point x="43" y="-120" type="line"/>
    </contour>
  </outline>
</glyph>
<glyph name="braceright" format="1">
  <advance width="342"/>
  <unicode hex="007D"/>
  <note>
	braceright
  </note>
  <outline>
    <contour>
      <point x="85" y="-85" type="line" smooth="yes"/>
      <point x="209" y="-85"/>
      <point x="240" y="-21"/>
      <point x="240" y="96" type="curve" smooth="yes"/>
      <point x="240" y="228" type="line" smooth="yes"/>
      <point x="240" y="285"/>
      <point x="272" y="298"/>
      <point x="319" y="298" type="curve"/>
      <point x="319" y="372" type="line"/>
      <point x="271" y="372"/>
      <point x="240" y="385"/>
      <point x="240" y="441" type="curve" smooth="yes"/>
      <point x="240" y="569" type="line" smooth="yes"/>
      <point x="240" y="686"/>
      <point x="209" y="750"/>
      <point x="85" y="750" type="curve" smooth="yes"/>
      <point x="43" y="750" type="line"/>
      <point x="43" y="676" type="line"/>
      <point x="69" y="676" type="line" smooth="yes"/>
      <point x="118" y="676"/>
      <point x="135" y="652"/>
      <point x="135" y="603" type="curve" smooth="yes"/>
      <point x="135" y="436" type="line" smooth="yes"/>
      <point x="135" y="392"/>
      <point x="158" y="353"/>
      <point x="196" y="334" type="curve"/>
      <point x="158" y="315"/>
      <point x="135" y="278"/>
      <point x="135" y="233" type="curve" smooth="yes"/>
      <point x="135" y="62" type="line" smooth="yes"/>
      <point x="135" y="13"/>
      <point x="118" y="-11"/>
      <point x="69" y="-11" type="curve" smooth="yes"/>
      <point x="43" y="-11" type="line"/>
      <point x="43" y="-85" type="line"/>
    </contour>
  </outline>
</glyph>
<glyph name="asciitilde" format="1">
  <advance width="563"/>
  <unicode hex="007E"/>
  <note>
	asciitilde
  </note>
  <outline>
    <contour>
      <point x="127" y="235" type="line"/>
      <point x="127" y="276"/>
      <point x="141" y="301"/>
      <point x="189" y="301" type="curve" smooth="yes"/>
      <point x="254" y="301"/>
      <point x="298" y="235"/>
      <point x="392" y="235" type="curve" smooth="yes"/>
      <point x="481" y="235"/>
      <point x="520" y="289"/>
      <point x="520" y="384" type="curve"/>
      <point x="436" y="384" type="line"/>
      <point x="436" y="343"/>
      <point x="424" y="318"/>
      <point x="375" y="318" type="curve" smooth="yes"/>
      <point x="301" y="318"/>
      <point x="263" y="384"/>
      <point x="173" y="384" type="curve" smooth="yes"/>
      <point x="84" y="384"/>
      <point x="43" y="329"/>
      <point x="43" y="235" type="curve"/>
    </contour>
  </outline>
</glyph>
<glyph name="exclamdown" format="1">
  <advance width="203"/>
  <unicode hex="00A1"/>
  <note>
	exclamdown
  </note>
  <outline>
    <contour>
      <point x="159" y="-152" type="line"/>
      <point x="152" y="315" type="line"/>
      <point x="51" y="315" type="line"/>
      <point x="45" y="-152" type="line"/>
    </contour>
    <contour>
      <point x="160" y="404" type="line"/>
      <point x="160" y="495" type="line"/>
      <point x="43" y="495" type="line"/>
      <point x="43" y="404" type="line"/>
    </contour>
  </outline>
</glyph>
<glyph name="cent" format="1">
  <advance width="520"/>
  <unicode hex="00A2"/>
  <note>
	cent
  </note>
  <outline>
    <contour>
      <point x="333" y="-90" type="line"/>
      <point x="333" y="-13" type="line"/>
      <point x="393" y="-9"/>
      <point x="436" y="6"/>
      <point x="483" y="37" type="curve"/>
      <point x="446" y="98" type="line"/>
      <point x="407" y="73"/>
      <point x="367" y="63"/>
      <point x="306" y="63" type="curve" smooth="yes"/>
      <point x="215" y="63"/>
      <point x="137" y="111"/>
      <point x="137" y="236" type="curve" smooth="yes"/>
      <point x="137" y="367"/>
      <point x="208" y="418"/>
      <point x="290" y="418" type="curve" smooth="yes"/>
      <point x="337" y="418"/>
      <point x="365" y="411"/>
      <point x="394" y="395" type="curve"/>
      <point x="394" y="340" type="line"/>
      <point x="487" y="340" type="line"/>
      <point x="487" y="436" type="line"/>
      <point x="444" y="468"/>
      <point x="398" y="487"/>
      <point x="333" y="492" type="curve"/>
      <point x="333" y="570" type="line"/>
      <point x="235" y="570" type="line"/>
      <point x="235" y="490" type="line"/>
      <point x="111" y="472"/>
      <point x="33" y="385"/>
      <point x="33" y="236" type="curve" smooth="yes"/>
      <point x="33" y="93"/>
      <point x="119" y="9"/>
      <point x="235" y="-9" type="curve"/>
      <point x="235" y="-90" type="line"/>
    </contour>
  </outline>
</glyph>
<glyph name="sterling" format="1">
  <advance width="503"/>
  <unicode hex="00A3"/>
  <note>
	sterling
  </note>
  <outline>
    <contour>
      <point x="480" y="0" type="line"/>
      <point x="480" y="74" type="line"/>
      <point x="202" y="74" type="line"/>
      <point x="224" y="94"/>
      <point x="228" y="121"/>
      <point x="228" y="153" type="curve" smooth="yes"/>
      <point x="228" y="349" type="line"/>
      <point x="391" y="349" type="line"/>
      <point x="391" y="422" type="line"/>
      <point x="228" y="422" type="line"/>
      <point x="228" y="503" type="line" smooth="yes"/>
      <point x="228" y="560"/>
      <point x="263" y="590"/>
      <point x="318" y="590" type="curve" smooth="yes"/>
      <point x="348" y="590"/>
      <point x="368" y="583"/>
      <point x="385" y="568" type="curve"/>
      <point x="385" y="530" type="line"/>
      <point x="474" y="530" type="line"/>
      <point x="474" y="608" type="line"/>
      <point x="435" y="641"/>
      <point x="383" y="662"/>
      <point x="310" y="662" type="curve" smooth="yes"/>
      <point x="191" y="662"/>
      <point x="122" y="599"/>
      <point x="122" y="496" type="curve" smooth="yes"/>
      <point x="122" y="422" type="line"/>
      <point x="43" y="422" type="line"/>
      <point x="43" y="349" type="line"/>
      <point x="122" y="349" type="line"/>
      <point x="122" y="148" type="line" smooth="yes"/>
      <point x="122" y="99"/>
      <point x="105" y="74"/>
      <point x="70" y="74" type="curve" smooth="yes"/>
      <point x="45" y="74" type="line"/>
      <point x="45" y="0" type="line"/>
    </contour>
  </outline>
</glyph>
<glyph name="currency" format="1">
  <advance width="621"/>
  <unicode hex="00A4"/>
  <note>
	currency
  </note>
  <outline>
    <contour>
      <point x="202" y="139" type="line"/>
      <point x="233" y="120"/>
      <point x="271" y="109"/>
      <point x="311" y="109" type="curve" smooth="yes"/>
      <point x="350" y="109"/>
      <point x="388" y="119"/>
      <point x="419" y="138" type="curve"/>
      <point x="508" y="57" type="line"/>
      <point x="569" y="120" type="line"/>
      <point x="485" y="196" type="line"/>
      <point x="515" y="233"/>
      <point x="532" y="279"/>
      <point x="532" y="330" type="curve" smooth="yes"/>
      <point x="532" y="375"/>
      <point x="518" y="418"/>
      <point x="494" y="452" type="curve"/>
      <point x="578" y="529" type="line"/>
      <point x="517" y="592" type="line"/>
      <point x="433" y="514" type="line"/>
      <point x="398" y="537"/>
      <point x="356" y="552"/>
      <point x="311" y="552" type="curve" smooth="yes"/>
      <point x="265" y="552"/>
      <point x="223" y="537"/>
      <point x="188" y="513" type="curve"/>
      <point x="104" y="592" type="line"/>
      <point x="43" y="529" type="line"/>
      <point x="127" y="452" type="line"/>
      <point x="103" y="417"/>
      <point x="90" y="375"/>
      <point x="90" y="330" type="curve" smooth="yes"/>
      <point x="90" y="279"/>
      <point x="107" y="233"/>
      <point x="136" y="196" type="curve"/>
      <point x="53" y="120" type="line"/>
      <point x="113" y="57" type="line"/>
    </contour>
    <contour>
      <point x="235" y="194"/>
      <point x="178" y="255"/>
      <point x="178" y="330" type="curve" smooth="yes"/>
      <point x="178" y="406"/>
      <point x="235" y="466"/>
      <point x="311" y="466" type="curve" smooth="yes"/>
      <point x="387" y="466"/>
      <point x="444" y="406"/>
      <point x="444" y="330" type="curve" smooth="yes"/>
      <point x="444" y="255"/>
      <point x="387" y="194"/>
      <point x="311" y="194" type="curve" smooth="yes"/>
    </contour>
  </outline>
</glyph>
<glyph name="brokenbar" format="1">
  <advance width="191"/>
  <unicode hex="00A6"/>
  <note>
	brokenbar
  </note>
  <outline>
    <contour>
      <point x="148" y="418" type="line"/>
      <point x="148" y="767" type="line"/>
      <point x="43" y="767" type="line"/>
      <point x="43" y="418" type="line"/>
    </contour>
    <contour>
      <point x="148" y="-120" type="line"/>
      <point x="148" y="228" type="line"/>
      <point x="43" y="228" type="line"/>
      <point x="43" y="-120" type="line"/>
    </contour>
  </outline>
</glyph>
<glyph name="section" format="1">
  <advance width="514"/>
  <unicode hex="00A7"/>
  <note>
	section
  </note>
  <outline>
    <contour>
      <point x="412" y="-156"/>
      <point x="491" y="-80"/>
      <point x="491" y="20" type="curve" smooth="yes"/>
      <point x="491" y="61"/>
      <point x="481" y="92"/>
      <point x="461" y="117" type="curve"/>
      <point x="482" y="144"/>
      <point x="491" y="176"/>
      <point x="491" y="211" type="curve" smooth="yes"/>
      <point x="491" y="328"/>
      <point x="410" y="364"/>
      <point x="285" y="414" type="curve" smooth="yes"/>
      <point x="206" y="446"/>
      <point x="132" y="470"/>
      <point x="132" y="543" type="curve" smooth="yes"/>
      <point x="132" y="612"/>
      <point x="184" y="638"/>
      <point x="256" y="638" type="curve" smooth="yes"/>
      <point x="301" y="638"/>
      <point x="344" y="629"/>
      <point x="373" y="612" type="curve"/>
      <point x="373" y="551" type="line"/>
      <point x="479" y="551" type="line"/>
      <point x="479" y="643" type="line"/>
      <point x="430" y="681"/>
      <point x="355" y="712"/>
      <point x="261" y="712" type="curve" smooth="yes"/>
      <point x="132" y="712"/>
      <point x="29" y="658"/>
      <point x="29" y="540" type="curve" smooth="yes"/>
      <point x="29" y="501"/>
      <point x="39" y="470"/>
      <point x="61" y="444" type="curve"/>
      <point x="40" y="419"/>
      <point x="29" y="387"/>
      <point x="29" y="349" type="curve" smooth="yes"/>
      <point x="29" y="244"/>
      <point x="109" y="201"/>
      <point x="242" y="146" type="curve" smooth="yes"/>
      <point x="329" y="110"/>
      <point x="389" y="96"/>
      <point x="389" y="17" type="curve" smooth="yes"/>
      <point x="389" y="-49"/>
      <point x="341" y="-82"/>
      <point x="266" y="-82" type="curve" smooth="yes"/>
      <point x="215" y="-82"/>
      <point x="162" y="-69"/>
      <point x="129" y="-49" type="curve"/>
      <point x="129" y="15" type="line"/>
      <point x="23" y="15" type="line"/>
      <point x="23" y="-82" type="line"/>
      <point x="81" y="-126"/>
      <point x="169" y="-156"/>
      <point x="264" y="-156" type="curve" smooth="yes"/>
    </contour>
    <contour>
      <point x="267" y="237"/>
      <point x="126" y="259"/>
      <point x="126" y="347" type="curve" smooth="yes"/>
      <point x="126" y="364"/>
      <point x="131" y="376"/>
      <point x="142" y="385" type="curve"/>
      <point x="240" y="324"/>
      <point x="396" y="306"/>
      <point x="396" y="217" type="curve" smooth="yes"/>
      <point x="396" y="196"/>
      <point x="393" y="187"/>
      <point x="386" y="172" type="curve"/>
    </contour>
  </outline>
</glyph>
<glyph name="dieresis" format="1">
  <advance width="398"/>
  <unicode hex="00A8"/>
  <note>
	dieresis
  </note>
  <outline>
    <contour>
      <point x="355" y="560" type="line"/>
      <point x="355" y="656" type="line"/>
      <point x="264" y="656" type="line"/>
      <point x="264" y="560" type="line"/>
    </contour>
    <contour>
      <point x="133" y="560" type="line"/>
      <point x="133" y="656" type="line"/>
      <point x="43" y="656" type="line"/>
      <point x="43" y="560" type="line"/>
    </contour>
  </outline>
</glyph>
<glyph name="copyright" format="1">
  <advance width="803"/>
  <unicode hex="00A9"/>
  <note>
	copyright
  </note>
  <outline>
    <contour>
      <point x="600" y="-14"/>
      <point x="760" y="145"/>
      <point x="760" y="343" type="curve" smooth="yes"/>
      <point x="760" y="542"/>
      <point x="600" y="701"/>
      <point x="402" y="701" type="curve" smooth="yes"/>
      <point x="202" y="701"/>
      <point x="43" y="542"/>
      <point x="43" y="343" type="curve" smooth="yes"/>
      <point x="43" y="145"/>
      <point x="202" y="-14"/>
      <point x="401" y="-14" type="curve" smooth="yes"/>
    </contour>
    <contour>
      <point x="478" y="96"/>
      <point x="531" y="117"/>
      <point x="575" y="152" type="curve"/>
      <point x="542" y="205" type="line"/>
      <point x="507" y="179"/>
      <point x="468" y="164"/>
      <point x="411" y="164" type="curve" smooth="yes"/>
      <point x="327" y="164"/>
      <point x="256" y="217"/>
      <point x="256" y="337" type="curve" smooth="yes"/>
      <point x="256" y="464"/>
      <point x="322" y="516"/>
      <point x="399" y="516" type="curve" smooth="yes"/>
      <point x="444" y="516"/>
      <point x="470" y="509"/>
      <point x="497" y="493" type="curve"/>
      <point x="497" y="443" type="line"/>
      <point x="578" y="443" type="line"/>
      <point x="578" y="529" type="line"/>
      <point x="530" y="566"/>
      <point x="484" y="584"/>
      <point x="399" y="584" type="curve" smooth="yes"/>
      <point x="258" y="584"/>
      <point x="166" y="494"/>
      <point x="166" y="337" type="curve" smooth="yes"/>
      <point x="166" y="186"/>
      <point x="271" y="96"/>
      <point x="400" y="96" type="curve" smooth="yes"/>
    </contour>
    <contour>
      <point x="233" y="53"/>
      <point x="118" y="179"/>
      <point x="118" y="343" type="curve" smooth="yes"/>
      <point x="118" y="507"/>
      <point x="233" y="634"/>
      <point x="401" y="634" type="curve" smooth="yes"/>
      <point x="569" y="634"/>
      <point x="685" y="507"/>
      <point x="685" y="343" type="curve" smooth="yes"/>
      <point x="685" y="179"/>
      <point x="569" y="53"/>
      <point x="401" y="53" type="curve" smooth="yes"/>
    </contour>
  </outline>
</glyph>
<glyph name="ordfeminine" format="1">
  <advance width="395"/>
  <unicode hex="00AA"/>
  <note>
	ordfeminine
  </note>
  <outline>
    <contour>
      <point x="203" y="335"/>
      <point x="236" y="350"/>
      <point x="264" y="383" type="curve"/>
      <point x="275" y="345" type="line"/>
      <point x="352" y="345" type="line"/>
      <point x="352" y="395" type="line"/>
      <point x="338" y="395" type="line" smooth="yes"/>
      <point x="323" y="395"/>
      <point x="318" y="402"/>
      <point x="318" y="420" type="curve" smooth="yes"/>
      <point x="318" y="553" type="line" smooth="yes"/>
      <point x="318" y="617"/>
      <point x="280" y="662"/>
      <point x="191" y="662" type="curve" smooth="yes"/>
      <point x="144" y="662"/>
      <point x="104" y="650"/>
      <point x="69" y="628" type="curve"/>
      <point x="69" y="568" type="line"/>
      <point x="133" y="568" type="line"/>
      <point x="133" y="592" type="line"/>
      <point x="151" y="602"/>
      <point x="163" y="606"/>
      <point x="189" y="606" type="curve" smooth="yes"/>
      <point x="228" y="606"/>
      <point x="241" y="596"/>
      <point x="241" y="559" type="curve" smooth="yes"/>
      <point x="241" y="524" type="line"/>
      <point x="157" y="518" type="line" smooth="yes"/>
      <point x="88" y="513"/>
      <point x="43" y="485"/>
      <point x="43" y="422" type="curve" smooth="yes"/>
      <point x="43" y="367"/>
      <point x="78" y="335"/>
      <point x="145" y="335" type="curve" smooth="yes"/>
    </contour>
    <contour>
      <point x="135" y="390"/>
      <point x="119" y="403"/>
      <point x="119" y="427" type="curve" smooth="yes"/>
      <point x="119" y="455"/>
      <point x="132" y="468"/>
      <point x="167" y="471" type="curve" smooth="yes"/>
      <point x="241" y="477" type="line"/>
      <point x="241" y="452" type="line" smooth="yes"/>
      <point x="241" y="408"/>
      <point x="212" y="390"/>
      <point x="168" y="390" type="curve" smooth="yes"/>
    </contour>
  </outline>
</glyph>
<glyph name="guillemetleft" format="1">
  <advance width="599"/>
  <unicode hex="00AB"/>
  <note>
	guillemotleft
  </note>
  <outline>
    <contour>
      <point x="556" y="163" type="line"/>
      <point x="370" y="324" type="line"/>
      <point x="556" y="486" type="line"/>
      <point x="556" y="593" type="line"/>
      <point x="270" y="351" type="line"/>
      <point x="270" y="298" type="line"/>
      <point x="556" y="56" type="line"/>
    </contour>
    <contour>
      <point x="329" y="163" type="line"/>
      <point x="144" y="324" type="line"/>
      <point x="329" y="486" type="line"/>
      <point x="329" y="593" type="line"/>
      <point x="43" y="351" type="line"/>
      <point x="43" y="298" type="line"/>
      <point x="329" y="56" type="line"/>
    </contour>
  </outline>
</glyph>
<glyph name="logicalnot" format="1">
  <advance width="505"/>
  <unicode hex="00AC"/>
  <note>
	logicalnot
  </note>
  <outline>
    <contour>
      <point x="462" y="136" type="line"/>
      <point x="462" y="343" type="line"/>
      <point x="43" y="343" type="line"/>
      <point x="43" y="269" type="line"/>
      <point x="373" y="269" type="line"/>
      <point x="373" y="136" type="line"/>
    </contour>
  </outline>
</glyph>
<glyph name="softhyphen" format="1">
  <advance width="375"/>
  <unicode hex="00AD"/>
  <note>
	softhyphen
  </note>
  <outline>
    <contour>
      <point x="332" y="266" type="line"/>
      <point x="332" y="339" type="line"/>
      <point x="43" y="339" type="line"/>
      <point x="43" y="266" type="line"/>
    </contour>
  </outline>
</glyph>
<glyph name="registered" format="1">
  <advance width="803"/>
  <unicode hex="00AE"/>
  <note>
	registered
  </note>
  <outline>
    <contour>
      <point x="600" y="-14"/>
      <point x="760" y="145"/>
      <point x="760" y="343" type="curve" smooth="yes"/>
      <point x="760" y="542"/>
      <point x="600" y="701"/>
      <point x="402" y="701" type="curve" smooth="yes"/>
      <point x="202" y="701"/>
      <point x="43" y="542"/>
      <point x="43" y="343" type="curve" smooth="yes"/>
      <point x="43" y="145"/>
      <point x="202" y="-14"/>
      <point x="401" y="-14" type="curve" smooth="yes"/>
    </contour>
    <contour>
      <point x="233" y="53"/>
      <point x="118" y="179"/>
      <point x="118" y="343" type="curve" smooth="yes"/>
      <point x="118" y="507"/>
      <point x="233" y="634"/>
      <point x="401" y="634" type="curve" smooth="yes"/>
      <point x="569" y="634"/>
      <point x="685" y="507"/>
      <point x="685" y="343" type="curve" smooth="yes"/>
      <point x="685" y="179"/>
      <point x="569" y="53"/>
      <point x="401" y="53" type="curve" smooth="yes"/>
    </contour>
    <contour>
      <point x="372" y="137" type="line"/>
      <point x="372" y="192" type="line"/>
      <point x="357" y="192" type="line" smooth="yes"/>
      <point x="336" y="192"/>
      <point x="332" y="200"/>
      <point x="332" y="220" type="curve" smooth="yes"/>
      <point x="332" y="310" type="line"/>
      <point x="397" y="310" type="line"/>
      <point x="455" y="192" type="line"/>
      <point x="402" y="192" type="line"/>
      <point x="402" y="137" type="line"/>
      <point x="592" y="137" type="line"/>
      <point x="592" y="192" type="line"/>
      <point x="568" y="192" type="line" smooth="yes"/>
      <point x="544" y="192"/>
      <point x="530" y="207"/>
      <point x="519" y="228" type="curve" smooth="yes"/>
      <point x="473" y="316" type="line"/>
      <point x="541" y="325"/>
      <point x="577" y="373"/>
      <point x="577" y="436" type="curve" smooth="yes"/>
      <point x="577" y="510"/>
      <point x="523" y="556"/>
      <point x="431" y="556" type="curve" smooth="yes"/>
      <point x="219" y="556" type="line"/>
      <point x="219" y="497" type="line"/>
      <point x="233" y="497" type="line" smooth="yes"/>
      <point x="253" y="497"/>
      <point x="259" y="490"/>
      <point x="259" y="470" type="curve" smooth="yes"/>
      <point x="259" y="273" type="line" smooth="yes"/>
      <point x="259" y="255"/>
      <point x="259" y="238"/>
      <point x="259" y="220" type="curve" smooth="yes"/>
      <point x="259" y="200"/>
      <point x="253" y="192"/>
      <point x="233" y="192" type="curve" smooth="yes"/>
      <point x="219" y="192" type="line"/>
      <point x="219" y="137" type="line"/>
    </contour>
    <contour>
      <point x="340" y="497" type="line"/>
      <point x="424" y="497" type="line" smooth="yes"/>
      <point x="474" y="497"/>
      <point x="498" y="481"/>
      <point x="498" y="435" type="curve" smooth="yes"/>
      <point x="498" y="390"/>
      <point x="473" y="366"/>
      <point x="424" y="366" type="curve" smooth="yes"/>
      <point x="340" y="366" type="line"/>
    </contour>
  </outline>
</glyph>
<glyph name="macron" format="1">
  <advance width="428"/>
  <unicode hex="00AF"/>
  <note>
	macron
  </note>
  <outline>
    <contour>
      <point x="385" y="566" type="line"/>
      <point x="385" y="635" type="line"/>
      <point x="43" y="635" type="line"/>
      <point x="43" y="566" type="line"/>
    </contour>
  </outline>
</glyph>
<glyph name="degree" format="1">
  <advance width="346"/>
  <unicode hex="00B0"/>
  <note>
	degree
  </note>
  <outline>
    <contour>
      <point x="244" y="409"/>
      <point x="303" y="467"/>
      <point x="303" y="538" type="curve" smooth="yes"/>
      <point x="303" y="611"/>
      <point x="244" y="669"/>
      <point x="172" y="669" type="curve" smooth="yes"/>
      <point x="101" y="669"/>
      <point x="43" y="611"/>
      <point x="43" y="538" type="curve" smooth="yes"/>
      <point x="43" y="467"/>
      <point x="101" y="409"/>
      <point x="172" y="409" type="curve" smooth="yes"/>
    </contour>
    <contour>
      <point x="137" y="476"/>
      <point x="110" y="503"/>
      <point x="110" y="538" type="curve" smooth="yes"/>
      <point x="110" y="575"/>
      <point x="137" y="602"/>
      <point x="172" y="602" type="curve" smooth="yes"/>
      <point x="209" y="602"/>
      <point x="235" y="575"/>
      <point x="235" y="538" type="curve" smooth="yes"/>
      <point x="235" y="503"/>
      <point x="209" y="476"/>
      <point x="172" y="476" type="curve" smooth="yes"/>
    </contour>
  </outline>
</glyph>
<glyph name="plusminus" format="1">
  <advance width="412"/>
  <unicode hex="00B1"/>
  <note>
	plusminus
  </note>
  <outline>
    <contour>
      <point x="249" y="172" type="line"/>
      <point x="249" y="278" type="line"/>
      <point x="369" y="278" type="line"/>
      <point x="369" y="351" type="line"/>
      <point x="249" y="351" type="line"/>
      <point x="249" y="457" type="line"/>
      <point x="161" y="457" type="line"/>
      <point x="161" y="351" type="line"/>
      <point x="43" y="351" type="line"/>
      <point x="43" y="278" type="line"/>
      <point x="161" y="278" type="line"/>
      <point x="161" y="172" type="line"/>
    </contour>
    <contour>
      <point x="369" y="29" type="line"/>
      <point x="369" y="102" type="line"/>
      <point x="43" y="102" type="line"/>
      <point x="43" y="29" type="line"/>
    </contour>
  </outline>
</glyph>
<glyph name="twosuperior" format="1">
  <advance width="331"/>
  <unicode hex="00B2"/>
  <note>
	twosuperior
  </note>
  <outline>
    <contour>
      <point x="288" y="345" type="line"/>
      <point x="288" y="400" type="line"/>
      <point x="128" y="400" type="line"/>
      <point x="128" y="424"/>
      <point x="159" y="441"/>
      <point x="197" y="465" type="curve" smooth="yes"/>
      <point x="263" y="504"/>
      <point x="286" y="524"/>
      <point x="286" y="572" type="curve" smooth="yes"/>
      <point x="286" y="630"/>
      <point x="240" y="662"/>
      <point x="164" y="662" type="curve" smooth="yes"/>
      <point x="124" y="662"/>
      <point x="71" y="648"/>
      <point x="43" y="628" type="curve"/>
      <point x="43" y="572" type="line"/>
      <point x="110" y="572" type="line"/>
      <point x="110" y="600" type="line"/>
      <point x="123" y="607"/>
      <point x="141" y="611"/>
      <point x="160" y="611" type="curve" smooth="yes"/>
      <point x="195" y="611"/>
      <point x="212" y="599"/>
      <point x="212" y="571" type="curve" smooth="yes"/>
      <point x="212" y="538"/>
      <point x="190" y="525"/>
      <point x="144" y="498" type="curve" smooth="yes"/>
      <point x="82" y="462"/>
      <point x="43" y="433"/>
      <point x="43" y="377" type="curve" smooth="yes"/>
      <point x="43" y="345" type="line"/>
    </contour>
  </outline>
</glyph>
<glyph name="threesuperior" format="1">
  <advance width="342"/>
  <unicode hex="00B3"/>
  <note>
	threesuperior
  </note>
  <outline>
    <contour>
      <point x="254" y="335"/>
      <point x="299" y="369"/>
      <point x="299" y="435" type="curve" smooth="yes"/>
      <point x="299" y="471"/>
      <point x="283" y="492"/>
      <point x="252" y="503" type="curve"/>
      <point x="283" y="518"/>
      <point x="293" y="548"/>
      <point x="293" y="576" type="curve" smooth="yes"/>
      <point x="293" y="629"/>
      <point x="251" y="662"/>
      <point x="165" y="662" type="curve" smooth="yes"/>
      <point x="119" y="662"/>
      <point x="73" y="645"/>
      <point x="49" y="626" type="curve"/>
      <point x="49" y="570" type="line"/>
      <point x="115" y="570" type="line"/>
      <point x="115" y="598" type="line"/>
      <point x="128" y="605"/>
      <point x="148" y="611"/>
      <point x="169" y="611" type="curve" smooth="yes"/>
      <point x="204" y="611"/>
      <point x="222" y="599"/>
      <point x="222" y="574" type="curve" smooth="yes"/>
      <point x="222" y="540"/>
      <point x="208" y="528"/>
      <point x="171" y="528" type="curve" smooth="yes"/>
      <point x="133" y="528" type="line"/>
      <point x="133" y="478" type="line"/>
      <point x="170" y="478" type="line" smooth="yes"/>
      <point x="210" y="478"/>
      <point x="227" y="468"/>
      <point x="227" y="434" type="curve" smooth="yes"/>
      <point x="227" y="398"/>
      <point x="203" y="386"/>
      <point x="164" y="386" type="curve" smooth="yes"/>
      <point x="141" y="386"/>
      <point x="122" y="391"/>
      <point x="109" y="401" type="curve"/>
      <point x="109" y="430" type="line"/>
      <point x="43" y="430" type="line"/>
      <point x="43" y="377" type="line"/>
      <point x="70" y="351"/>
      <point x="115" y="335"/>
      <point x="165" y="335" type="curve" smooth="yes"/>
    </contour>
  </outline>
</glyph>
<glyph name="acute" format="1">
  <advance width="297"/>
  <unicode hex="00B4"/>
  <note>
	acute
  </note>
  <outline>
    <contour>
      <point x="134" y="525" type="line"/>
      <point x="254" y="713" type="line"/>
      <point x="129" y="713" type="line"/>
      <point x="43" y="525" type="line"/>
    </contour>
  </outline>
</glyph>
<glyph name="paragraph" format="1">
  <advance width="658"/>
  <unicode hex="00B6"/>
  <note>
	paragraph
  </note>
  <outline>
    <contour>
      <point x="337" y="-156" type="line"/>
      <point x="337" y="576" type="line"/>
      <point x="444" y="576" type="line"/>
      <point x="444" y="-156" type="line"/>
      <point x="615" y="-156" type="line"/>
      <point x="615" y="-82" type="line"/>
      <point x="588" y="-82" type="line" smooth="yes"/>
      <point x="558" y="-82"/>
      <point x="549" y="-70"/>
      <point x="549" y="-45" type="curve" smooth="yes"/>
      <point x="549" y="538" type="line" smooth="yes"/>
      <point x="549" y="563"/>
      <point x="558" y="576"/>
      <point x="588" y="576" type="curve" smooth="yes"/>
      <point x="609" y="576" type="line"/>
      <point x="609" y="647" type="line"/>
      <point x="255" y="647" type="line" smooth="yes"/>
      <point x="111" y="647"/>
      <point x="43" y="585"/>
      <point x="43" y="469" type="curve" smooth="yes"/>
      <point x="43" y="375"/>
      <point x="108" y="306"/>
      <point x="232" y="306" type="curve"/>
      <point x="232" y="-45" type="line" smooth="yes"/>
      <point x="232" y="-70"/>
      <point x="223" y="-82"/>
      <point x="193" y="-82" type="curve" smooth="yes"/>
      <point x="166" y="-82" type="line"/>
      <point x="166" y="-156" type="line"/>
    </contour>
  </outline>
</glyph>
<glyph name="periodcentered" format="1">
  <advance width="179"/>
  <unicode hex="00B7"/>
  <note>
	periodcentered
  </note>
  <outline>
    <contour>
      <point x="136" y="263" type="line"/>
      <point x="136" y="351" type="line"/>
      <point x="43" y="351" type="line"/>
      <point x="43" y="263" type="line"/>
    </contour>
  </outline>
</glyph>
<glyph name="cedilla" format="1">
  <advance width="297"/>
  <unicode hex="00B8"/>
  <note>
	cedilla
  </note>
  <outline>
    <contour>
      <point x="210" y="-228"/>
      <point x="254" y="-194"/>
      <point x="254" y="-133" type="curve" smooth="yes"/>
      <point x="254" y="-86"/>
      <point x="233" y="-56"/>
      <point x="174" y="-46" type="curve"/>
      <point x="181" y="0" type="line"/>
      <point x="86" y="0" type="line"/>
      <point x="74" y="-82" type="line"/>
      <point x="149" y="-82"/>
      <point x="165" y="-97"/>
      <point x="165" y="-130" type="curve" smooth="yes"/>
      <point x="165" y="-154"/>
      <point x="147" y="-166"/>
      <point x="108" y="-166" type="curve" smooth="yes"/>
      <point x="86" y="-166"/>
      <point x="62" y="-161"/>
      <point x="43" y="-153" type="curve"/>
      <point x="43" y="-215" type="line"/>
      <point x="67" y="-224"/>
      <point x="90" y="-228"/>
      <point x="118" y="-228" type="curve" smooth="yes"/>
    </contour>
  </outline>
</glyph>
<glyph name="onesuperior" format="1">
  <advance width="280"/>
  <unicode hex="00B9"/>
  <note>
	onesuperior
  </note>
  <outline>
    <contour>
      <point x="247" y="345" type="line"/>
      <point x="247" y="399" type="line"/>
      <point x="214" y="399" type="line" smooth="yes"/>
      <point x="190" y="399"/>
      <point x="187" y="405"/>
      <point x="187" y="425" type="curve" smooth="yes"/>
      <point x="187" y="657" type="line"/>
      <point x="124" y="657" type="line"/>
      <point x="33" y="599" type="line"/>
      <point x="63" y="552" type="line"/>
      <point x="118" y="588" type="line"/>
      <point x="118" y="425" type="line" smooth="yes"/>
      <point x="118" y="405"/>
      <point x="114" y="399"/>
      <point x="90" y="399" type="curve" smooth="yes"/>
      <point x="57" y="399" type="line"/>
      <point x="57" y="345" type="line"/>
    </contour>
  </outline>
</glyph>
<glyph name="ordmasculine" format="1">
  <advance width="402"/>
  <unicode hex="00BA"/>
  <note>
	ordmasculine
  </note>
  <outline>
    <contour>
      <point x="304" y="335"/>
      <point x="359" y="397"/>
      <point x="359" y="498" type="curve" smooth="yes"/>
      <point x="359" y="599"/>
      <point x="306" y="662"/>
      <point x="201" y="662" type="curve" smooth="yes"/>
      <point x="96" y="662"/>
      <point x="43" y="599"/>
      <point x="43" y="498" type="curve" smooth="yes"/>
      <point x="43" y="397"/>
      <point x="97" y="335"/>
      <point x="201" y="335" type="curve" smooth="yes"/>
    </contour>
    <contour>
      <point x="145" y="393"/>
      <point x="120" y="426"/>
      <point x="120" y="498" type="curve" smooth="yes"/>
      <point x="120" y="571"/>
      <point x="145" y="604"/>
      <point x="201" y="604" type="curve" smooth="yes"/>
      <point x="256" y="604"/>
      <point x="282" y="571"/>
      <point x="282" y="498" type="curve" smooth="yes"/>
      <point x="282" y="426"/>
      <point x="256" y="393"/>
      <point x="201" y="393" type="curve" smooth="yes"/>
    </contour>
  </outline>
</glyph>
<glyph name="guillemetright" format="1">
  <advance width="599"/>
  <unicode hex="00BB"/>
  <note>
	guillemotright
  </note>
  <outline>
    <contour>
      <point x="556" y="298" type="line"/>
      <point x="556" y="351" type="line"/>
      <point x="270" y="593" type="line"/>
      <point x="270" y="486" type="line"/>
      <point x="455" y="324" type="line"/>
      <point x="270" y="163" type="line"/>
      <point x="270" y="56" type="line"/>
    </contour>
    <contour>
      <point x="329" y="298" type="line"/>
      <point x="329" y="351" type="line"/>
      <point x="43" y="593" type="line"/>
      <point x="43" y="486" type="line"/>
      <point x="228" y="324" type="line"/>
      <point x="43" y="163" type="line"/>
      <point x="43" y="56" type="line"/>
    </contour>
  </outline>
</glyph>
<glyph name="onequarter" format="1">
  <advance width="632"/>
  <unicode hex="00BC"/>
  <note>
	onequarter
  </note>
  <outline>
    <contour>
      <point x="184" y="0" type="line"/>
      <point x="581" y="647" type="line"/>
      <point x="483" y="647" type="line"/>
      <point x="85" y="0" type="line"/>
    </contour>
    <contour>
      <point x="579" y="0" type="line"/>
      <point x="579" y="47" type="line"/>
      <point x="556" y="47" type="line" smooth="yes"/>
      <point x="540" y="47"/>
      <point x="536" y="52"/>
      <point x="536" y="65" type="curve" smooth="yes"/>
      <point x="536" y="85" type="line"/>
      <point x="589" y="85" type="line"/>
      <point x="589" y="135" type="line"/>
      <point x="536" y="135" type="line"/>
      <point x="536" y="312" type="line"/>
      <point x="462" y="312" type="line"/>
      <point x="322" y="132" type="line"/>
      <point x="322" y="85" type="line"/>
      <point x="468" y="85" type="line"/>
      <point x="468" y="65" type="line" smooth="yes"/>
      <point x="468" y="52"/>
      <point x="464" y="47"/>
      <point x="449" y="47" type="curve" smooth="yes"/>
      <point x="426" y="47" type="line"/>
      <point x="426" y="0" type="line"/>
    </contour>
    <contour>
      <point x="475" y="242" type="line"/>
      <point x="475" y="135" type="line"/>
      <point x="392" y="135" type="line"/>
    </contour>
    <contour>
      <point x="257" y="345" type="line"/>
      <point x="257" y="399" type="line"/>
      <point x="224" y="399" type="line" smooth="yes"/>
      <point x="200" y="399"/>
      <point x="197" y="405"/>
      <point x="197" y="425" type="curve" smooth="yes"/>
      <point x="197" y="657" type="line"/>
      <point x="134" y="657" type="line"/>
      <point x="43" y="599" type="line"/>
      <point x="73" y="552" type="line"/>
      <point x="128" y="588" type="line"/>
      <point x="128" y="425" type="line" smooth="yes"/>
      <point x="128" y="405"/>
      <point x="124" y="399"/>
      <point x="100" y="399" type="curve" smooth="yes"/>
      <point x="67" y="399" type="line"/>
      <point x="67" y="345" type="line"/>
    </contour>
  </outline>
</glyph>
<glyph name="onehalf" format="1">
  <advance width="677"/>
  <unicode hex="00BD"/>
  <note>
	onehalf
  </note>
  <outline>
    <contour>
      <point x="184" y="0" type="line"/>
      <point x="581" y="647" type="line"/>
      <point x="483" y="647" type="line"/>
      <point x="85" y="0" type="line"/>
    </contour>
    <contour>
      <point x="257" y="345" type="line"/>
      <point x="257" y="399" type="line"/>
      <point x="224" y="399" type="line" smooth="yes"/>
      <point x="200" y="399"/>
      <point x="197" y="405"/>
      <point x="197" y="425" type="curve" smooth="yes"/>
      <point x="197" y="657" type="line"/>
      <point x="134" y="657" type="line"/>
      <point x="43" y="599" type="line"/>
      <point x="73" y="552" type="line"/>
      <point x="128" y="588" type="line"/>
      <point x="128" y="425" type="line" smooth="yes"/>
      <point x="128" y="405"/>
      <point x="124" y="399"/>
      <point x="100" y="399" type="curve" smooth="yes"/>
      <point x="67" y="399" type="line"/>
      <point x="67" y="345" type="line"/>
    </contour>
    <contour>
      <point x="634" y="0" type="line"/>
      <point x="634" y="55" type="line"/>
      <point x="474" y="55" type="line"/>
      <point x="474" y="79"/>
      <point x="505" y="96"/>
      <point x="543" y="120" type="curve" smooth="yes"/>
      <point x="608" y="159"/>
      <point x="632" y="179"/>
      <point x="632" y="227" type="curve" smooth="yes"/>
      <point x="632" y="285"/>
      <point x="586" y="317"/>
      <point x="510" y="317" type="curve" smooth="yes"/>
      <point x="470" y="317"/>
      <point x="417" y="303"/>
      <point x="389" y="283" type="curve"/>
      <point x="389" y="227" type="line"/>
      <point x="456" y="227" type="line"/>
      <point x="456" y="255" type="line"/>
      <point x="468" y="262"/>
      <point x="487" y="266"/>
      <point x="505" y="266" type="curve" smooth="yes"/>
      <point x="541" y="266"/>
      <point x="557" y="254"/>
      <point x="557" y="226" type="curve" smooth="yes"/>
      <point x="557" y="193"/>
      <point x="535" y="180"/>
      <point x="489" y="153" type="curve" smooth="yes"/>
      <point x="428" y="117"/>
      <point x="389" y="88"/>
      <point x="389" y="32" type="curve" smooth="yes"/>
      <point x="389" y="0" type="line"/>
    </contour>
  </outline>
</glyph>
<glyph name="threequarters" format="1">
  <advance width="642"/>
  <unicode hex="00BE"/>
  <note>
	threequarters
  </note>
  <outline>
    <contour>
      <point x="193" y="0" type="line"/>
      <point x="591" y="647" type="line"/>
      <point x="492" y="647" type="line"/>
      <point x="95" y="0" type="line"/>
    </contour>
    <contour>
      <point x="588" y="0" type="line"/>
      <point x="588" y="47" type="line"/>
      <point x="565" y="47" type="line" smooth="yes"/>
      <point x="550" y="47"/>
      <point x="546" y="52"/>
      <point x="546" y="65" type="curve" smooth="yes"/>
      <point x="546" y="85" type="line"/>
      <point x="599" y="85" type="line"/>
      <point x="599" y="135" type="line"/>
      <point x="546" y="135" type="line"/>
      <point x="546" y="312" type="line"/>
      <point x="472" y="312" type="line"/>
      <point x="331" y="132" type="line"/>
      <point x="331" y="85" type="line"/>
      <point x="478" y="85" type="line"/>
      <point x="478" y="65" type="line" smooth="yes"/>
      <point x="478" y="52"/>
      <point x="473" y="47"/>
      <point x="459" y="47" type="curve" smooth="yes"/>
      <point x="435" y="47" type="line"/>
      <point x="435" y="0" type="line"/>
    </contour>
    <contour>
      <point x="484" y="242" type="line"/>
      <point x="484" y="135" type="line"/>
      <point x="401" y="135" type="line"/>
    </contour>
    <contour>
      <point x="254" y="335"/>
      <point x="299" y="369"/>
      <point x="299" y="435" type="curve" smooth="yes"/>
      <point x="299" y="471"/>
      <point x="283" y="492"/>
      <point x="252" y="503" type="curve"/>
      <point x="283" y="518"/>
      <point x="293" y="548"/>
      <point x="293" y="576" type="curve" smooth="yes"/>
      <point x="293" y="629"/>
      <point x="251" y="662"/>
      <point x="165" y="662" type="curve" smooth="yes"/>
      <point x="119" y="662"/>
      <point x="73" y="645"/>
      <point x="49" y="626" type="curve"/>
      <point x="49" y="570" type="line"/>
      <point x="115" y="570" type="line"/>
      <point x="115" y="598" type="line"/>
      <point x="128" y="605"/>
      <point x="148" y="611"/>
      <point x="169" y="611" type="curve" smooth="yes"/>
      <point x="204" y="611"/>
      <point x="222" y="599"/>
      <point x="222" y="574" type="curve" smooth="yes"/>
      <point x="222" y="540"/>
      <point x="208" y="528"/>
      <point x="171" y="528" type="curve" smooth="yes"/>
      <point x="133" y="528" type="line"/>
      <point x="133" y="478" type="line"/>
      <point x="170" y="478" type="line" smooth="yes"/>
      <point x="210" y="478"/>
      <point x="227" y="468"/>
      <point x="227" y="434" type="curve" smooth="yes"/>
      <point x="227" y="398"/>
      <point x="203" y="386"/>
      <point x="164" y="386" type="curve" smooth="yes"/>
      <point x="141" y="386"/>
      <point x="122" y="391"/>
      <point x="109" y="401" type="curve"/>
      <point x="109" y="430" type="line"/>
      <point x="43" y="430" type="line"/>
      <point x="43" y="377" type="line"/>
      <point x="70" y="351"/>
      <point x="115" y="335"/>
      <point x="165" y="335" type="curve" smooth="yes"/>
    </contour>
  </outline>
</glyph>
<glyph name="questiondown" format="1">
  <advance width="535"/>
  <unicode hex="00BF"/>
  <note>
	questiondown
  </note>
  <outline>
    <contour>
      <point x="360" y="-167"/>
      <point x="441" y="-139"/>
      <point x="492" y="-101" type="curve"/>
      <point x="492" y="-5" type="line"/>
      <point x="396" y="-5" type="line"/>
      <point x="396" y="-63" type="line"/>
      <point x="366" y="-80"/>
      <point x="321" y="-93"/>
      <point x="274" y="-93" type="curve" smooth="yes"/>
      <point x="196" y="-93"/>
      <point x="146" y="-66"/>
      <point x="146" y="1" type="curve" smooth="yes"/>
      <point x="146" y="65"/>
      <point x="177" y="90"/>
      <point x="241" y="121" type="curve" smooth="yes"/>
      <point x="330" y="167"/>
      <point x="361" y="224"/>
      <point x="361" y="309" type="curve" smooth="yes"/>
      <point x="361" y="339" type="line"/>
      <point x="256" y="339" type="line"/>
      <point x="256" y="313" type="line" smooth="yes"/>
      <point x="256" y="252"/>
      <point x="247" y="216"/>
      <point x="185" y="183" type="curve" smooth="yes"/>
      <point x="84" y="129"/>
      <point x="43" y="92"/>
      <point x="43" y="1" type="curve" smooth="yes"/>
      <point x="43" y="-115"/>
      <point x="134" y="-167"/>
      <point x="272" y="-167" type="curve" smooth="yes"/>
    </contour>
    <contour>
      <point x="369" y="400" type="line"/>
      <point x="369" y="495" type="line"/>
      <point x="248" y="495" type="line"/>
      <point x="248" y="400" type="line"/>
    </contour>
  </outline>
</glyph>
<glyph name="Atilde" format="1">
  <advance width="719"/>
  <unicode hex="00C3"/>
  <note>
	Atilde
  </note>
  <outline>
    <contour>
      <point x="262" y="0" type="line"/>
      <point x="262" y="73" type="line"/>
      <point x="212" y="73" type="line"/>
      <point x="256" y="201" type="line"/>
      <point x="464" y="201" type="line"/>
      <point x="508" y="73" type="line"/>
      <point x="458" y="73" type="line"/>
      <point x="458" y="0" type="line"/>
      <point x="686" y="0" type="line"/>
      <point x="686" y="73" type="line"/>
      <point x="656" y="73" type="line" smooth="yes"/>
      <point x="626" y="73"/>
      <point x="610" y="81"/>
      <point x="600" y="109" type="curve" smooth="yes"/>
      <point x="411" y="647" type="line"/>
      <point x="310" y="647" type="line"/>
      <point x="119" y="109" type="line" smooth="yes"/>
      <point x="109" y="81"/>
      <point x="93" y="73"/>
      <point x="64" y="73" type="curve" smooth="yes"/>
      <point x="33" y="73" type="line"/>
      <point x="33" y="0" type="line"/>
    </contour>
    <contour>
      <point x="361" y="508" type="line"/>
      <point x="444" y="264" type="line"/>
      <point x="276" y="264" type="line"/>
    </contour>
    <contour>
      <point x="244" y="701" type="line"/>
      <point x="244" y="742"/>
      <point x="260" y="754"/>
      <point x="289" y="754" type="curve" smooth="yes"/>
      <point x="341" y="754"/>
      <point x="378" y="701"/>
      <point x="449" y="701" type="curve" smooth="yes"/>
      <point x="522" y="701"/>
      <point x="556" y="742"/>
      <point x="556" y="838" type="curve"/>
      <point x="478" y="838" type="line"/>
      <point x="478" y="797"/>
      <point x="463" y="784"/>
      <point x="434" y="784" type="curve" smooth="yes"/>
      <point x="385" y="784"/>
      <point x="347" y="838"/>
      <point x="275" y="838" type="curve" smooth="yes"/>
      <point x="201" y="838"/>
      <point x="166" y="795"/>
      <point x="166" y="701" type="curve"/>
    </contour>
  </outline>
</glyph>
<glyph name="Aring" format="1">
  <advance width="719"/>
  <unicode hex="00C5"/>
  <note>
	Aring
  </note>
  <outline>
    <contour>
      <point x="262" y="0" type="line"/>
      <point x="262" y="73" type="line"/>
      <point x="212" y="73" type="line"/>
      <point x="256" y="201" type="line"/>
      <point x="464" y="201" type="line"/>
      <point x="508" y="73" type="line"/>
      <point x="458" y="73" type="line"/>
      <point x="458" y="0" type="line"/>
      <point x="686" y="0" type="line"/>
      <point x="686" y="73" type="line"/>
      <point x="656" y="73" type="line" smooth="yes"/>
      <point x="626" y="73"/>
      <point x="610" y="81"/>
      <point x="600" y="109" type="curve" smooth="yes"/>
      <point x="411" y="647" type="line"/>
      <point x="310" y="647" type="line"/>
      <point x="119" y="109" type="line" smooth="yes"/>
      <point x="109" y="81"/>
      <point x="93" y="73"/>
      <point x="64" y="73" type="curve" smooth="yes"/>
      <point x="33" y="73" type="line"/>
      <point x="33" y="0" type="line"/>
    </contour>
    <contour>
      <point x="361" y="508" type="line"/>
      <point x="444" y="264" type="line"/>
      <point x="276" y="264" type="line"/>
    </contour>
    <contour>
      <point x="424" y="601"/>
      <point x="475" y="651"/>
      <point x="475" y="714" type="curve" smooth="yes"/>
      <point x="475" y="777"/>
      <point x="424" y="828"/>
      <point x="361" y="828" type="curve" smooth="yes"/>
      <point x="298" y="828"/>
      <point x="248" y="777"/>
      <point x="248" y="714" type="curve" smooth="yes"/>
      <point x="248" y="651"/>
      <point x="298" y="601"/>
      <point x="361" y="601" type="curve" smooth="yes"/>
    </contour>
    <contour>
      <point x="331" y="661"/>
      <point x="308" y="684"/>
      <point x="308" y="714" type="curve" smooth="yes"/>
      <point x="308" y="744"/>
      <point x="331" y="768"/>
      <point x="361" y="768" type="curve" smooth="yes"/>
      <point x="391" y="768"/>
      <point x="414" y="744"/>
      <point x="414" y="714" type="curve" smooth="yes"/>
      <point x="414" y="684"/>
      <point x="391" y="661"/>
      <point x="361" y="661" type="curve" smooth="yes"/>
    </contour>
  </outline>
</glyph>
<glyph name="AE" format="1">
  <advance width="838"/>
  <unicode hex="00C6"/>
  <note>
	AE
  </note>
  <outline>
    <contour>
      <point x="262" y="0" type="line"/>
      <point x="262" y="73" type="line"/>
      <point x="212" y="73" type="line"/>
      <point x="259" y="201" type="line"/>
      <point x="402" y="201" type="line"/>
      <point x="402" y="111" type="line" smooth="yes"/>
      <point x="402" y="84"/>
      <point x="392" y="73"/>
      <point x="365" y="73" type="curve" smooth="yes"/>
      <point x="336" y="73" type="line"/>
      <point x="336" y="0" type="line"/>
      <point x="805" y="0" type="line"/>
      <point x="805" y="130" type="line"/>
      <point x="709" y="130" type="line"/>
      <point x="709" y="110" type="line" smooth="yes"/>
      <point x="709" y="84"/>
      <point x="698" y="73"/>
      <point x="671" y="73" type="curve" smooth="yes"/>
      <point x="504" y="73" type="line"/>
      <point x="504" y="287" type="line"/>
      <point x="671" y="287" type="line"/>
      <point x="671" y="361" type="line"/>
      <point x="504" y="361" type="line"/>
      <point x="504" y="574" type="line"/>
      <point x="671" y="574" type="line" smooth="yes"/>
      <point x="698" y="574"/>
      <point x="709" y="563"/>
      <point x="709" y="537" type="curve" smooth="yes"/>
      <point x="709" y="518" type="line"/>
      <point x="805" y="518" type="line"/>
      <point x="805" y="647" type="line"/>
      <point x="323" y="647" type="line"/>
      <point x="119" y="109" type="line" smooth="yes"/>
      <point x="109" y="81"/>
      <point x="93" y="73"/>
      <point x="64" y="73" type="curve" smooth="yes"/>
      <point x="33" y="73" type="line"/>
      <point x="33" y="0" type="line"/>
    </contour>
    <contour>
      <point x="395" y="573" type="line"/>
      <point x="402" y="573" type="line"/>
      <point x="402" y="274" type="line"/>
      <point x="282" y="274" type="line"/>
    </contour>
  </outline>
</glyph>
<glyph name="Ccedilla" format="1">
  <advance width="599"/>
  <unicode hex="00C7"/>
  <note>
	Ccedilla
  </note>
  <outline>
    <contour>
      <point x="446" y="-15"/>
      <point x="503" y="-3"/>
      <point x="564" y="37" type="curve"/>
      <point x="525" y="99" type="line"/>
      <point x="477" y="69"/>
      <point x="429" y="59"/>
      <point x="367" y="59" type="curve" smooth="yes"/>
      <point x="224" y="59"/>
      <point x="136" y="156"/>
      <point x="136" y="320" type="curve" smooth="yes"/>
      <point x="136" y="487"/>
      <point x="215" y="588"/>
      <point x="351" y="588" type="curve" smooth="yes"/>
      <point x="395" y="588"/>
      <point x="432" y="581"/>
      <point x="461" y="568" type="curve"/>
      <point x="461" y="504" type="line"/>
      <point x="566" y="504" type="line"/>
      <point x="566" y="606" type="line"/>
      <point x="514" y="644"/>
      <point x="446" y="662"/>
      <point x="351" y="662" type="curve" smooth="yes"/>
      <point x="133" y="662"/>
      <point x="33" y="514"/>
      <point x="33" y="320" type="curve" smooth="yes"/>
      <point x="33" y="125"/>
      <point x="147" y="-15"/>
      <point x="363" y="-15" type="curve" smooth="yes"/>
    </contour>
    <contour>
      <point x="426" y="-228"/>
      <point x="470" y="-194"/>
      <point x="470" y="-133" type="curve" smooth="yes"/>
      <point x="470" y="-86"/>
      <point x="448" y="-56"/>
      <point x="389" y="-46" type="curve"/>
      <point x="397" y="0" type="line"/>
      <point x="302" y="0" type="line"/>
      <point x="289" y="-82" type="line"/>
      <point x="365" y="-82"/>
      <point x="381" y="-97"/>
      <point x="381" y="-130" type="curve" smooth="yes"/>
      <point x="381" y="-154"/>
      <point x="363" y="-166"/>
      <point x="324" y="-166" type="curve" smooth="yes"/>
      <point x="302" y="-166"/>
      <point x="277" y="-161"/>
      <point x="259" y="-153" type="curve"/>
      <point x="259" y="-215" type="line"/>
      <point x="282" y="-224"/>
      <point x="306" y="-228"/>
      <point x="334" y="-228" type="curve" smooth="yes"/>
    </contour>
  </outline>
</glyph>
<glyph name="Ecircumflex" format="1">
  <advance width="545"/>
  <unicode hex="00CA"/>
  <note>
	Ecircumflex
  </note>
  <outline>
    <contour>
      <point x="512" y="0" type="line"/>
      <point x="512" y="130" type="line"/>
      <point x="416" y="130" type="line"/>
      <point x="416" y="110" type="line" smooth="yes"/>
      <point x="416" y="84"/>
      <point x="405" y="73"/>
      <point x="378" y="73" type="curve" smooth="yes"/>
      <point x="205" y="73" type="line"/>
      <point x="205" y="287" type="line"/>
      <point x="378" y="287" type="line"/>
      <point x="378" y="361" type="line"/>
      <point x="205" y="361" type="line"/>
      <point x="205" y="574" type="line"/>
      <point x="378" y="574" type="line" smooth="yes"/>
      <point x="405" y="574"/>
      <point x="416" y="563"/>
      <point x="416" y="538" type="curve" smooth="yes"/>
      <point x="416" y="518" type="line"/>
      <point x="512" y="518" type="line"/>
      <point x="512" y="647" type="line"/>
      <point x="33" y="647" type="line"/>
      <point x="33" y="573" type="line"/>
      <point x="62" y="573" type="line" smooth="yes"/>
      <point x="89" y="573"/>
      <point x="99" y="562"/>
      <point x="99" y="537" type="curve" smooth="yes"/>
      <point x="99" y="111" type="line" smooth="yes"/>
      <point x="99" y="84"/>
      <point x="89" y="73"/>
      <point x="62" y="73" type="curve" smooth="yes"/>
      <point x="33" y="73" type="line"/>
      <point x="33" y="0" type="line"/>
    </contour>
    <contour>
      <point x="181" y="701" type="line"/>
      <point x="258" y="827" type="line"/>
      <point x="335" y="701" type="line"/>
      <point x="435" y="701" type="line"/>
      <point x="310" y="889" type="line"/>
      <point x="207" y="889" type="line"/>
      <point x="82" y="701" type="line"/>
    </contour>
  </outline>
</glyph>
<glyph name="Icircumflex" format="1">
  <advance width="303"/>
  <unicode hex="00CE"/>
  <note>
	Icircumflex
  </note>
  <outline>
    <contour>
      <point x="270" y="0" type="line"/>
      <point x="270" y="73" type="line"/>
      <point x="241" y="73" type="line" smooth="yes"/>
      <point x="215" y="73"/>
      <point x="205" y="84"/>
      <point x="205" y="110" type="curve" smooth="yes"/>
      <point x="205" y="537" type="line" smooth="yes"/>
      <point x="205" y="562"/>
      <point x="215" y="573"/>
      <point x="241" y="573" type="curve" smooth="yes"/>
      <point x="270" y="573" type="line"/>
      <point x="270" y="647" type="line"/>
      <point x="33" y="647" type="line"/>
      <point x="33" y="573" type="line"/>
      <point x="62" y="573" type="line" smooth="yes"/>
      <point x="89" y="573"/>
      <point x="99" y="562"/>
      <point x="99" y="537" type="curve" smooth="yes"/>
      <point x="99" y="111" type="line" smooth="yes"/>
      <point x="99" y="84"/>
      <point x="89" y="73"/>
      <point x="62" y="73" type="curve" smooth="yes"/>
      <point x="33" y="73" type="line"/>
      <point x="33" y="0" type="line"/>
    </contour>
    <contour>
      <point x="74" y="701" type="line"/>
      <point x="151" y="827" type="line"/>
      <point x="228" y="701" type="line"/>
      <point x="328" y="701" type="line"/>
      <point x="203" y="889" type="line"/>
      <point x="100" y="889" type="line"/>
      <point x="-25" y="701" type="line"/>
    </contour>
  </outline>
</glyph>
<glyph name="Ntilde" format="1">
  <advance width="691"/>
  <unicode hex="00D1"/>
  <note>
	Ntilde
  </note>
  <outline>
    <contour>
      <point x="270" y="0" type="line"/>
      <point x="270" y="74" type="line"/>
      <point x="241" y="74" type="line" smooth="yes"/>
      <point x="215" y="74"/>
      <point x="204" y="85"/>
      <point x="204" y="110" type="curve" smooth="yes"/>
      <point x="204" y="472" type="line"/>
      <point x="509" y="0" type="line"/>
      <point x="592" y="0" type="line"/>
      <point x="592" y="537" type="line" smooth="yes"/>
      <point x="592" y="562"/>
      <point x="602" y="573"/>
      <point x="628" y="573" type="curve" smooth="yes"/>
      <point x="658" y="573" type="line"/>
      <point x="658" y="647" type="line"/>
      <point x="420" y="647" type="line"/>
      <point x="420" y="573" type="line"/>
      <point x="450" y="573" type="line" smooth="yes"/>
      <point x="476" y="573"/>
      <point x="487" y="562"/>
      <point x="487" y="537" type="curve" smooth="yes"/>
      <point x="487" y="174" type="line"/>
      <point x="182" y="647" type="line"/>
      <point x="33" y="647" type="line"/>
      <point x="33" y="573" type="line"/>
      <point x="62" y="573" type="line" smooth="yes"/>
      <point x="89" y="573"/>
      <point x="99" y="562"/>
      <point x="99" y="537" type="curve" smooth="yes"/>
      <point x="99" y="110" type="line" smooth="yes"/>
      <point x="99" y="85"/>
      <point x="89" y="74"/>
      <point x="62" y="74" type="curve" smooth="yes"/>
      <point x="33" y="74" type="line"/>
      <point x="33" y="0" type="line"/>
    </contour>
    <contour>
      <point x="231" y="701" type="line"/>
      <point x="231" y="742"/>
      <point x="247" y="754"/>
      <point x="276" y="754" type="curve" smooth="yes"/>
      <point x="328" y="754"/>
      <point x="365" y="701"/>
      <point x="436" y="701" type="curve" smooth="yes"/>
      <point x="509" y="701"/>
      <point x="543" y="742"/>
      <point x="543" y="838" type="curve"/>
      <point x="465" y="838" type="line"/>
      <point x="465" y="797"/>
      <point x="450" y="784"/>
      <point x="421" y="784" type="curve" smooth="yes"/>
      <point x="372" y="784"/>
      <point x="334" y="838"/>
      <point x="262" y="838" type="curve" smooth="yes"/>
      <point x="188" y="838"/>
      <point x="153" y="795"/>
      <point x="153" y="701" type="curve"/>
    </contour>
  </outline>
</glyph>
<glyph name="Ocircumflex" format="1">
  <advance width="659"/>
  <unicode hex="00D4"/>
  <note>
	Ocircumflex
  </note>
  <outline>
    <contour>
      <point x="531" y="-15"/>
      <point x="626" y="97"/>
      <point x="626" y="321" type="curve" smooth="yes"/>
      <point x="626" y="545"/>
      <point x="538" y="662"/>
      <point x="330" y="662" type="curve" smooth="yes"/>
      <point x="121" y="662"/>
      <point x="33" y="545"/>
      <point x="33" y="321" type="curve" smooth="yes"/>
      <point x="33" y="97"/>
      <point x="128" y="-15"/>
      <point x="330" y="-15" type="curve" smooth="yes"/>
    </contour>
    <contour>
      <point x="201" y="59"/>
      <point x="137" y="130"/>
      <point x="137" y="321" type="curve" smooth="yes"/>
      <point x="137" y="516"/>
      <point x="200" y="588"/>
      <point x="330" y="588" type="curve" smooth="yes"/>
      <point x="459" y="588"/>
      <point x="522" y="516"/>
      <point x="522" y="321" type="curve" smooth="yes"/>
      <point x="522" y="130"/>
      <point x="458" y="59"/>
      <point x="330" y="59" type="curve" smooth="yes"/>
    </contour>
    <contour>
      <point x="251" y="701" type="line"/>
      <point x="328" y="827" type="line"/>
      <point x="405" y="701" type="line"/>
      <point x="505" y="701" type="line"/>
      <point x="380" y="889" type="line"/>
      <point x="277" y="889" type="line"/>
      <point x="152" y="701" type="line"/>
    </contour>
  </outline>
</glyph>
<glyph name="Otilde" format="1">
  <advance width="659"/>
  <unicode hex="00D5"/>
  <note>
	Otilde
  </note>
  <outline>
    <contour>
      <point x="531" y="-15"/>
      <point x="626" y="97"/>
      <point x="626" y="321" type="curve" smooth="yes"/>
      <point x="626" y="545"/>
      <point x="538" y="662"/>
      <point x="330" y="662" type="curve" smooth="yes"/>
      <point x="121" y="662"/>
      <point x="33" y="545"/>
      <point x="33" y="321" type="curve" smooth="yes"/>
      <point x="33" y="97"/>
      <point x="128" y="-15"/>
      <point x="330" y="-15" type="curve" smooth="yes"/>
    </contour>
    <contour>
      <point x="201" y="59"/>
      <point x="137" y="130"/>
      <point x="137" y="321" type="curve" smooth="yes"/>
      <point x="137" y="516"/>
      <point x="200" y="588"/>
      <point x="330" y="588" type="curve" smooth="yes"/>
      <point x="459" y="588"/>
      <point x="522" y="516"/>
      <point x="522" y="321" type="curve" smooth="yes"/>
      <point x="522" y="130"/>
      <point x="458" y="59"/>
      <point x="330" y="59" type="curve" smooth="yes"/>
    </contour>
    <contour>
      <point x="211" y="701" type="line"/>
      <point x="211" y="742"/>
      <point x="227" y="754"/>
      <point x="256" y="754" type="curve" smooth="yes"/>
      <point x="308" y="754"/>
      <point x="345" y="701"/>
      <point x="416" y="701" type="curve" smooth="yes"/>
      <point x="489" y="701"/>
      <point x="523" y="742"/>
      <point x="523" y="838" type="curve"/>
      <point x="445" y="838" type="line"/>
      <point x="445" y="797"/>
      <point x="430" y="784"/>
      <point x="401" y="784" type="curve" smooth="yes"/>
      <point x="352" y="784"/>
      <point x="314" y="838"/>
      <point x="242" y="838" type="curve" smooth="yes"/>
      <point x="168" y="838"/>
      <point x="133" y="795"/>
      <point x="133" y="701" type="curve"/>
    </contour>
  </outline>
</glyph>
<glyph name="Odieresis" format="1">
  <advance width="659"/>
  <unicode hex="00D6"/>
  <note>
	Odieresis
  </note>
  <outline>
    <contour>
      <point x="531" y="-15"/>
      <point x="626" y="97"/>
      <point x="626" y="321" type="curve" smooth="yes"/>
      <point x="626" y="545"/>
      <point x="538" y="662"/>
      <point x="330" y="662" type="curve" smooth="yes"/>
      <point x="121" y="662"/>
      <point x="33" y="545"/>
      <point x="33" y="321" type="curve" smooth="yes"/>
      <point x="33" y="97"/>
      <point x="128" y="-15"/>
      <point x="330" y="-15" type="curve" smooth="yes"/>
    </contour>
    <contour>
      <point x="201" y="59"/>
      <point x="137" y="130"/>
      <point x="137" y="321" type="curve" smooth="yes"/>
      <point x="137" y="516"/>
      <point x="200" y="588"/>
      <point x="330" y="588" type="curve" smooth="yes"/>
      <point x="459" y="588"/>
      <point x="522" y="516"/>
      <point x="522" y="321" type="curve" smooth="yes"/>
      <point x="522" y="130"/>
      <point x="458" y="59"/>
      <point x="330" y="59" type="curve" smooth="yes"/>
    </contour>
    <contour>
      <point x="268" y="720" type="line"/>
      <point x="268" y="816" type="line"/>
      <point x="176" y="816" type="line"/>
      <point x="176" y="720" type="line"/>
    </contour>
    <contour>
      <point x="482" y="720" type="line"/>
      <point x="482" y="816" type="line"/>
      <point x="389" y="816" type="line"/>
      <point x="389" y="720" type="line"/>
    </contour>
  </outline>
</glyph>
<glyph name="multiply" format="1">
  <advance width="367"/>
  <unicode hex="00D7"/>
  <note>
	multiply
  </note>
  <outline>
    <contour>
      <point x="184" y="247" type="line"/>
      <point x="264" y="167" type="line"/>
      <point x="324" y="226" type="line"/>
      <point x="243" y="306" type="line"/>
      <point x="324" y="388" type="line"/>
      <point x="265" y="446" type="line"/>
      <point x="183" y="365" type="line"/>
      <point x="103" y="446" type="line"/>
      <point x="43" y="388" type="line"/>
      <point x="124" y="306" type="line"/>
      <point x="44" y="226" type="line"/>
      <point x="103" y="166" type="line"/>
    </contour>
  </outline>
</glyph>
<glyph name="Oslash" format="1">
  <advance width="659"/>
  <unicode hex="00D8"/>
  <note>
	Oslash
  </note>
  <outline>
    <contour>
      <point x="214" y="-43" type="line"/>
      <point x="228" y="-3" type="line"/>
      <point x="258" y="-11"/>
      <point x="292" y="-15"/>
      <point x="330" y="-15" type="curve" smooth="yes"/>
      <point x="531" y="-15"/>
      <point x="626" y="97"/>
      <point x="626" y="321" type="curve" smooth="yes"/>
      <point x="626" y="488"/>
      <point x="577" y="595"/>
      <point x="466" y="639" type="curve"/>
      <point x="485" y="689" type="line"/>
      <point x="430" y="689" type="line"/>
      <point x="416" y="653" type="line"/>
      <point x="390" y="659"/>
      <point x="361" y="662"/>
      <point x="330" y="662" type="curve" smooth="yes"/>
      <point x="121" y="662"/>
      <point x="33" y="545"/>
      <point x="33" y="321" type="curve" smooth="yes"/>
      <point x="33" y="162"/>
      <point x="80" y="60"/>
      <point x="180" y="14" type="curve"/>
      <point x="159" y="-43" type="line"/>
    </contour>
    <contour>
      <point x="161" y="134"/>
      <point x="137" y="205"/>
      <point x="137" y="321" type="curve" smooth="yes"/>
      <point x="137" y="516"/>
      <point x="200" y="588"/>
      <point x="330" y="588" type="curve" smooth="yes"/>
      <point x="352" y="588"/>
      <point x="372" y="585"/>
      <point x="390" y="581" type="curve"/>
      <point x="210" y="96" type="line"/>
    </contour>
    <contour>
      <point x="302" y="59"/>
      <point x="277" y="62"/>
      <point x="255" y="70" type="curve"/>
      <point x="437" y="561" type="line"/>
      <point x="494" y="525"/>
      <point x="522" y="450"/>
      <point x="522" y="321" type="curve" smooth="yes"/>
      <point x="522" y="130"/>
      <point x="458" y="59"/>
      <point x="330" y="59" type="curve" smooth="yes"/>
    </contour>
  </outline>
</glyph>
<glyph name="Ugrave" format="1">
  <advance width="661"/>
  <unicode hex="00D9"/>
  <note>
	Ugrave
  </note>
  <outline>
    <contour>
      <point x="499" y="-15"/>
      <point x="577" y="65"/>
      <point x="577" y="182" type="curve" smooth="yes"/>
      <point x="577" y="539" type="line" smooth="yes"/>
      <point x="577" y="564"/>
      <point x="588" y="575"/>
      <point x="614" y="575" type="curve" smooth="yes"/>
      <point x="638" y="575" type="line"/>
      <point x="638" y="647" type="line"/>
      <point x="415" y="647" type="line"/>
      <point x="415" y="575" type="line"/>
      <point x="434" y="575" type="line" smooth="yes"/>
      <point x="460" y="575"/>
      <point x="471" y="564"/>
      <point x="471" y="537" type="curve" smooth="yes"/>
      <point x="471" y="176" type="line" smooth="yes"/>
      <point x="471" y="95"/>
      <point x="422" y="58"/>
      <point x="330" y="58" type="curve" smooth="yes"/>
      <point x="237" y="58"/>
      <point x="189" y="95"/>
      <point x="189" y="176" type="curve" smooth="yes"/>
      <point x="189" y="537" type="line" smooth="yes"/>
      <point x="189" y="564"/>
      <point x="199" y="575"/>
      <point x="225" y="575" type="curve" smooth="yes"/>
      <point x="244" y="575" type="line"/>
      <point x="244" y="647" type="line"/>
      <point x="23" y="647" type="line"/>
      <point x="23" y="575" type="line"/>
      <point x="46" y="575" type="line" smooth="yes"/>
      <point x="73" y="575"/>
      <point x="83" y="564"/>
      <point x="83" y="539" type="curve" smooth="yes"/>
      <point x="83" y="182" type="line" smooth="yes"/>
      <point x="83" y="65"/>
      <point x="160" y="-15"/>
      <point x="330" y="-15" type="curve" smooth="yes"/>
    </contour>
    <contour>
      <point x="365" y="701" type="line"/>
      <point x="285" y="880" type="line"/>
      <point x="159" y="880" type="line"/>
      <point x="273" y="701" type="line"/>
    </contour>
  </outline>
</glyph>
<glyph name="Uacute" format="1">
  <advance width="661"/>
  <unicode hex="00DA"/>
  <note>
	Uacute
  </note>
  <outline>
    <contour>
      <point x="499" y="-15"/>
      <point x="577" y="65"/>
      <point x="577" y="182" type="curve" smooth="yes"/>
      <point x="577" y="539" type="line" smooth="yes"/>
      <point x="577" y="564"/>
      <point x="588" y="575"/>
      <point x="614" y="575" type="curve" smooth="yes"/>
      <point x="638" y="575" type="line"/>
      <point x="638" y="647" type="line"/>
      <point x="415" y="647" type="line"/>
      <point x="415" y="575" type="line"/>
      <point x="434" y="575" type="line" smooth="yes"/>
      <point x="460" y="575"/>
      <point x="471" y="564"/>
      <point x="471" y="537" type="curve" smooth="yes"/>
      <point x="471" y="176" type="line" smooth="yes"/>
      <point x="471" y="95"/>
      <point x="422" y="58"/>
      <point x="330" y="58" type="curve" smooth="yes"/>
      <point x="237" y="58"/>
      <point x="189" y="95"/>
      <point x="189" y="176" type="curve" smooth="yes"/>
      <point x="189" y="537" type="line" smooth="yes"/>
      <point x="189" y="564"/>
      <point x="199" y="575"/>
      <point x="225" y="575" type="curve" smooth="yes"/>
      <point x="244" y="575" type="line"/>
      <point x="244" y="647" type="line"/>
      <point x="23" y="647" type="line"/>
      <point x="23" y="575" type="line"/>
      <point x="46" y="575" type="line" smooth="yes"/>
      <point x="73" y="575"/>
      <point x="83" y="564"/>
      <point x="83" y="539" type="curve" smooth="yes"/>
      <point x="83" y="182" type="line" smooth="yes"/>
      <point x="83" y="65"/>
      <point x="160" y="-15"/>
      <point x="330" y="-15" type="curve" smooth="yes"/>
    </contour>
    <contour>
      <point x="350" y="701" type="line"/>
      <point x="464" y="880" type="line"/>
      <point x="339" y="880" type="line"/>
      <point x="259" y="701" type="line"/>
    </contour>
  </outline>
</glyph>
<glyph name="Ucircumflex" format="1">
  <advance width="661"/>
  <unicode hex="00DB"/>
  <note>
	Ucircumflex
  </note>
  <outline>
    <contour>
      <point x="499" y="-15"/>
      <point x="577" y="65"/>
      <point x="577" y="182" type="curve" smooth="yes"/>
      <point x="577" y="539" type="line" smooth="yes"/>
      <point x="577" y="564"/>
      <point x="588" y="575"/>
      <point x="614" y="575" type="curve" smooth="yes"/>
      <point x="638" y="575" type="line"/>
      <point x="638" y="647" type="line"/>
      <point x="415" y="647" type="line"/>
      <point x="415" y="575" type="line"/>
      <point x="434" y="575" type="line" smooth="yes"/>
      <point x="460" y="575"/>
      <point x="471" y="564"/>
      <point x="471" y="537" type="curve" smooth="yes"/>
      <point x="471" y="176" type="line" smooth="yes"/>
      <point x="471" y="95"/>
      <point x="422" y="58"/>
      <point x="330" y="58" type="curve" smooth="yes"/>
      <point x="237" y="58"/>
      <point x="189" y="95"/>
      <point x="189" y="176" type="curve" smooth="yes"/>
      <point x="189" y="537" type="line" smooth="yes"/>
      <point x="189" y="564"/>
      <point x="199" y="575"/>
      <point x="225" y="575" type="curve" smooth="yes"/>
      <point x="244" y="575" type="line"/>
      <point x="244" y="647" type="line"/>
      <point x="23" y="647" type="line"/>
      <point x="23" y="575" type="line"/>
      <point x="46" y="575" type="line" smooth="yes"/>
      <point x="73" y="575"/>
      <point x="83" y="564"/>
      <point x="83" y="539" type="curve" smooth="yes"/>
      <point x="83" y="182" type="line" smooth="yes"/>
      <point x="83" y="65"/>
      <point x="160" y="-15"/>
      <point x="330" y="-15" type="curve" smooth="yes"/>
    </contour>
    <contour>
      <point x="253" y="701" type="line"/>
      <point x="330" y="827" type="line"/>
      <point x="407" y="701" type="line"/>
      <point x="507" y="701" type="line"/>
      <point x="382" y="889" type="line"/>
      <point x="279" y="889" type="line"/>
      <point x="154" y="701" type="line"/>
    </contour>
  </outline>
</glyph>
<glyph name="Udieresis" format="1">
  <advance width="662"/>
  <unicode hex="00DC"/>
  <note>
	Udieresis
  </note>
  <outline>
    <contour>
      <point x="500" y="-15"/>
      <point x="578" y="65"/>
      <point x="578" y="182" type="curve" smooth="yes"/>
      <point x="578" y="539" type="line" smooth="yes"/>
      <point x="578" y="564"/>
      <point x="589" y="575"/>
      <point x="615" y="575" type="curve" smooth="yes"/>
      <point x="639" y="575" type="line"/>
      <point x="639" y="647" type="line"/>
      <point x="416" y="647" type="line"/>
      <point x="416" y="575" type="line"/>
      <point x="435" y="575" type="line" smooth="yes"/>
      <point x="461" y="575"/>
      <point x="472" y="564"/>
      <point x="472" y="537" type="curve" smooth="yes"/>
      <point x="472" y="176" type="line" smooth="yes"/>
      <point x="472" y="95"/>
      <point x="423" y="58"/>
      <point x="331" y="58" type="curve" smooth="yes"/>
      <point x="238" y="58"/>
      <point x="190" y="95"/>
      <point x="190" y="176" type="curve" smooth="yes"/>
      <point x="190" y="537" type="line" smooth="yes"/>
      <point x="190" y="564"/>
      <point x="200" y="575"/>
      <point x="226" y="575" type="curve" smooth="yes"/>
      <point x="245" y="575" type="line"/>
      <point x="245" y="647" type="line"/>
      <point x="24" y="647" type="line"/>
      <point x="24" y="575" type="line"/>
      <point x="47" y="575" type="line" smooth="yes"/>
      <point x="74" y="575"/>
      <point x="84" y="564"/>
      <point x="84" y="539" type="curve" smooth="yes"/>
      <point x="84" y="182" type="line" smooth="yes"/>
      <point x="84" y="65"/>
      <point x="161" y="-15"/>
      <point x="331" y="-15" type="curve" smooth="yes"/>
    </contour>
    <contour>
      <point x="270" y="720" type="line"/>
      <point x="270" y="816" type="line"/>
      <point x="178" y="816" type="line"/>
      <point x="178" y="720" type="line"/>
    </contour>
    <contour>
      <point x="484" y="720" type="line"/>
      <point x="484" y="816" type="line"/>
      <point x="391" y="816" type="line"/>
      <point x="391" y="720" type="line"/>
    </contour>
  </outline>
</glyph>
<glyph name="Thorn" format="1">
  <advance width="621"/>
  <unicode hex="00DE"/>
  <note>
	Thorn
  </note>
  <outline>
    <contour>
      <point x="270" y="0" type="line"/>
      <point x="270" y="73" type="line"/>
      <point x="244" y="73" type="line" smooth="yes"/>
      <point x="214" y="73"/>
      <point x="205" y="84"/>
      <point x="205" y="109" type="curve" smooth="yes"/>
      <point x="205" y="137" type="line"/>
      <point x="375" y="137" type="line" smooth="yes"/>
      <point x="513" y="137"/>
      <point x="588" y="218"/>
      <point x="588" y="343" type="curve" smooth="yes"/>
      <point x="588" y="480"/>
      <point x="513" y="542"/>
      <point x="361" y="542" type="curve" smooth="yes"/>
      <point x="205" y="542" type="line"/>
      <point x="205" y="647" type="line"/>
      <point x="33" y="647" type="line"/>
      <point x="33" y="574" type="line"/>
      <point x="60" y="574" type="line" smooth="yes"/>
      <point x="90" y="574"/>
      <point x="99" y="561"/>
      <point x="99" y="537" type="curve" smooth="yes"/>
      <point x="99" y="139" type="line" smooth="yes"/>
      <point x="99" y="101"/>
      <point x="101" y="73"/>
      <point x="60" y="73" type="curve" smooth="yes"/>
      <point x="33" y="73" type="line"/>
      <point x="33" y="0" type="line"/>
    </contour>
    <contour>
      <point x="205" y="468" type="line"/>
      <point x="361" y="468" type="line" smooth="yes"/>
      <point x="446" y="468"/>
      <point x="485" y="438"/>
      <point x="485" y="343" type="curve" smooth="yes"/>
      <point x="485" y="252"/>
      <point x="444" y="211"/>
      <point x="361" y="211" type="curve" smooth="yes"/>
      <point x="205" y="211" type="line"/>
    </contour>
  </outline>
</glyph>
<glyph name="germandbls" format="1">
  <advance width="637"/>
  <unicode hex="00DF"/>
  <note>
	germandbls
  </note>
  <outline>
    <contour>
      <point x="540" y="-15"/>
      <point x="604" y="68"/>
      <point x="604" y="187" type="curve" smooth="yes"/>
      <point x="604" y="264"/>
      <point x="578" y="325"/>
      <point x="500" y="353" type="curve"/>
      <point x="562" y="379"/>
      <point x="589" y="450"/>
      <point x="589" y="516" type="curve" smooth="yes"/>
      <point x="589" y="629"/>
      <point x="511" y="712"/>
      <point x="342" y="712" type="curve" smooth="yes"/>
      <point x="173" y="712"/>
      <point x="99" y="623"/>
      <point x="99" y="499" type="curve" smooth="yes"/>
      <point x="99" y="111" type="line" smooth="yes"/>
      <point x="99" y="84"/>
      <point x="89" y="73"/>
      <point x="62" y="73" type="curve" smooth="yes"/>
      <point x="33" y="73" type="line"/>
      <point x="33" y="0" type="line"/>
      <point x="205" y="0" type="line"/>
      <point x="205" y="506" type="line" smooth="yes"/>
      <point x="205" y="599"/>
      <point x="256" y="638"/>
      <point x="344" y="638" type="curve" smooth="yes"/>
      <point x="436" y="638"/>
      <point x="485" y="600"/>
      <point x="485" y="516" type="curve" smooth="yes"/>
      <point x="485" y="440"/>
      <point x="454" y="386"/>
      <point x="367" y="386" type="curve" smooth="yes"/>
      <point x="316" y="386" type="line"/>
      <point x="316" y="316" type="line"/>
      <point x="374" y="316" type="line" smooth="yes"/>
      <point x="468" y="316"/>
      <point x="500" y="271"/>
      <point x="500" y="188" type="curve" smooth="yes"/>
      <point x="500" y="96"/>
      <point x="460" y="57"/>
      <point x="397" y="57" type="curve" smooth="yes"/>
      <point x="359" y="57"/>
      <point x="329" y="63"/>
      <point x="295" y="81" type="curve"/>
      <point x="260" y="20" type="line"/>
      <point x="302" y="-6"/>
      <point x="356" y="-15"/>
      <point x="403" y="-15" type="curve" smooth="yes"/>
    </contour>
  </outline>
</glyph>
<glyph name="atilde" format="1">
  <advance width="523"/>
  <unicode hex="00E3"/>
  <note>
	atilde
  </note>
  <outline>
    <contour>
      <point x="280" y="-15"/>
      <point x="330" y="9"/>
      <point x="372" y="63" type="curve"/>
      <point x="385" y="0" type="line"/>
      <point x="500" y="0" type="line"/>
      <point x="500" y="68" type="line"/>
      <point x="478" y="68" type="line" smooth="yes"/>
      <point x="456" y="68"/>
      <point x="446" y="79"/>
      <point x="446" y="106" type="curve" smooth="yes"/>
      <point x="446" y="325" type="line" smooth="yes"/>
      <point x="446" y="425"/>
      <point x="395" y="495"/>
      <point x="254" y="495" type="curve" smooth="yes"/>
      <point x="180" y="495"/>
      <point x="118" y="476"/>
      <point x="65" y="443" type="curve"/>
      <point x="65" y="364" type="line"/>
      <point x="158" y="364" type="line"/>
      <point x="158" y="400" type="line"/>
      <point x="181" y="415"/>
      <point x="207" y="423"/>
      <point x="252" y="423" type="curve" smooth="yes"/>
      <point x="318" y="423"/>
      <point x="340" y="395"/>
      <point x="340" y="334" type="curve" smooth="yes"/>
      <point x="340" y="273" type="line"/>
      <point x="200" y="264" type="line" smooth="yes"/>
      <point x="92" y="257"/>
      <point x="23" y="219"/>
      <point x="23" y="119" type="curve" smooth="yes"/>
      <point x="23" y="34"/>
      <point x="78" y="-15"/>
      <point x="186" y="-15" type="curve" smooth="yes"/>
    </contour>
    <contour>
      <point x="146" y="57"/>
      <point x="121" y="81"/>
      <point x="121" y="124" type="curve" smooth="yes"/>
      <point x="121" y="174"/>
      <point x="142" y="196"/>
      <point x="208" y="200" type="curve" smooth="yes"/>
      <point x="340" y="210" type="line"/>
      <point x="340" y="162" type="line" smooth="yes"/>
      <point x="340" y="89"/>
      <point x="286" y="57"/>
      <point x="210" y="57" type="curve" smooth="yes"/>
    </contour>
    <contour>
      <point x="132" y="526" type="line"/>
      <point x="132" y="567"/>
      <point x="148" y="579"/>
      <point x="177" y="579" type="curve" smooth="yes"/>
      <point x="229" y="579"/>
      <point x="266" y="526"/>
      <point x="337" y="526" type="curve" smooth="yes"/>
      <point x="410" y="526"/>
      <point x="444" y="567"/>
      <point x="444" y="663" type="curve"/>
      <point x="366" y="663" type="line"/>
      <point x="366" y="622"/>
      <point x="351" y="609"/>
      <point x="322" y="609" type="curve" smooth="yes"/>
      <point x="273" y="609"/>
      <point x="235" y="663"/>
      <point x="163" y="663" type="curve" smooth="yes"/>
      <point x="89" y="663"/>
      <point x="54" y="620"/>
      <point x="54" y="526" type="curve"/>
    </contour>
  </outline>
</glyph>
<glyph name="aring" format="1">
  <advance width="523"/>
  <unicode hex="00E5"/>
  <note>
	aring
  </note>
  <outline>
    <contour>
      <point x="280" y="-15"/>
      <point x="330" y="9"/>
      <point x="372" y="63" type="curve"/>
      <point x="385" y="0" type="line"/>
      <point x="500" y="0" type="line"/>
      <point x="500" y="68" type="line"/>
      <point x="478" y="68" type="line" smooth="yes"/>
      <point x="456" y="68"/>
      <point x="446" y="79"/>
      <point x="446" y="106" type="curve" smooth="yes"/>
      <point x="446" y="325" type="line" smooth="yes"/>
      <point x="446" y="425"/>
      <point x="395" y="495"/>
      <point x="254" y="495" type="curve" smooth="yes"/>
      <point x="180" y="495"/>
      <point x="118" y="476"/>
      <point x="65" y="443" type="curve"/>
      <point x="65" y="364" type="line"/>
      <point x="158" y="364" type="line"/>
      <point x="158" y="400" type="line"/>
      <point x="181" y="415"/>
      <point x="207" y="423"/>
      <point x="252" y="423" type="curve" smooth="yes"/>
      <point x="318" y="423"/>
      <point x="340" y="395"/>
      <point x="340" y="334" type="curve" smooth="yes"/>
      <point x="340" y="273" type="line"/>
      <point x="200" y="264" type="line" smooth="yes"/>
      <point x="92" y="257"/>
      <point x="23" y="219"/>
      <point x="23" y="119" type="curve" smooth="yes"/>
      <point x="23" y="34"/>
      <point x="78" y="-15"/>
      <point x="186" y="-15" type="curve" smooth="yes"/>
    </contour>
    <contour>
      <point x="146" y="57"/>
      <point x="121" y="81"/>
      <point x="121" y="124" type="curve" smooth="yes"/>
      <point x="121" y="174"/>
      <point x="142" y="196"/>
      <point x="208" y="200" type="curve" smooth="yes"/>
      <point x="340" y="210" type="line"/>
      <point x="340" y="162" type="line" smooth="yes"/>
      <point x="340" y="89"/>
      <point x="286" y="57"/>
      <point x="210" y="57" type="curve" smooth="yes"/>
    </contour>
    <contour>
      <point x="307" y="525"/>
      <point x="358" y="575"/>
      <point x="358" y="638" type="curve" smooth="yes"/>
      <point x="358" y="701"/>
      <point x="307" y="752"/>
      <point x="244" y="752" type="curve" smooth="yes"/>
      <point x="181" y="752"/>
      <point x="131" y="701"/>
      <point x="131" y="638" type="curve" smooth="yes"/>
      <point x="131" y="575"/>
      <point x="181" y="525"/>
      <point x="244" y="525" type="curve" smooth="yes"/>
    </contour>
    <contour>
      <point x="214" y="585"/>
      <point x="191" y="608"/>
      <point x="191" y="638" type="curve" smooth="yes"/>
      <point x="191" y="668"/>
      <point x="214" y="692"/>
      <point x="244" y="692" type="curve" smooth="yes"/>
      <point x="274" y="692"/>
      <point x="297" y="668"/>
      <point x="297" y="638" type="curve" smooth="yes"/>
      <point x="297" y="608"/>
      <point x="274" y="585"/>
      <point x="244" y="585" type="curve" smooth="yes"/>
    </contour>
  </outline>
</glyph>
<glyph name="ae" format="1">
  <advance width="846"/>
  <unicode hex="00E6"/>
  <note>
	ae
  </note>
  <outline>
    <contour>
      <point x="281" y="-15"/>
      <point x="363" y="13"/>
      <point x="403" y="82" type="curve"/>
      <point x="441" y="17"/>
      <point x="509" y="-15"/>
      <point x="594" y="-15" type="curve" smooth="yes"/>
      <point x="685" y="-15"/>
      <point x="745" y="5"/>
      <point x="796" y="45" type="curve"/>
      <point x="796" y="115" type="line"/>
      <point x="706" y="115" type="line"/>
      <point x="706" y="78" type="line"/>
      <point x="678" y="62"/>
      <point x="646" y="54"/>
      <point x="595" y="54" type="curve" smooth="yes"/>
      <point x="518" y="54"/>
      <point x="449" y="102"/>
      <point x="449" y="212" type="curve"/>
      <point x="813" y="212" type="line"/>
      <point x="813" y="258" type="line" smooth="yes"/>
      <point x="813" y="402"/>
      <point x="742" y="495"/>
      <point x="587" y="495" type="curve" smooth="yes"/>
      <point x="512" y="495"/>
      <point x="445" y="470"/>
      <point x="407" y="417" type="curve"/>
      <point x="379" y="469"/>
      <point x="335" y="495"/>
      <point x="252" y="495" type="curve" smooth="yes"/>
      <point x="178" y="495"/>
      <point x="118" y="476"/>
      <point x="65" y="443" type="curve"/>
      <point x="65" y="364" type="line"/>
      <point x="158" y="364" type="line"/>
      <point x="158" y="400" type="line"/>
      <point x="184" y="415"/>
      <point x="211" y="423"/>
      <point x="252" y="423" type="curve" smooth="yes"/>
      <point x="318" y="423"/>
      <point x="340" y="395"/>
      <point x="340" y="334" type="curve" smooth="yes"/>
      <point x="340" y="273" type="line"/>
      <point x="200" y="264" type="line" smooth="yes"/>
      <point x="92" y="257"/>
      <point x="23" y="219"/>
      <point x="23" y="119" type="curve" smooth="yes"/>
      <point x="23" y="34"/>
      <point x="78" y="-15"/>
      <point x="186" y="-15" type="curve" smooth="yes"/>
    </contour>
    <contour>
      <point x="146" y="57"/>
      <point x="121" y="82"/>
      <point x="121" y="125" type="curve" smooth="yes"/>
      <point x="121" y="175"/>
      <point x="142" y="197"/>
      <point x="208" y="201" type="curve" smooth="yes"/>
      <point x="340" y="211" type="line"/>
      <point x="340" y="163" type="line" smooth="yes"/>
      <point x="340" y="90"/>
      <point x="286" y="57"/>
      <point x="210" y="57" type="curve" smooth="yes"/>
    </contour>
    <contour>
      <point x="449" y="374"/>
      <point x="498" y="423"/>
      <point x="586" y="423" type="curve" smooth="yes"/>
      <point x="671" y="423"/>
      <point x="713" y="382"/>
      <point x="713" y="277" type="curve"/>
      <point x="449" y="277" type="line"/>
    </contour>
  </outline>
</glyph>
<glyph name="ccedilla" format="1">
  <advance width="516"/>
  <unicode hex="00E7"/>
  <note>
	ccedilla
  </note>
  <outline>
    <contour>
      <point x="376" y="-15"/>
      <point x="427" y="-1"/>
      <point x="483" y="37" type="curve"/>
      <point x="446" y="98" type="line"/>
      <point x="407" y="73"/>
      <point x="367" y="63"/>
      <point x="306" y="63" type="curve" smooth="yes"/>
      <point x="215" y="63"/>
      <point x="137" y="111"/>
      <point x="137" y="236" type="curve" smooth="yes"/>
      <point x="137" y="367"/>
      <point x="205" y="418"/>
      <point x="287" y="418" type="curve" smooth="yes"/>
      <point x="334" y="418"/>
      <point x="359" y="411"/>
      <point x="388" y="395" type="curve"/>
      <point x="388" y="340" type="line"/>
      <point x="481" y="340" type="line"/>
      <point x="481" y="436" type="line"/>
      <point x="429" y="475"/>
      <point x="378" y="495"/>
      <point x="287" y="495" type="curve" smooth="yes"/>
      <point x="131" y="495"/>
      <point x="33" y="406"/>
      <point x="33" y="236" type="curve" smooth="yes"/>
      <point x="33" y="72"/>
      <point x="148" y="-15"/>
      <point x="290" y="-15" type="curve" smooth="yes"/>
    </contour>
    <contour>
      <point x="368" y="-228"/>
      <point x="412" y="-194"/>
      <point x="412" y="-133" type="curve" smooth="yes"/>
      <point x="412" y="-86"/>
      <point x="390" y="-56"/>
      <point x="331" y="-46" type="curve"/>
      <point x="339" y="0" type="line"/>
      <point x="244" y="0" type="line"/>
      <point x="231" y="-82" type="line"/>
      <point x="307" y="-82"/>
      <point x="323" y="-97"/>
      <point x="323" y="-130" type="curve" smooth="yes"/>
      <point x="323" y="-154"/>
      <point x="305" y="-166"/>
      <point x="266" y="-166" type="curve" smooth="yes"/>
      <point x="244" y="-166"/>
      <point x="219" y="-161"/>
      <point x="201" y="-153" type="curve"/>
      <point x="201" y="-215" type="line"/>
      <point x="224" y="-224"/>
      <point x="248" y="-228"/>
      <point x="276" y="-228" type="curve" smooth="yes"/>
    </contour>
  </outline>
</glyph>
<glyph name="igrave" format="1">
  <advance width="285"/>
  <unicode hex="00EC"/>
  <note>
	igrave
  </note>
  <outline>
    <contour>
      <point x="262" y="0" type="line"/>
      <point x="262" y="74" type="line"/>
      <point x="233" y="74" type="line" smooth="yes"/>
      <point x="207" y="74"/>
      <point x="196" y="85"/>
      <point x="196" y="111" type="curve" smooth="yes"/>
      <point x="196" y="480" type="line"/>
      <point x="23" y="480" type="line"/>
      <point x="23" y="405" type="line"/>
      <point x="52" y="405" type="line" smooth="yes"/>
      <point x="79" y="405"/>
      <point x="89" y="394"/>
      <point x="89" y="369" type="curve" smooth="yes"/>
      <point x="89" y="112" type="line" smooth="yes"/>
      <point x="89" y="85"/>
      <point x="79" y="74"/>
      <point x="52" y="74" type="curve" smooth="yes"/>
      <point x="23" y="74" type="line"/>
      <point x="23" y="0" type="line"/>
    </contour>
    <contour>
      <point x="190" y="526" type="line"/>
      <point x="110" y="705" type="line"/>
      <point x="-16" y="705" type="line"/>
      <point x="98" y="526" type="line"/>
    </contour>
  </outline>
</glyph>
<glyph name="eth" format="1">
  <advance width="578"/>
  <unicode hex="00F0"/>
  <note>
	eth
  </note>
  <outline>
    <contour>
      <point x="448" y="-15"/>
      <point x="544" y="120"/>
      <point x="544" y="366" type="curve" smooth="yes"/>
      <point x="545" y="480"/>
      <point x="520" y="552"/>
      <point x="481" y="597" type="curve"/>
      <point x="528" y="624" type="line"/>
      <point x="521" y="672" type="line"/>
      <point x="445" y="628" type="line"/>
      <point x="409" y="653"/>
      <point x="364" y="662"/>
      <point x="320" y="662" type="curve" smooth="yes"/>
      <point x="250" y="662"/>
      <point x="185" y="648"/>
      <point x="136" y="619" type="curve"/>
      <point x="168" y="553" type="line"/>
      <point x="215" y="578"/>
      <point x="257" y="588"/>
      <point x="302" y="588" type="curve" smooth="yes"/>
      <point x="316" y="588"/>
      <point x="343" y="586"/>
      <point x="358" y="578" type="curve"/>
      <point x="295" y="543" type="line"/>
      <point x="302" y="496" type="line"/>
      <point x="399" y="550" type="line"/>
      <point x="426" y="519"/>
      <point x="437" y="469"/>
      <point x="440" y="404" type="curve"/>
      <point x="408" y="447"/>
      <point x="359" y="469"/>
      <point x="300" y="469" type="curve" smooth="yes"/>
      <point x="146" y="469"/>
      <point x="43" y="376"/>
      <point x="34" y="225" type="curve" smooth="yes"/>
      <point x="23" y="57"/>
      <point x="116" y="-15"/>
      <point x="261" y="-15" type="curve" smooth="yes"/>
    </contour>
    <contour>
      <point x="179" y="59"/>
      <point x="146" y="95"/>
      <point x="138" y="162" type="curve" smooth="yes"/>
      <point x="135" y="185"/>
      <point x="136" y="211"/>
      <point x="139" y="240" type="curve" smooth="yes"/>
      <point x="151" y="340"/>
      <point x="202" y="394"/>
      <point x="305" y="394" type="curve" smooth="yes"/>
      <point x="376" y="394"/>
      <point x="435" y="353"/>
      <point x="428" y="256" type="curve" smooth="yes"/>
      <point x="419" y="119"/>
      <point x="357" y="59"/>
      <point x="266" y="59" type="curve" smooth="yes"/>
    </contour>
  </outline>
</glyph>
<glyph name="ntilde" format="1">
  <advance width="593"/>
  <unicode hex="00F1"/>
  <note>
	ntilde
  </note>
  <outline>
    <contour>
      <point x="252" y="0" type="line"/>
      <point x="252" y="74" type="line"/>
      <point x="226" y="74" type="line" smooth="yes"/>
      <point x="200" y="74"/>
      <point x="192" y="85"/>
      <point x="192" y="111" type="curve" smooth="yes"/>
      <point x="192" y="313" type="line" smooth="yes"/>
      <point x="192" y="384"/>
      <point x="244" y="423"/>
      <point x="309" y="423" type="curve" smooth="yes"/>
      <point x="372" y="423"/>
      <point x="398" y="395"/>
      <point x="398" y="328" type="curve" smooth="yes"/>
      <point x="398" y="0" type="line"/>
      <point x="570" y="0" type="line"/>
      <point x="570" y="74" type="line"/>
      <point x="542" y="74" type="line" smooth="yes"/>
      <point x="515" y="74"/>
      <point x="505" y="85"/>
      <point x="505" y="111" type="curve" smooth="yes"/>
      <point x="505" y="329" type="line" smooth="yes"/>
      <point x="505" y="434"/>
      <point x="456" y="495"/>
      <point x="345" y="495" type="curve" smooth="yes"/>
      <point x="262" y="495"/>
      <point x="207" y="470"/>
      <point x="162" y="413" type="curve"/>
      <point x="156" y="480" type="line"/>
      <point x="28" y="480" type="line"/>
      <point x="28" y="405" type="line"/>
      <point x="49" y="405" type="line" smooth="yes"/>
      <point x="76" y="405"/>
      <point x="85" y="394"/>
      <point x="85" y="368" type="curve" smooth="yes"/>
      <point x="85" y="111" type="line" smooth="yes"/>
      <point x="85" y="85"/>
      <point x="75" y="74"/>
      <point x="48" y="74" type="curve" smooth="yes"/>
      <point x="23" y="74" type="line"/>
      <point x="23" y="0" type="line"/>
    </contour>
    <contour>
      <point x="161" y="526" type="line"/>
      <point x="161" y="567"/>
      <point x="177" y="579"/>
      <point x="206" y="579" type="curve" smooth="yes"/>
      <point x="258" y="579"/>
      <point x="295" y="526"/>
      <point x="366" y="526" type="curve" smooth="yes"/>
      <point x="439" y="526"/>
      <point x="473" y="567"/>
      <point x="473" y="663" type="curve"/>
      <point x="395" y="663" type="line"/>
      <point x="395" y="622"/>
      <point x="380" y="609"/>
      <point x="351" y="609" type="curve" smooth="yes"/>
      <point x="302" y="609"/>
      <point x="264" y="663"/>
      <point x="192" y="663" type="curve" smooth="yes"/>
      <point x="118" y="663"/>
      <point x="83" y="620"/>
      <point x="83" y="526" type="curve"/>
    </contour>
  </outline>
</glyph>
<glyph name="oacute" format="1">
  <advance width="558"/>
  <unicode hex="00F3"/>
  <note>
	oacute
  </note>
  <outline>
    <contour>
      <point x="445" y="-15"/>
      <point x="525" y="82"/>
      <point x="525" y="239" type="curve" smooth="yes"/>
      <point x="525" y="396"/>
      <point x="448" y="495"/>
      <point x="279" y="495" type="curve" smooth="yes"/>
      <point x="111" y="495"/>
      <point x="33" y="396"/>
      <point x="33" y="239" type="curve" smooth="yes"/>
      <point x="33" y="82"/>
      <point x="113" y="-15"/>
      <point x="279" y="-15" type="curve" smooth="yes"/>
    </contour>
    <contour>
      <point x="183" y="60"/>
      <point x="138" y="117"/>
      <point x="138" y="239" type="curve" smooth="yes"/>
      <point x="138" y="362"/>
      <point x="183" y="420"/>
      <point x="279" y="420" type="curve" smooth="yes"/>
      <point x="375" y="420"/>
      <point x="421" y="362"/>
      <point x="421" y="239" type="curve" smooth="yes"/>
      <point x="421" y="117"/>
      <point x="375" y="60"/>
      <point x="279" y="60" type="curve" smooth="yes"/>
    </contour>
    <contour>
      <point x="303" y="526" type="line"/>
      <point x="417" y="705" type="line"/>
      <point x="292" y="705" type="line"/>
      <point x="212" y="526" type="line"/>
    </contour>
  </outline>
</glyph>
<glyph name="ocircumflex" format="1">
  <advance width="558"/>
  <unicode hex="00F4"/>
  <note>
	ocircumflex
  </note>
  <outline>
    <contour>
      <point x="445" y="-15"/>
      <point x="525" y="82"/>
      <point x="525" y="239" type="curve" smooth="yes"/>
      <point x="525" y="396"/>
      <point x="448" y="495"/>
      <point x="279" y="495" type="curve" smooth="yes"/>
      <point x="111" y="495"/>
      <point x="33" y="396"/>
      <point x="33" y="239" type="curve" smooth="yes"/>
      <point x="33" y="82"/>
      <point x="113" y="-15"/>
      <point x="279" y="-15" type="curve" smooth="yes"/>
    </contour>
    <contour>
      <point x="183" y="60"/>
      <point x="138" y="117"/>
      <point x="138" y="239" type="curve" smooth="yes"/>
      <point x="138" y="362"/>
      <point x="183" y="420"/>
      <point x="279" y="420" type="curve" smooth="yes"/>
      <point x="375" y="420"/>
      <point x="421" y="362"/>
      <point x="421" y="239" type="curve" smooth="yes"/>
      <point x="421" y="117"/>
      <point x="375" y="60"/>
      <point x="279" y="60" type="curve" smooth="yes"/>
    </contour>
    <contour>
      <point x="190" y="525" type="line"/>
      <point x="267" y="651" type="line"/>
      <point x="344" y="525" type="line"/>
      <point x="444" y="525" type="line"/>
      <point x="319" y="713" type="line"/>
      <point x="216" y="713" type="line"/>
      <point x="91" y="525" type="line"/>
    </contour>
  </outline>
</glyph>
<glyph name="otilde" format="1">
  <advance width="558"/>
  <unicode hex="00F5"/>
  <note>
	otilde
  </note>
  <outline>
    <contour>
      <point x="445" y="-15"/>
      <point x="525" y="82"/>
      <point x="525" y="239" type="curve" smooth="yes"/>
      <point x="525" y="396"/>
      <point x="448" y="495"/>
      <point x="279" y="495" type="curve" smooth="yes"/>
      <point x="111" y="495"/>
      <point x="33" y="396"/>
      <point x="33" y="239" type="curve" smooth="yes"/>
      <point x="33" y="82"/>
      <point x="113" y="-15"/>
      <point x="279" y="-15" type="curve" smooth="yes"/>
    </contour>
    <contour>
      <point x="183" y="60"/>
      <point x="138" y="117"/>
      <point x="138" y="239" type="curve" smooth="yes"/>
      <point x="138" y="362"/>
      <point x="183" y="420"/>
      <point x="279" y="420" type="curve" smooth="yes"/>
      <point x="375" y="420"/>
      <point x="421" y="362"/>
      <point x="421" y="239" type="curve" smooth="yes"/>
      <point x="421" y="117"/>
      <point x="375" y="60"/>
      <point x="279" y="60" type="curve" smooth="yes"/>
    </contour>
    <contour>
      <point x="151" y="526" type="line"/>
      <point x="151" y="567"/>
      <point x="167" y="579"/>
      <point x="196" y="579" type="curve" smooth="yes"/>
      <point x="248" y="579"/>
      <point x="285" y="526"/>
      <point x="356" y="526" type="curve" smooth="yes"/>
      <point x="429" y="526"/>
      <point x="463" y="567"/>
      <point x="463" y="663" type="curve"/>
      <point x="385" y="663" type="line"/>
      <point x="385" y="622"/>
      <point x="370" y="609"/>
      <point x="341" y="609" type="curve" smooth="yes"/>
      <point x="292" y="609"/>
      <point x="254" y="663"/>
      <point x="182" y="663" type="curve" smooth="yes"/>
      <point x="108" y="663"/>
      <point x="73" y="620"/>
      <point x="73" y="526" type="curve"/>
    </contour>
  </outline>
</glyph>
<glyph name="divide" format="1">
  <advance width="412"/>
  <unicode hex="00F7"/>
  <note>
	divide
  </note>
  <outline>
    <contour>
      <point x="369" y="270" type="line"/>
      <point x="369" y="343" type="line"/>
      <point x="43" y="343" type="line"/>
      <point x="43" y="270" type="line"/>
    </contour>
    <contour>
      <point x="245" y="151" type="line"/>
      <point x="245" y="227" type="line"/>
      <point x="166" y="227" type="line"/>
      <point x="166" y="151" type="line"/>
    </contour>
    <contour>
      <point x="245" y="386" type="line"/>
      <point x="245" y="462" type="line"/>
      <point x="166" y="462" type="line"/>
      <point x="166" y="386" type="line"/>
    </contour>
  </outline>
</glyph>
<glyph name="oslash" format="1">
  <advance width="558"/>
  <unicode hex="00F8"/>
  <note>
	oslash
  </note>
  <outline>
    <contour>
      <point x="202" y="-52" type="line"/>
      <point x="217" y="-10" type="line"/>
      <point x="237" y="-13"/>
      <point x="257" y="-15"/>
      <point x="279" y="-15" type="curve" smooth="yes"/>
      <point x="445" y="-15"/>
      <point x="525" y="82"/>
      <point x="525" y="239" type="curve" smooth="yes"/>
      <point x="525" y="355"/>
      <point x="483" y="439"/>
      <point x="393" y="475" type="curve"/>
      <point x="415" y="535" type="line"/>
      <point x="361" y="535" type="line"/>
      <point x="344" y="489" type="line"/>
      <point x="324" y="492"/>
      <point x="303" y="495"/>
      <point x="279" y="495" type="curve" smooth="yes"/>
      <point x="111" y="495"/>
      <point x="33" y="396"/>
      <point x="33" y="239" type="curve" smooth="yes"/>
      <point x="33" y="123"/>
      <point x="77" y="38"/>
      <point x="168" y="3" type="curve"/>
      <point x="147" y="-52" type="line"/>
    </contour>
    <contour>
      <point x="158" y="112"/>
      <point x="138" y="162"/>
      <point x="138" y="239" type="curve" smooth="yes"/>
      <point x="138" y="362"/>
      <point x="183" y="420"/>
      <point x="279" y="420" type="curve" smooth="yes"/>
      <point x="293" y="420"/>
      <point x="306" y="418"/>
      <point x="318" y="416" type="curve"/>
      <point x="197" y="85" type="line"/>
    </contour>
    <contour>
      <point x="266" y="60"/>
      <point x="254" y="61"/>
      <point x="243" y="63" type="curve"/>
      <point x="363" y="392" type="line"/>
      <point x="401" y="364"/>
      <point x="421" y="314"/>
      <point x="421" y="239" type="curve" smooth="yes"/>
      <point x="421" y="117"/>
      <point x="375" y="60"/>
      <point x="279" y="60" type="curve" smooth="yes"/>
    </contour>
  </outline>
</glyph>
<glyph name="thorn" format="1">
  <advance width="598"/>
  <unicode hex="00FE"/>
  <note>
	thorn
  </note>
  <outline>
    <contour>
      <point x="250" y="-208" type="line"/>
      <point x="250" y="-136" type="line"/>
      <point x="233" y="-136" type="line" smooth="yes"/>
      <point x="201" y="-136"/>
      <point x="193" y="-121"/>
      <point x="193" y="-91" type="curve" smooth="yes"/>
      <point x="193" y="56" type="line"/>
      <point x="237" y="4"/>
      <point x="282" y="-15"/>
      <point x="353" y="-15" type="curve" smooth="yes"/>
      <point x="489" y="-15"/>
      <point x="565" y="81"/>
      <point x="565" y="245" type="curve" smooth="yes"/>
      <point x="565" y="407"/>
      <point x="484" y="495"/>
      <point x="352" y="495" type="curve" smooth="yes"/>
      <point x="276" y="495"/>
      <point x="224" y="469"/>
      <point x="186" y="415" type="curve"/>
      <point x="186" y="662" type="line"/>
      <point x="33" y="662" type="line"/>
      <point x="33" y="589" type="line"/>
      <point x="54" y="589" type="line" smooth="yes"/>
      <point x="79" y="589"/>
      <point x="90" y="576"/>
      <point x="90" y="550" type="curve" smooth="yes"/>
      <point x="90" y="-91" type="line" smooth="yes"/>
      <point x="90" y="-121"/>
      <point x="82" y="-136"/>
      <point x="50" y="-136" type="curve" smooth="yes"/>
      <point x="33" y="-136" type="line"/>
      <point x="33" y="-208" type="line"/>
    </contour>
    <contour>
      <point x="251" y="63"/>
      <point x="196" y="112"/>
      <point x="196" y="210" type="curve" smooth="yes"/>
      <point x="196" y="266" type="line" smooth="yes"/>
      <point x="196" y="358"/>
      <point x="247" y="418"/>
      <point x="331" y="418" type="curve" smooth="yes"/>
      <point x="424" y="418"/>
      <point x="461" y="367"/>
      <point x="461" y="244" type="curve" smooth="yes"/>
      <point x="461" y="116"/>
      <point x="422" y="63"/>
      <point x="327" y="63" type="curve" smooth="yes"/>
    </contour>
  </outline>
</glyph>
<glyph name="Abreve" format="1">
  <advance width="719"/>
  <unicode hex="0102"/>
  <note>
	Abreve
  </note>
  <outline>
    <contour>
      <point x="262" y="0" type="line"/>
      <point x="262" y="73" type="line"/>
      <point x="212" y="73" type="line"/>
      <point x="256" y="201" type="line"/>
      <point x="464" y="201" type="line"/>
      <point x="508" y="73" type="line"/>
      <point x="458" y="73" type="line"/>
      <point x="458" y="0" type="line"/>
      <point x="686" y="0" type="line"/>
      <point x="686" y="73" type="line"/>
      <point x="656" y="73" type="line" smooth="yes"/>
      <point x="626" y="73"/>
      <point x="610" y="81"/>
      <point x="600" y="109" type="curve" smooth="yes"/>
      <point x="411" y="647" type="line"/>
      <point x="310" y="647" type="line"/>
      <point x="119" y="109" type="line" smooth="yes"/>
      <point x="109" y="81"/>
      <point x="93" y="73"/>
      <point x="64" y="73" type="curve" smooth="yes"/>
      <point x="33" y="73" type="line"/>
      <point x="33" y="0" type="line"/>
    </contour>
    <contour>
      <point x="361" y="508" type="line"/>
      <point x="444" y="264" type="line"/>
      <point x="276" y="264" type="line"/>
    </contour>
    <contour>
      <point x="458" y="701"/>
      <point x="520" y="757"/>
      <point x="520" y="844" type="curve"/>
      <point x="433" y="844" type="line"/>
      <point x="433" y="796"/>
      <point x="408" y="769"/>
      <point x="361" y="769" type="curve" smooth="yes"/>
      <point x="316" y="769"/>
      <point x="289" y="796"/>
      <point x="289" y="844" type="curve"/>
      <point x="202" y="844" type="line"/>
      <point x="202" y="757"/>
      <point x="264" y="701"/>
      <point x="361" y="701" type="curve" smooth="yes"/>
    </contour>
  </outline>
</glyph>
<glyph name="Aogonek" format="1">
  <advance width="719"/>
  <unicode hex="0104"/>
  <note>
	Aogonek
  </note>
  <outline>
    <contour>
      <point x="262" y="0" type="line"/>
      <point x="262" y="73" type="line"/>
      <point x="212" y="73" type="line"/>
      <point x="256" y="201" type="line"/>
      <point x="464" y="201" type="line"/>
      <point x="508" y="73" type="line"/>
      <point x="458" y="73" type="line"/>
      <point x="458" y="0" type="line"/>
      <point x="686" y="0" type="line"/>
      <point x="686" y="73" type="line"/>
      <point x="656" y="73" type="line" smooth="yes"/>
      <point x="626" y="73"/>
      <point x="610" y="81"/>
      <point x="600" y="109" type="curve" smooth="yes"/>
      <point x="411" y="647" type="line"/>
      <point x="310" y="647" type="line"/>
      <point x="119" y="109" type="line" smooth="yes"/>
      <point x="109" y="81"/>
      <point x="93" y="73"/>
      <point x="64" y="73" type="curve" smooth="yes"/>
      <point x="33" y="73" type="line"/>
      <point x="33" y="0" type="line"/>
    </contour>
    <contour>
      <point x="596" y="-209"/>
      <point x="620" y="-202"/>
      <point x="635" y="-191" type="curve"/>
      <point x="635" y="-129" type="line"/>
      <point x="621" y="-134"/>
      <point x="606" y="-137"/>
      <point x="593" y="-137" type="curve" smooth="yes"/>
      <point x="568" y="-137"/>
      <point x="556" y="-122"/>
      <point x="556" y="-91" type="curve" smooth="yes"/>
      <point x="556" y="-55"/>
      <point x="573" y="-27"/>
      <point x="606" y="0" type="curve"/>
      <point x="518" y="0" type="line"/>
      <point x="487" y="-27"/>
      <point x="467" y="-67"/>
      <point x="467" y="-111" type="curve" smooth="yes"/>
      <point x="467" y="-180"/>
      <point x="512" y="-209"/>
      <point x="569" y="-209" type="curve" smooth="yes"/>
    </contour>
    <contour>
      <point x="361" y="508" type="line"/>
      <point x="444" y="264" type="line"/>
      <point x="276" y="264" type="line"/>
    </contour>
  </outline>
</glyph>
<glyph name="aogonek" format="1">
  <advance width="523"/>
  <unicode hex="0105"/>
  <note>
	aogonek
  </note>
  <outline>
    <contour>
      <point x="280" y="-15"/>
      <point x="330" y="9"/>
      <point x="372" y="63" type="curve"/>
      <point x="385" y="0" type="line"/>
      <point x="500" y="0" type="line"/>
      <point x="500" y="68" type="line"/>
      <point x="478" y="68" type="line" smooth="yes"/>
      <point x="456" y="68"/>
      <point x="446" y="79"/>
      <point x="446" y="106" type="curve" smooth="yes"/>
      <point x="446" y="325" type="line" smooth="yes"/>
      <point x="446" y="425"/>
      <point x="395" y="495"/>
      <point x="254" y="495" type="curve" smooth="yes"/>
      <point x="180" y="495"/>
      <point x="118" y="476"/>
      <point x="65" y="443" type="curve"/>
      <point x="65" y="364" type="line"/>
      <point x="158" y="364" type="line"/>
      <point x="158" y="400" type="line"/>
      <point x="181" y="415"/>
      <point x="207" y="423"/>
      <point x="252" y="423" type="curve" smooth="yes"/>
      <point x="318" y="423"/>
      <point x="340" y="395"/>
      <point x="340" y="334" type="curve" smooth="yes"/>
      <point x="340" y="273" type="line"/>
      <point x="200" y="264" type="line" smooth="yes"/>
      <point x="92" y="257"/>
      <point x="23" y="219"/>
      <point x="23" y="119" type="curve" smooth="yes"/>
      <point x="23" y="34"/>
      <point x="78" y="-15"/>
      <point x="186" y="-15" type="curve" smooth="yes"/>
    </contour>
    <contour>
      <point x="446" y="-209"/>
      <point x="470" y="-202"/>
      <point x="485" y="-191" type="curve"/>
      <point x="485" y="-129" type="line"/>
      <point x="471" y="-134"/>
      <point x="456" y="-137"/>
      <point x="443" y="-137" type="curve" smooth="yes"/>
      <point x="418" y="-137"/>
      <point x="406" y="-122"/>
      <point x="406" y="-91" type="curve" smooth="yes"/>
      <point x="406" y="-55"/>
      <point x="423" y="-27"/>
      <point x="456" y="0" type="curve"/>
      <point x="368" y="0" type="line"/>
      <point x="337" y="-27"/>
      <point x="317" y="-67"/>
      <point x="317" y="-111" type="curve" smooth="yes"/>
      <point x="317" y="-180"/>
      <point x="362" y="-209"/>
      <point x="419" y="-209" type="curve" smooth="yes"/>
    </contour>
    <contour>
      <point x="146" y="57"/>
      <point x="121" y="81"/>
      <point x="121" y="124" type="curve" smooth="yes"/>
      <point x="121" y="174"/>
      <point x="142" y="196"/>
      <point x="208" y="200" type="curve" smooth="yes"/>
      <point x="340" y="210" type="line"/>
      <point x="340" y="162" type="line" smooth="yes"/>
      <point x="340" y="89"/>
      <point x="286" y="57"/>
      <point x="210" y="57" type="curve" smooth="yes"/>
    </contour>
  </outline>
</glyph>
<glyph name="Ccircumflex" format="1">
  <advance width="599"/>
  <unicode hex="0108"/>
  <note>
	Ccircumflex
  </note>
  <outline>
    <contour>
      <point x="446" y="-15"/>
      <point x="503" y="-3"/>
      <point x="564" y="37" type="curve"/>
      <point x="525" y="99" type="line"/>
      <point x="477" y="69"/>
      <point x="429" y="59"/>
      <point x="367" y="59" type="curve" smooth="yes"/>
      <point x="224" y="59"/>
      <point x="136" y="156"/>
      <point x="136" y="320" type="curve" smooth="yes"/>
      <point x="136" y="487"/>
      <point x="215" y="588"/>
      <point x="351" y="588" type="curve" smooth="yes"/>
      <point x="395" y="588"/>
      <point x="432" y="581"/>
      <point x="461" y="568" type="curve"/>
      <point x="461" y="504" type="line"/>
      <point x="566" y="504" type="line"/>
      <point x="566" y="606" type="line"/>
      <point x="514" y="644"/>
      <point x="446" y="662"/>
      <point x="351" y="662" type="curve" smooth="yes"/>
      <point x="133" y="662"/>
      <point x="33" y="514"/>
      <point x="33" y="320" type="curve" smooth="yes"/>
      <point x="33" y="125"/>
      <point x="147" y="-15"/>
      <point x="363" y="-15" type="curve" smooth="yes"/>
    </contour>
    <contour>
      <point x="263" y="701" type="line"/>
      <point x="340" y="827" type="line"/>
      <point x="417" y="701" type="line"/>
      <point x="517" y="701" type="line"/>
      <point x="392" y="889" type="line"/>
      <point x="289" y="889" type="line"/>
      <point x="164" y="701" type="line"/>
    </contour>
  </outline>
</glyph>
<glyph name="cdotaccent" format="1">
  <advance width="516"/>
  <unicode hex="010B"/>
  <note>
	cdotaccent
  </note>
  <outline>
    <contour>
      <point x="376" y="-15"/>
      <point x="427" y="-1"/>
      <point x="483" y="37" type="curve"/>
      <point x="446" y="98" type="line"/>
      <point x="407" y="73"/>
      <point x="367" y="63"/>
      <point x="306" y="63" type="curve" smooth="yes"/>
      <point x="215" y="63"/>
      <point x="137" y="111"/>
      <point x="137" y="236" type="curve" smooth="yes"/>
      <point x="137" y="367"/>
      <point x="205" y="418"/>
      <point x="287" y="418" type="curve" smooth="yes"/>
      <point x="338" y="418"/>
      <point x="359" y="411"/>
      <point x="388" y="395" type="curve"/>
      <point x="388" y="340" type="line"/>
      <point x="481" y="340" type="line"/>
      <point x="481" y="436" type="line"/>
      <point x="429" y="475"/>
      <point x="378" y="495"/>
      <point x="287" y="495" type="curve" smooth="yes"/>
      <point x="131" y="495"/>
      <point x="33" y="406"/>
      <point x="33" y="236" type="curve" smooth="yes"/>
      <point x="33" y="72"/>
      <point x="148" y="-15"/>
      <point x="290" y="-15" type="curve" smooth="yes"/>
    </contour>
    <contour>
      <point x="325" y="552" type="line"/>
      <point x="325" y="648" type="line"/>
      <point x="233" y="648" type="line"/>
      <point x="233" y="552" type="line"/>
    </contour>
  </outline>
</glyph>
<glyph name="Ccaron" format="1">
  <advance width="599"/>
  <unicode hex="010C"/>
  <note>
	Ccaron
  </note>
  <outline>
    <contour>
      <point x="446" y="-15"/>
      <point x="503" y="-3"/>
      <point x="564" y="37" type="curve"/>
      <point x="525" y="99" type="line"/>
      <point x="477" y="69"/>
      <point x="429" y="59"/>
      <point x="367" y="59" type="curve" smooth="yes"/>
      <point x="224" y="59"/>
      <point x="136" y="156"/>
      <point x="136" y="320" type="curve" smooth="yes"/>
      <point x="136" y="487"/>
      <point x="215" y="588"/>
      <point x="351" y="588" type="curve" smooth="yes"/>
      <point x="395" y="588"/>
      <point x="432" y="581"/>
      <point x="461" y="568" type="curve"/>
      <point x="461" y="504" type="line"/>
      <point x="566" y="504" type="line"/>
      <point x="566" y="606" type="line"/>
      <point x="514" y="644"/>
      <point x="446" y="662"/>
      <point x="351" y="662" type="curve" smooth="yes"/>
      <point x="133" y="662"/>
      <point x="33" y="514"/>
      <point x="33" y="320" type="curve" smooth="yes"/>
      <point x="33" y="125"/>
      <point x="147" y="-15"/>
      <point x="363" y="-15" type="curve" smooth="yes"/>
    </contour>
    <contour>
      <point x="390" y="701" type="line"/>
      <point x="515" y="889" type="line"/>
      <point x="415" y="889" type="line"/>
      <point x="338" y="763" type="line"/>
      <point x="261" y="889" type="line"/>
      <point x="162" y="889" type="line"/>
      <point x="287" y="701" type="line"/>
    </contour>
  </outline>
</glyph>
<glyph name="Dcaron" format="1">
  <advance width="628"/>
  <unicode hex="010E"/>
  <note>
	Dcaron
  </note>
  <outline>
    <contour>
      <point x="321" y="0" type="line" smooth="yes"/>
      <point x="507" y="0"/>
      <point x="595" y="134"/>
      <point x="595" y="321" type="curve" smooth="yes"/>
      <point x="595" y="522"/>
      <point x="511" y="647"/>
      <point x="321" y="647" type="curve" smooth="yes"/>
      <point x="33" y="647" type="line"/>
      <point x="33" y="574" type="line"/>
      <point x="56" y="574" type="line" smooth="yes"/>
      <point x="83" y="574"/>
      <point x="93" y="563"/>
      <point x="93" y="538" type="curve" smooth="yes"/>
      <point x="93" y="110" type="line" smooth="yes"/>
      <point x="93" y="83"/>
      <point x="83" y="72"/>
      <point x="56" y="72" type="curve" smooth="yes"/>
      <point x="33" y="72" type="line"/>
      <point x="33" y="0" type="line"/>
    </contour>
    <contour>
      <point x="199" y="575" type="line"/>
      <point x="307" y="575" type="line" smooth="yes"/>
      <point x="442" y="575"/>
      <point x="491" y="486"/>
      <point x="491" y="321" type="curve" smooth="yes"/>
      <point x="491" y="160"/>
      <point x="441" y="72"/>
      <point x="307" y="72" type="curve" smooth="yes"/>
      <point x="199" y="72" type="line"/>
    </contour>
    <contour>
      <point x="308" y="701" type="line"/>
      <point x="433" y="889" type="line"/>
      <point x="333" y="889" type="line"/>
      <point x="256" y="763" type="line"/>
      <point x="179" y="889" type="line"/>
      <point x="80" y="889" type="line"/>
      <point x="205" y="701" type="line"/>
    </contour>
  </outline>
</glyph>
<glyph name="dcaron" format="1">
  <advance width="737"/>
  <unicode hex="010F"/>
  <note>
	dcaron
  </note>
  <outline>
    <contour>
      <point x="327" y="-15"/>
      <point x="378" y="10"/>
      <point x="418" y="70" type="curve"/>
      <point x="427" y="0" type="line"/>
      <point x="561" y="0" type="line"/>
      <point x="561" y="68" type="line"/>
      <point x="541" y="68" type="line" smooth="yes"/>
      <point x="516" y="68"/>
      <point x="508" y="78"/>
      <point x="508" y="107" type="curve" smooth="yes"/>
      <point x="508" y="662" type="line"/>
      <point x="349" y="662" type="line"/>
      <point x="349" y="589" type="line"/>
      <point x="366" y="589" type="line" smooth="yes"/>
      <point x="398" y="589"/>
      <point x="405" y="575"/>
      <point x="405" y="545" type="curve" smooth="yes"/>
      <point x="405" y="430" type="line"/>
      <point x="373" y="477"/>
      <point x="328" y="495"/>
      <point x="247" y="495" type="curve" smooth="yes"/>
      <point x="108" y="495"/>
      <point x="33" y="398"/>
      <point x="33" y="232" type="curve" smooth="yes"/>
      <point x="33" y="71"/>
      <point x="113" y="-15"/>
      <point x="243" y="-15" type="curve" smooth="yes"/>
    </contour>
    <contour>
      <point x="174" y="63"/>
      <point x="137" y="110"/>
      <point x="137" y="233" type="curve" smooth="yes"/>
      <point x="137" y="361"/>
      <point x="176" y="418"/>
      <point x="271" y="418" type="curve" smooth="yes"/>
      <point x="355" y="418"/>
      <point x="403" y="365"/>
      <point x="403" y="267" type="curve" smooth="yes"/>
      <point x="403" y="216" type="line" smooth="yes"/>
      <point x="403" y="124"/>
      <point x="353" y="63"/>
      <point x="267" y="63" type="curve" smooth="yes"/>
    </contour>
    <contour>
      <point x="644" y="521" type="line"/>
      <point x="724" y="721" type="line"/>
      <point x="601" y="721" type="line"/>
      <point x="554" y="521" type="line"/>
    </contour>
  </outline>
</glyph>
